<?xml version="1.0" encoding="UTF-8" standalone="no"?><svg xmlns="http://www.w3.org/2000/svg" xmlns:xlink="http://www.w3.org/1999/xlink" contentScriptType="application/ecmascript" contentStyleType="text/css" height="728px" preserveAspectRatio="none" style="width:1049px;height:728px;" version="1.1" viewBox="0 0 1049 728" width="1049px" zoomAndPan="magnify"><defs/><g><!--MD5=[e59cf999063292dce8d6ea34dd10a338]
class user--><rect codeLine="25" fill="#FFFFFF" height="69.2188" id="user" rx="2.5" ry="2.5" style="stroke:#2E8B57;stroke-width:1.5;" width="197.3333" x="845" y="552"/><text fill="#000000" font-family="sans-serif" font-size="12" font-weight="bold" lengthAdjust="spacingAndGlyphs" textLength="33" x="927.1667" y="568.1387">User</text><text fill="#808080" font-family="sans-serif" font-size="10" lengthAdjust="spacingAndGlyphs" textLength="31" x="928.1667" y="580.251">(user)</text><line style="stroke:#2E8B57;stroke-width:1.5;" x1="846" x2="1041.3333" y1="587.6094" y2="587.6094"/><path d="M857.0417,594.3307 C855.7767,594.3307 854.75,595.3574 854.75,596.6224 C854.75,596.7691 854.75,596.9157 854.7775,597.0532 L852,599.8307 L852,601.6641 L854.75,601.6641 L854.75,599.8307 L856.5833,599.8307 L856.5833,598.9141 L856.6108,598.8866 C856.7483,598.9141 856.895,598.9141 857.0417,598.9141 C858.3067,598.9141 859.3333,597.8874 859.3333,596.6224 C859.3333,595.3574 858.3067,594.3307 857.0417,594.3307 M857.5,595.2474 C858.0042,595.2474 858.4167,595.6599 858.4167,596.1641 C858.4167,596.6682 858.0042,597.0807 857.5,597.0807 C856.9958,597.0807 856.5833,596.6682 856.5833,596.1641 C856.5833,595.6599 856.9958,595.2474 857.5,595.2474 " fill="#B8860B" style="stroke:;stroke-width:0.0;stroke-dasharray:;"/><text fill="#000000" font-family="sans-serif" font-size="11" font-weight="bold" lengthAdjust="spacingAndGlyphs" textLength="65" x="864.3333" y="601.8198">username</text><text fill="#000000" font-family="sans-serif" font-size="11" lengthAdjust="spacingAndGlyphs" textLength="91" x="929.3333" y="601.8198">: NVARCHAR(32)</text><path d="M854.75,607.1354 C853.2283,607.1354 852,608.3638 852,609.8854 C852,611.4071 853.2283,612.6354 854.75,612.6354 C856.2717,612.6354 857.5,611.4071 857.5,609.8854 C857.5,608.3638 856.2717,607.1354 854.75,607.1354 " fill="#EFEFEF" style="stroke:;stroke-width:0.0;stroke-dasharray:;"/><text fill="#000000" font-family="sans-serif" font-size="11" lengthAdjust="spacingAndGlyphs" textLength="172" x="864.3333" y="614.6245">passwordHash: NVARCHAR(60)</text><!--MD5=[15c6e9ffaea2e23fe19ed9db921e213d]
class paint--><rect codeLine="30" fill="#FFFFFF" height="82.0234" id="paint" rx="2.5" ry="2.5" style="stroke:#2E8B57;stroke-width:1.5;" width="149.3333" x="592.5" y="451.5"/><text fill="#000000" font-family="sans-serif" font-size="12" font-weight="bold" lengthAdjust="spacingAndGlyphs" textLength="38" x="648.1667" y="467.6387">Paint</text><text fill="#808080" font-family="sans-serif" font-size="10" lengthAdjust="spacingAndGlyphs" textLength="36" x="649.1667" y="479.751">(paint)</text><line style="stroke:#2E8B57;stroke-width:1.5;" x1="593.5" x2="740.8333" y1="487.1094" y2="487.1094"/><path d="M604.5417,493.8307 C603.2767,493.8307 602.25,494.8574 602.25,496.1224 C602.25,496.2691 602.25,496.4157 602.2775,496.5532 L599.5,499.3307 L599.5,501.1641 L602.25,501.1641 L602.25,499.3307 L604.0833,499.3307 L604.0833,498.4141 L604.1108,498.3866 C604.2483,498.4141 604.395,498.4141 604.5417,498.4141 C605.8067,498.4141 606.8333,497.3874 606.8333,496.1224 C606.8333,494.8574 605.8067,493.8307 604.5417,493.8307 M605,494.7474 C605.5042,494.7474 605.9167,495.1599 605.9167,495.6641 C605.9167,496.1682 605.5042,496.5807 605,496.5807 C604.4958,496.5807 604.0833,496.1682 604.0833,495.6641 C604.0833,495.1599 604.4958,494.7474 605,494.7474 " fill="#B8860B" style="stroke:;stroke-width:0.0;stroke-dasharray:;"/><text fill="#000000" font-family="sans-serif" font-size="11" font-weight="bold" lengthAdjust="spacingAndGlyphs" textLength="12" x="611.8333" y="501.3198">id</text><text fill="#000000" font-family="sans-serif" font-size="11" lengthAdjust="spacingAndGlyphs" textLength="25" x="623.8333" y="501.3198">: INT</text><path d="M602.25,506.6354 C600.7283,506.6354 599.5,507.8638 599.5,509.3854 C599.5,510.9071 600.7283,512.1354 602.25,512.1354 C603.7717,512.1354 605,510.9071 605,509.3854 C605,507.8638 603.7717,506.6354 602.25,506.6354 " fill="#EFEFEF" style="stroke:;stroke-width:0.0;stroke-dasharray:;"/><text fill="#000000" font-family="sans-serif" font-size="11" lengthAdjust="spacingAndGlyphs" textLength="124" x="611.8333" y="514.1245">name: NVARCHAR(64)</text><path d="M602.25,519.4401 C600.7283,519.4401 599.5,520.6684 599.5,522.1901 C599.5,523.7118 600.7283,524.9401 602.25,524.9401 C603.7717,524.9401 605,523.7118 605,522.1901 C605,520.6684 603.7717,519.4401 602.25,519.4401 " fill="#EFEFEF" style="stroke:;stroke-width:0.0;stroke-dasharray:;"/><text fill="#000000" font-family="sans-serif" font-size="11" lengthAdjust="spacingAndGlyphs" textLength="117" x="611.8333" y="526.9292">type: NVARCHAR(32)</text><!--MD5=[62bb14c4c7cfe8ecd085cb6ef8c8d2f8]
class paint_scheme_part--><rect codeLine="36" fill="#FFFFFF" height="94.8281" id="paint_scheme_part" rx="2.5" ry="2.5" style="stroke:#2E8B57;stroke-width:1.5;" width="137.3333" x="294" y="422"/><text fill="#000000" font-family="sans-serif" font-size="12" font-weight="bold" lengthAdjust="spacingAndGlyphs" textLength="126" x="299.6667" y="438.1387">PaintSchemePart</text><text fill="#808080" font-family="sans-serif" font-size="10" lengthAdjust="spacingAndGlyphs" textLength="111" x="307.1667" y="450.251">(paint_scheme_part)</text><line style="stroke:#2E8B57;stroke-width:1.5;" x1="295" x2="430.3333" y1="457.6094" y2="457.6094"/><path d="M306.0417,464.3307 C304.7767,464.3307 303.75,465.3574 303.75,466.6224 C303.75,466.7691 303.75,466.9157 303.7775,467.0532 L301,469.8307 L301,471.6641 L303.75,471.6641 L303.75,469.8307 L305.5833,469.8307 L305.5833,468.9141 L305.6108,468.8866 C305.7483,468.9141 305.895,468.9141 306.0417,468.9141 C307.3067,468.9141 308.3333,467.8874 308.3333,466.6224 C308.3333,465.3574 307.3067,464.3307 306.0417,464.3307 M306.5,465.2474 C307.0042,465.2474 307.4167,465.6599 307.4167,466.1641 C307.4167,466.6682 307.0042,467.0807 306.5,467.0807 C305.9958,467.0807 305.5833,466.6682 305.5833,466.1641 C305.5833,465.6599 305.9958,465.2474 306.5,465.2474 " fill="#B8860B" style="stroke:;stroke-width:0.0;stroke-dasharray:;"/><text fill="#000000" font-family="sans-serif" font-size="11" font-weight="bold" lengthAdjust="spacingAndGlyphs" textLength="12" x="313.3333" y="471.8198">id</text><text fill="#000000" font-family="sans-serif" font-size="11" lengthAdjust="spacingAndGlyphs" textLength="25" x="325.3333" y="471.8198">: INT</text><path d="M303.75,477.1354 C302.2283,477.1354 301,478.3638 301,479.8854 C301,481.4071 302.2283,482.6354 303.75,482.6354 C305.2717,482.6354 306.5,481.4071 306.5,479.8854 C306.5,478.3638 305.2717,477.1354 303.75,477.1354 " fill="#EFEFEF" style="stroke:;stroke-width:0.0;stroke-dasharray:;"/><text fill="#000000" font-family="sans-serif" font-size="11" lengthAdjust="spacingAndGlyphs" textLength="55" x="313.3333" y="484.6245">order: INT</text><path d="M306.0417,489.9401 C304.7767,489.9401 303.75,490.9668 303.75,492.2318 C303.75,492.3784 303.75,492.5251 303.7775,492.6626 L301,495.4401 L301,497.2734 L303.75,497.2734 L303.75,495.4401 L305.5833,495.4401 L305.5833,494.5234 L305.6108,494.4959 C305.7483,494.5234 305.895,494.5234 306.0417,494.5234 C307.3067,494.5234 308.3333,493.4968 308.3333,492.2318 C308.3333,490.9668 307.3067,489.9401 306.0417,489.9401 M306.5,490.8568 C307.0042,490.8568 307.4167,491.2693 307.4167,491.7734 C307.4167,492.2776 307.0042,492.6901 306.5,492.6901 C305.9958,492.6901 305.5833,492.2776 305.5833,491.7734 C305.5833,491.2693 305.9958,490.8568 306.5,490.8568 " fill="#AAAAAA" style="stroke:;stroke-width:0.0;stroke-dasharray:;"/><text fill="#000000" font-family="sans-serif" font-size="11" lengthAdjust="spacingAndGlyphs" textLength="94" x="313.3333" y="497.4292">paintId: INT «FK»</text><path d="M306.0417,502.7448 C304.7767,502.7448 303.75,503.7715 303.75,505.0365 C303.75,505.1831 303.75,505.3298 303.7775,505.4673 L301,508.2448 L301,510.0781 L303.75,510.0781 L303.75,508.2448 L305.5833,508.2448 L305.5833,507.3281 L305.6108,507.3006 C305.7483,507.3281 305.895,507.3281 306.0417,507.3281 C307.3067,507.3281 308.3333,506.3015 308.3333,505.0365 C308.3333,503.7715 307.3067,502.7448 306.0417,502.7448 M306.5,503.6615 C307.0042,503.6615 307.4167,504.074 307.4167,504.5781 C307.4167,505.0823 307.0042,505.4948 306.5,505.4948 C305.9958,505.4948 305.5833,505.0823 305.5833,504.5781 C305.5833,504.074 305.9958,503.6615 306.5,503.6615 " fill="#AAAAAA" style="stroke:;stroke-width:0.0;stroke-dasharray:;"/><text fill="#000000" font-family="sans-serif" font-size="11" lengthAdjust="spacingAndGlyphs" textLength="112" x="313.3333" y="510.2339">schemeId: INT «FK»</text><!--MD5=[0f0cab106bdcd190832f93d0c60e05dc]
class paint_scheme--><rect codeLine="43" fill="#FFFFFF" height="69.2188" id="paint_scheme" rx="2.5" ry="2.5" style="stroke:#2E8B57;stroke-width:1.5;" width="149.3333" x="592.5" y="347"/><text fill="#000000" font-family="sans-serif" font-size="12" font-weight="bold" lengthAdjust="spacingAndGlyphs" textLength="94" x="620.1667" y="363.1387">PaintScheme</text><text fill="#808080" font-family="sans-serif" font-size="10" lengthAdjust="spacingAndGlyphs" textLength="84" x="625.1667" y="375.251">(paint_scheme)</text><line style="stroke:#2E8B57;stroke-width:1.5;" x1="593.5" x2="740.8333" y1="382.6094" y2="382.6094"/><path d="M604.5417,389.3307 C603.2767,389.3307 602.25,390.3574 602.25,391.6224 C602.25,391.7691 602.25,391.9157 602.2775,392.0532 L599.5,394.8307 L599.5,396.6641 L602.25,396.6641 L602.25,394.8307 L604.0833,394.8307 L604.0833,393.9141 L604.1108,393.8866 C604.2483,393.9141 604.395,393.9141 604.5417,393.9141 C605.8067,393.9141 606.8333,392.8874 606.8333,391.6224 C606.8333,390.3574 605.8067,389.3307 604.5417,389.3307 M605,390.2474 C605.5042,390.2474 605.9167,390.6599 605.9167,391.1641 C605.9167,391.6682 605.5042,392.0807 605,392.0807 C604.4958,392.0807 604.0833,391.6682 604.0833,391.1641 C604.0833,390.6599 604.4958,390.2474 605,390.2474 " fill="#B8860B" style="stroke:;stroke-width:0.0;stroke-dasharray:;"/><text fill="#000000" font-family="sans-serif" font-size="11" font-weight="bold" lengthAdjust="spacingAndGlyphs" textLength="12" x="611.8333" y="396.8198">id</text><text fill="#000000" font-family="sans-serif" font-size="11" lengthAdjust="spacingAndGlyphs" textLength="25" x="623.8333" y="396.8198">: INT</text><path d="M602.25,402.1354 C600.7283,402.1354 599.5,403.3638 599.5,404.8854 C599.5,406.4071 600.7283,407.6354 602.25,407.6354 C603.7717,407.6354 605,406.4071 605,404.8854 C605,403.3638 603.7717,402.1354 602.25,402.1354 " fill="#EFEFEF" style="stroke:;stroke-width:0.0;stroke-dasharray:;"/><text fill="#000000" font-family="sans-serif" font-size="11" lengthAdjust="spacingAndGlyphs" textLength="124" x="611.8333" y="409.6245">name: NVARCHAR(64)</text><!--MD5=[1bdd030ce00e7fcfd6d7a6b03042af90]
class wargear--><rect codeLine="48" fill="#FFFFFF" height="94.8281" id="wargear" rx="2.5" ry="2.5" style="stroke:#2E8B57;stroke-width:1.5;" width="149.3333" x="288" y="44"/><text fill="#000000" font-family="sans-serif" font-size="12" font-weight="bold" lengthAdjust="spacingAndGlyphs" textLength="63" x="331.1667" y="60.1387">Wargear</text><text fill="#808080" font-family="sans-serif" font-size="10" lengthAdjust="spacingAndGlyphs" textLength="52" x="336.6667" y="72.251">(wargear)</text><line style="stroke:#2E8B57;stroke-width:1.5;" x1="289" x2="436.3333" y1="79.6094" y2="79.6094"/><path d="M300.0417,86.3307 C298.7767,86.3307 297.75,87.3574 297.75,88.6224 C297.75,88.7691 297.75,88.9157 297.7775,89.0532 L295,91.8307 L295,93.6641 L297.75,93.6641 L297.75,91.8307 L299.5833,91.8307 L299.5833,90.9141 L299.6108,90.8866 C299.7483,90.9141 299.895,90.9141 300.0417,90.9141 C301.3067,90.9141 302.3333,89.8874 302.3333,88.6224 C302.3333,87.3574 301.3067,86.3307 300.0417,86.3307 M300.5,87.2474 C301.0042,87.2474 301.4167,87.6599 301.4167,88.1641 C301.4167,88.6682 301.0042,89.0807 300.5,89.0807 C299.9958,89.0807 299.5833,88.6682 299.5833,88.1641 C299.5833,87.6599 299.9958,87.2474 300.5,87.2474 " fill="#B8860B" style="stroke:;stroke-width:0.0;stroke-dasharray:;"/><text fill="#000000" font-family="sans-serif" font-size="11" font-weight="bold" lengthAdjust="spacingAndGlyphs" textLength="12" x="307.3333" y="93.8198">id</text><text fill="#000000" font-family="sans-serif" font-size="11" lengthAdjust="spacingAndGlyphs" textLength="25" x="319.3333" y="93.8198">: INT</text><path d="M297.75,99.1354 C296.2283,99.1354 295,100.3638 295,101.8854 C295,103.4071 296.2283,104.6354 297.75,104.6354 C299.2717,104.6354 300.5,103.4071 300.5,101.8854 C300.5,100.3638 299.2717,99.1354 297.75,99.1354 " fill="#EFEFEF" style="stroke:;stroke-width:0.0;stroke-dasharray:;"/><text fill="#000000" font-family="sans-serif" font-size="11" lengthAdjust="spacingAndGlyphs" textLength="124" x="307.3333" y="106.6245">name: NVARCHAR(64)</text><path d="M297.75,111.9401 C296.2283,111.9401 295,113.1684 295,114.6901 C295,116.2118 296.2283,117.4401 297.75,117.4401 C299.2717,117.4401 300.5,116.2118 300.5,114.6901 C300.5,113.1684 299.2717,111.9401 297.75,111.9401 " fill="#EFEFEF" style="stroke:;stroke-width:0.0;stroke-dasharray:;"/><text fill="#000000" font-family="sans-serif" font-size="11" lengthAdjust="spacingAndGlyphs" textLength="117" x="307.3333" y="119.4292">type: NVARCHAR(32)</text><path d="M297.75,124.7448 C296.2283,124.7448 295,125.9731 295,127.4948 C295,129.0165 296.2283,130.2448 297.75,130.2448 C299.2717,130.2448 300.5,129.0165 300.5,127.4948 C300.5,125.9731 299.2717,124.7448 297.75,124.7448 " fill="#EFEFEF" style="stroke:;stroke-width:0.0;stroke-dasharray:;"/><text fill="#000000" font-family="sans-serif" font-size="11" lengthAdjust="spacingAndGlyphs" textLength="86" x="307.3333" y="132.2339">pointValue: INT</text><!--MD5=[71453aad0c321cc4e5ffc62c5a278467]
class unit--><rect codeLine="55" fill="#FFFFFF" height="133.2422" id="unit" rx="2.5" ry="2.5" style="stroke:#2E8B57;stroke-width:1.5;" width="210.3333" x="562" y="35"/><text fill="#000000" font-family="sans-serif" font-size="12" font-weight="bold" lengthAdjust="spacingAndGlyphs" textLength="29" x="652.6667" y="51.1387">Unit</text><text fill="#808080" font-family="sans-serif" font-size="10" lengthAdjust="spacingAndGlyphs" textLength="29" x="652.6667" y="63.251">(unit)</text><line style="stroke:#2E8B57;stroke-width:1.5;" x1="563" x2="771.3333" y1="70.6094" y2="70.6094"/><path d="M574.0417,77.3307 C572.7767,77.3307 571.75,78.3574 571.75,79.6224 C571.75,79.7691 571.75,79.9157 571.7775,80.0532 L569,82.8307 L569,84.6641 L571.75,84.6641 L571.75,82.8307 L573.5833,82.8307 L573.5833,81.9141 L573.6108,81.8866 C573.7483,81.9141 573.895,81.9141 574.0417,81.9141 C575.3067,81.9141 576.3333,80.8874 576.3333,79.6224 C576.3333,78.3574 575.3067,77.3307 574.0417,77.3307 M574.5,78.2474 C575.0042,78.2474 575.4167,78.6599 575.4167,79.1641 C575.4167,79.6682 575.0042,80.0807 574.5,80.0807 C573.9958,80.0807 573.5833,79.6682 573.5833,79.1641 C573.5833,78.6599 573.9958,78.2474 574.5,78.2474 " fill="#B8860B" style="stroke:;stroke-width:0.0;stroke-dasharray:;"/><text fill="#000000" font-family="sans-serif" font-size="11" font-weight="bold" lengthAdjust="spacingAndGlyphs" textLength="12" x="581.3333" y="84.8198">id</text><text fill="#000000" font-family="sans-serif" font-size="11" lengthAdjust="spacingAndGlyphs" textLength="25" x="593.3333" y="84.8198">: INT</text><path d="M571.75,90.1354 C570.2283,90.1354 569,91.3638 569,92.8854 C569,94.4071 570.2283,95.6354 571.75,95.6354 C573.2717,95.6354 574.5,94.4071 574.5,92.8854 C574.5,91.3638 573.2717,90.1354 571.75,90.1354 " fill="#EFEFEF" style="stroke:;stroke-width:0.0;stroke-dasharray:;"/><text fill="#000000" font-family="sans-serif" font-size="11" lengthAdjust="spacingAndGlyphs" textLength="124" x="581.3333" y="97.6245">name: NVARCHAR(64)</text><path d="M571.75,102.9401 C570.2283,102.9401 569,104.1684 569,105.6901 C569,107.2118 570.2283,108.4401 571.75,108.4401 C573.2717,108.4401 574.5,107.2118 574.5,105.6901 C574.5,104.1684 573.2717,102.9401 571.75,102.9401 " fill="#EFEFEF" style="stroke:;stroke-width:0.0;stroke-dasharray:;"/><text fill="#000000" font-family="sans-serif" font-size="11" lengthAdjust="spacingAndGlyphs" textLength="126" x="581.3333" y="110.4292">minModelsPerUnit: INT</text><path d="M571.75,115.7448 C570.2283,115.7448 569,116.9731 569,118.4948 C569,120.0165 570.2283,121.2448 571.75,121.2448 C573.2717,121.2448 574.5,120.0165 574.5,118.4948 C574.5,116.9731 573.2717,115.7448 571.75,115.7448 " fill="#EFEFEF" style="stroke:;stroke-width:0.0;stroke-dasharray:;"/><text fill="#000000" font-family="sans-serif" font-size="11" lengthAdjust="spacingAndGlyphs" textLength="130" x="581.3333" y="123.2339">maxModelsPerUnit: INT</text><path d="M571.75,128.5495 C570.2283,128.5495 569,129.7778 569,131.2995 C569,132.8211 570.2283,134.0495 571.75,134.0495 C573.2717,134.0495 574.5,132.8211 574.5,131.2995 C574.5,129.7778 573.2717,128.5495 571.75,128.5495 " fill="#EFEFEF" style="stroke:;stroke-width:0.0;stroke-dasharray:;"/><text fill="#000000" font-family="sans-serif" font-size="11" lengthAdjust="spacingAndGlyphs" textLength="111" x="581.3333" y="136.0386">pointsPerModel: INT</text><path d="M571.75,141.3542 C570.2283,141.3542 569,142.5825 569,144.1042 C569,145.6258 570.2283,146.8542 571.75,146.8542 C573.2717,146.8542 574.5,145.6258 574.5,144.1042 C574.5,142.5825 573.2717,141.3542 571.75,141.3542 " fill="#EFEFEF" style="stroke:;stroke-width:0.0;stroke-dasharray:;"/><text fill="#000000" font-family="sans-serif" font-size="11" lengthAdjust="spacingAndGlyphs" textLength="117" x="581.3333" y="148.8433">type: NVARCHAR(32)</text><path d="M574.0417,154.1589 C572.7767,154.1589 571.75,155.1855 571.75,156.4505 C571.75,156.5972 571.75,156.7439 571.7775,156.8814 L569,159.6589 L569,161.4922 L571.75,161.4922 L571.75,159.6589 L573.5833,159.6589 L573.5833,158.7422 L573.6108,158.7147 C573.7483,158.7422 573.895,158.7422 574.0417,158.7422 C575.3067,158.7422 576.3333,157.7155 576.3333,156.4505 C576.3333,155.1855 575.3067,154.1589 574.0417,154.1589 M574.5,155.0755 C575.0042,155.0755 575.4167,155.488 575.4167,155.9922 C575.4167,156.4964 575.0042,156.9089 574.5,156.9089 C573.9958,156.9089 573.5833,156.4964 573.5833,155.9922 C573.5833,155.488 573.9958,155.0755 574.5,155.0755 " fill="#AAAAAA" style="stroke:;stroke-width:0.0;stroke-dasharray:;"/><text fill="#000000" font-family="sans-serif" font-size="11" lengthAdjust="spacingAndGlyphs" textLength="185" x="581.3333" y="161.6479">forceName: NVARCHAR(32) «FK»</text><!--MD5=[34a1784414a501411742ee5e744abcee]
class force--><rect codeLine="65" fill="#FFFFFF" height="56.4141" id="force" rx="2.5" ry="2.5" style="stroke:#2E8B57;stroke-width:1.5;" width="152.3333" x="867.5" y="151.5"/><text fill="#000000" font-family="sans-serif" font-size="12" font-weight="bold" lengthAdjust="spacingAndGlyphs" textLength="41" x="923.1667" y="167.6387">Force</text><text fill="#808080" font-family="sans-serif" font-size="10" lengthAdjust="spacingAndGlyphs" textLength="36" x="925.6667" y="179.751">(force)</text><line style="stroke:#2E8B57;stroke-width:1.5;" x1="868.5" x2="1018.8333" y1="187.1094" y2="187.1094"/><path d="M879.5417,193.8307 C878.2767,193.8307 877.25,194.8574 877.25,196.1224 C877.25,196.2691 877.25,196.4157 877.2775,196.5532 L874.5,199.3307 L874.5,201.1641 L877.25,201.1641 L877.25,199.3307 L879.0833,199.3307 L879.0833,198.4141 L879.1108,198.3866 C879.2483,198.4141 879.395,198.4141 879.5417,198.4141 C880.8067,198.4141 881.8333,197.3874 881.8333,196.1224 C881.8333,194.8574 880.8067,193.8307 879.5417,193.8307 M880,194.7474 C880.5042,194.7474 880.9167,195.1599 880.9167,195.6641 C880.9167,196.1682 880.5042,196.5807 880,196.5807 C879.4958,196.5807 879.0833,196.1682 879.0833,195.6641 C879.0833,195.1599 879.4958,194.7474 880,194.7474 " fill="#B8860B" style="stroke:;stroke-width:0.0;stroke-dasharray:;"/><text fill="#000000" font-family="sans-serif" font-size="11" font-weight="bold" lengthAdjust="spacingAndGlyphs" textLength="36" x="886.8333" y="201.3198">name</text><text fill="#000000" font-family="sans-serif" font-size="11" lengthAdjust="spacingAndGlyphs" textLength="91" x="922.8333" y="201.3198">: NVARCHAR(32)</text><!--MD5=[b589f15cc2a6267756d4398fa606a64d]
class wargear_variant--><rect codeLine="69" fill="#FFFFFF" height="94.8281" id="wargear_variant" rx="2.5" ry="2.5" style="stroke:#2E8B57;stroke-width:1.5;" width="143.3333" x="20" y="121"/><text fill="#000000" font-family="sans-serif" font-size="12" font-weight="bold" lengthAdjust="spacingAndGlyphs" textLength="117" x="33.1667" y="137.1387">WargearVariant</text><text fill="#808080" font-family="sans-serif" font-size="10" lengthAdjust="spacingAndGlyphs" textLength="95" x="44.1667" y="149.251">(wargear_variant)</text><line style="stroke:#2E8B57;stroke-width:1.5;" x1="21" x2="162.3333" y1="156.6094" y2="156.6094"/><path d="M32.0417,163.3307 C30.7767,163.3307 29.75,164.3574 29.75,165.6224 C29.75,165.7691 29.75,165.9157 29.7775,166.0532 L27,168.8307 L27,170.6641 L29.75,170.6641 L29.75,168.8307 L31.5833,168.8307 L31.5833,167.9141 L31.6108,167.8866 C31.7483,167.9141 31.895,167.9141 32.0417,167.9141 C33.3067,167.9141 34.3333,166.8874 34.3333,165.6224 C34.3333,164.3574 33.3067,163.3307 32.0417,163.3307 M32.5,164.2474 C33.0042,164.2474 33.4167,164.6599 33.4167,165.1641 C33.4167,165.6682 33.0042,166.0807 32.5,166.0807 C31.9958,166.0807 31.5833,165.6682 31.5833,165.1641 C31.5833,164.6599 31.9958,164.2474 32.5,164.2474 " fill="#B8860B" style="stroke:;stroke-width:0.0;stroke-dasharray:;"/><text fill="#000000" font-family="sans-serif" font-size="11" font-weight="bold" lengthAdjust="spacingAndGlyphs" textLength="12" x="39.3333" y="170.8198">id</text><text fill="#000000" font-family="sans-serif" font-size="11" lengthAdjust="spacingAndGlyphs" textLength="25" x="51.3333" y="170.8198">: INT</text><path d="M29.75,176.1354 C28.2283,176.1354 27,177.3638 27,178.8854 C27,180.4071 28.2283,181.6354 29.75,181.6354 C31.2717,181.6354 32.5,180.4071 32.5,178.8854 C32.5,177.3638 31.2717,176.1354 29.75,176.1354 " fill="#EFEFEF" style="stroke:;stroke-width:0.0;stroke-dasharray:;"/><text fill="#000000" font-family="sans-serif" font-size="11" lengthAdjust="spacingAndGlyphs" textLength="56" x="39.3333" y="183.6245">count: INT</text><path d="M32.0417,188.9401 C30.7767,188.9401 29.75,189.9668 29.75,191.2318 C29.75,191.3784 29.75,191.5251 29.7775,191.6626 L27,194.4401 L27,196.2734 L29.75,196.2734 L29.75,194.4401 L31.5833,194.4401 L31.5833,193.5234 L31.6108,193.4959 C31.7483,193.5234 31.895,193.5234 32.0417,193.5234 C33.3067,193.5234 34.3333,192.4968 34.3333,191.2318 C34.3333,189.9668 33.3067,188.9401 32.0417,188.9401 M32.5,189.8568 C33.0042,189.8568 33.4167,190.2693 33.4167,190.7734 C33.4167,191.2776 33.0042,191.6901 32.5,191.6901 C31.9958,191.6901 31.5833,191.2776 31.5833,190.7734 C31.5833,190.2693 31.9958,189.8568 32.5,189.8568 " fill="#AAAAAA" style="stroke:;stroke-width:0.0;stroke-dasharray:;"/><text fill="#000000" font-family="sans-serif" font-size="11" lengthAdjust="spacingAndGlyphs" textLength="118" x="39.3333" y="196.4292">wargear_id: INT «FK»</text><path d="M32.0417,201.7448 C30.7767,201.7448 29.75,202.7715 29.75,204.0365 C29.75,204.1831 29.75,204.3298 29.7775,204.4673 L27,207.2448 L27,209.0781 L29.75,209.0781 L29.75,207.2448 L31.5833,207.2448 L31.5833,206.3281 L31.6108,206.3006 C31.7483,206.3281 31.895,206.3281 32.0417,206.3281 C33.3067,206.3281 34.3333,205.3015 34.3333,204.0365 C34.3333,202.7715 33.3067,201.7448 32.0417,201.7448 M32.5,202.6615 C33.0042,202.6615 33.4167,203.074 33.4167,203.5781 C33.4167,204.0823 33.0042,204.4948 32.5,204.4948 C31.9958,204.4948 31.5833,204.0823 31.5833,203.5781 C31.5833,203.074 31.9958,202.6615 32.5,202.6615 " fill="#AAAAAA" style="stroke:;stroke-width:0.0;stroke-dasharray:;"/><text fill="#000000" font-family="sans-serif" font-size="11" lengthAdjust="spacingAndGlyphs" textLength="87" x="39.3333" y="209.2339">unitId: INT «FK»</text><!--MD5=[d551081fe25060f62912fcaa27a6972d]
class unit_variant--><rect codeLine="76" fill="#FFFFFF" height="107.6328" id="unit_variant" rx="2.5" ry="2.5" style="stroke:#2E8B57;stroke-width:1.5;" width="147.3333" x="289" y="174.5"/><text fill="#000000" font-family="sans-serif" font-size="12" font-weight="bold" lengthAdjust="spacingAndGlyphs" textLength="83" x="321.1667" y="190.6387">UnitVariant</text><text fill="#808080" font-family="sans-serif" font-size="10" lengthAdjust="spacingAndGlyphs" textLength="72" x="326.6667" y="202.751">(unit_variant)</text><line style="stroke:#2E8B57;stroke-width:1.5;" x1="290" x2="435.3333" y1="210.1094" y2="210.1094"/><path d="M301.0417,216.8307 C299.7767,216.8307 298.75,217.8574 298.75,219.1224 C298.75,219.2691 298.75,219.4157 298.7775,219.5532 L296,222.3307 L296,224.1641 L298.75,224.1641 L298.75,222.3307 L300.5833,222.3307 L300.5833,221.4141 L300.6108,221.3866 C300.7483,221.4141 300.895,221.4141 301.0417,221.4141 C302.3067,221.4141 303.3333,220.3874 303.3333,219.1224 C303.3333,217.8574 302.3067,216.8307 301.0417,216.8307 M301.5,217.7474 C302.0042,217.7474 302.4167,218.1599 302.4167,218.6641 C302.4167,219.1682 302.0042,219.5807 301.5,219.5807 C300.9958,219.5807 300.5833,219.1682 300.5833,218.6641 C300.5833,218.1599 300.9958,217.7474 301.5,217.7474 " fill="#B8860B" style="stroke:;stroke-width:0.0;stroke-dasharray:;"/><text fill="#000000" font-family="sans-serif" font-size="11" font-weight="bold" lengthAdjust="spacingAndGlyphs" textLength="12" x="308.3333" y="224.3198">id</text><text fill="#000000" font-family="sans-serif" font-size="11" lengthAdjust="spacingAndGlyphs" textLength="25" x="320.3333" y="224.3198">: INT</text><path d="M298.75,229.6354 C297.2283,229.6354 296,230.8638 296,232.3854 C296,233.9071 297.2283,235.1354 298.75,235.1354 C300.2717,235.1354 301.5,233.9071 301.5,232.3854 C301.5,230.8638 300.2717,229.6354 298.75,229.6354 " fill="#EFEFEF" style="stroke:;stroke-width:0.0;stroke-dasharray:;"/><text fill="#000000" font-family="sans-serif" font-size="11" lengthAdjust="spacingAndGlyphs" textLength="122" x="308.3333" y="237.1245">numberOfModels: INT</text><path d="M298.75,242.4401 C297.2283,242.4401 296,243.6684 296,245.1901 C296,246.7118 297.2283,247.9401 298.75,247.9401 C300.2717,247.9401 301.5,246.7118 301.5,245.1901 C301.5,243.6684 300.2717,242.4401 298.75,242.4401 " fill="#EFEFEF" style="stroke:;stroke-width:0.0;stroke-dasharray:;"/><text fill="#000000" font-family="sans-serif" font-size="11" lengthAdjust="spacingAndGlyphs" textLength="86" x="308.3333" y="249.9292">pointValue: INT</text><path d="M301.0417,255.2448 C299.7767,255.2448 298.75,256.2715 298.75,257.5365 C298.75,257.6831 298.75,257.8298 298.7775,257.9673 L296,260.7448 L296,262.5781 L298.75,262.5781 L298.75,260.7448 L300.5833,260.7448 L300.5833,259.8281 L300.6108,259.8006 C300.7483,259.8281 300.895,259.8281 301.0417,259.8281 C302.3067,259.8281 303.3333,258.8015 303.3333,257.5365 C303.3333,256.2715 302.3067,255.2448 301.0417,255.2448 M301.5,256.1615 C302.0042,256.1615 302.4167,256.574 302.4167,257.0781 C302.4167,257.5823 302.0042,257.9948 301.5,257.9948 C300.9958,257.9948 300.5833,257.5823 300.5833,257.0781 C300.5833,256.574 300.9958,256.1615 301.5,256.1615 " fill="#AAAAAA" style="stroke:;stroke-width:0.0;stroke-dasharray:;"/><text fill="#000000" font-family="sans-serif" font-size="11" lengthAdjust="spacingAndGlyphs" textLength="95" x="308.3333" y="262.7339">armyId: INT «FK»</text><path d="M301.0417,268.0495 C299.7767,268.0495 298.75,269.0761 298.75,270.3411 C298.75,270.4878 298.75,270.6345 298.7775,270.772 L296,273.5495 L296,275.3828 L298.75,275.3828 L298.75,273.5495 L300.5833,273.5495 L300.5833,272.6328 L300.6108,272.6053 C300.7483,272.6328 300.895,272.6328 301.0417,272.6328 C302.3067,272.6328 303.3333,271.6061 303.3333,270.3411 C303.3333,269.0761 302.3067,268.0495 301.0417,268.0495 M301.5,268.9661 C302.0042,268.9661 302.4167,269.3786 302.4167,269.8828 C302.4167,270.387 302.0042,270.7995 301.5,270.7995 C300.9958,270.7995 300.5833,270.387 300.5833,269.8828 C300.5833,269.3786 300.9958,268.9661 301.5,268.9661 " fill="#AAAAAA" style="stroke:;stroke-width:0.0;stroke-dasharray:;"/><text fill="#000000" font-family="sans-serif" font-size="11" lengthAdjust="spacingAndGlyphs" textLength="93" x="308.3333" y="275.5386">unit_id: INT «FK»</text><!--MD5=[3beafc90d2a94ceedc69a5076aae0a28]
class army--><rect codeLine="84" fill="#FFFFFF" height="107.6328" id="army" rx="2.5" ry="2.5" style="stroke:#2E8B57;stroke-width:1.5;" width="231.3333" x="551.5" y="203.5"/><text fill="#000000" font-family="sans-serif" font-size="12" font-weight="bold" lengthAdjust="spacingAndGlyphs" textLength="36" x="649.1667" y="219.6387">Army</text><text fill="#808080" font-family="sans-serif" font-size="10" lengthAdjust="spacingAndGlyphs" textLength="36" x="649.1667" y="231.751">(army)</text><line style="stroke:#2E8B57;stroke-width:1.5;" x1="552.5" x2="781.8333" y1="239.1094" y2="239.1094"/><path d="M563.5417,245.8307 C562.2767,245.8307 561.25,246.8574 561.25,248.1224 C561.25,248.2691 561.25,248.4157 561.2775,248.5532 L558.5,251.3307 L558.5,253.1641 L561.25,253.1641 L561.25,251.3307 L563.0833,251.3307 L563.0833,250.4141 L563.1108,250.3866 C563.2483,250.4141 563.395,250.4141 563.5417,250.4141 C564.8067,250.4141 565.8333,249.3874 565.8333,248.1224 C565.8333,246.8574 564.8067,245.8307 563.5417,245.8307 M564,246.7474 C564.5042,246.7474 564.9167,247.1599 564.9167,247.6641 C564.9167,248.1682 564.5042,248.5807 564,248.5807 C563.4958,248.5807 563.0833,248.1682 563.0833,247.6641 C563.0833,247.1599 563.4958,246.7474 564,246.7474 " fill="#B8860B" style="stroke:;stroke-width:0.0;stroke-dasharray:;"/><text fill="#000000" font-family="sans-serif" font-size="11" font-weight="bold" lengthAdjust="spacingAndGlyphs" textLength="12" x="570.8333" y="253.3198">id</text><text fill="#000000" font-family="sans-serif" font-size="11" lengthAdjust="spacingAndGlyphs" textLength="25" x="582.8333" y="253.3198">: INT</text><path d="M561.25,258.6354 C559.7283,258.6354 558.5,259.8638 558.5,261.3854 C558.5,262.9071 559.7283,264.1354 561.25,264.1354 C562.7717,264.1354 564,262.9071 564,261.3854 C564,259.8638 562.7717,258.6354 561.25,258.6354 " fill="#EFEFEF" style="stroke:;stroke-width:0.0;stroke-dasharray:;"/><text fill="#000000" font-family="sans-serif" font-size="11" lengthAdjust="spacingAndGlyphs" textLength="131" x="570.8333" y="266.1245">name: NVARCHAR(256)</text><path d="M561.25,271.4401 C559.7283,271.4401 558.5,272.6684 558.5,274.1901 C558.5,275.7118 559.7283,276.9401 561.25,276.9401 C562.7717,276.9401 564,275.7118 564,274.1901 C564,272.6684 562.7717,271.4401 561.25,271.4401 " fill="#EFEFEF" style="stroke:;stroke-width:0.0;stroke-dasharray:;"/><text fill="#000000" font-family="sans-serif" font-size="11" lengthAdjust="spacingAndGlyphs" textLength="86" x="570.8333" y="278.9292">pointValue: INT</text><path d="M563.5417,284.2448 C562.2767,284.2448 561.25,285.2715 561.25,286.5365 C561.25,286.6831 561.25,286.8298 561.2775,286.9673 L558.5,289.7448 L558.5,291.5781 L561.25,291.5781 L561.25,289.7448 L563.0833,289.7448 L563.0833,288.8281 L563.1108,288.8006 C563.2483,288.8281 563.395,288.8281 563.5417,288.8281 C564.8067,288.8281 565.8333,287.8015 565.8333,286.5365 C565.8333,285.2715 564.8067,284.2448 563.5417,284.2448 M564,285.1615 C564.5042,285.1615 564.9167,285.574 564.9167,286.0781 C564.9167,286.5823 564.5042,286.9948 564,286.9948 C563.4958,286.9948 563.0833,286.5823 563.0833,286.0781 C563.0833,285.574 563.4958,285.1615 564,285.1615 " fill="#AAAAAA" style="stroke:;stroke-width:0.0;stroke-dasharray:;"/><text fill="#000000" font-family="sans-serif" font-size="11" lengthAdjust="spacingAndGlyphs" textLength="206" x="570.8333" y="291.7339">userUsername: NVARCHAR(32) «FK»</text><path d="M563.5417,297.0495 C562.2767,297.0495 561.25,298.0761 561.25,299.3411 C561.25,299.4878 561.25,299.6345 561.2775,299.772 L558.5,302.5495 L558.5,304.3828 L561.25,304.3828 L561.25,302.5495 L563.0833,302.5495 L563.0833,301.6328 L563.1108,301.6053 C563.2483,301.6328 563.395,301.6328 563.5417,301.6328 C564.8067,301.6328 565.8333,300.6061 565.8333,299.3411 C565.8333,298.0761 564.8067,297.0495 563.5417,297.0495 M564,297.9661 C564.5042,297.9661 564.9167,298.3786 564.9167,298.8828 C564.9167,299.387 564.5042,299.7995 564,299.7995 C563.4958,299.7995 563.0833,299.387 563.0833,298.8828 C563.0833,298.3786 563.4958,297.9661 564,297.9661 " fill="#AAAAAA" style="stroke:;stroke-width:0.0;stroke-dasharray:;"/><text fill="#000000" font-family="sans-serif" font-size="11" lengthAdjust="spacingAndGlyphs" textLength="185" x="570.8333" y="304.5386">forceName: NVARCHAR(32) «FK»</text><!--MD5=[08c8db3cd1de498b9a16d89735c08598]
class auth_token--><rect codeLine="92" fill="#FFFFFF" height="82.0234" id="auth_token" rx="2.5" ry="2.5" style="stroke:#2E8B57;stroke-width:1.5;" width="236.3333" x="549" y="639.5"/><text fill="#000000" font-family="sans-serif" font-size="12" font-weight="bold" lengthAdjust="spacingAndGlyphs" textLength="79" x="627.6667" y="655.6387">AuthToken</text><text fill="#808080" font-family="sans-serif" font-size="10" lengthAdjust="spacingAndGlyphs" textLength="69" x="632.6667" y="667.751">(auth_token)</text><line style="stroke:#2E8B57;stroke-width:1.5;" x1="550" x2="784.3333" y1="675.1094" y2="675.1094"/><path d="M561.0417,681.8307 C559.7767,681.8307 558.75,682.8574 558.75,684.1224 C558.75,684.2691 558.75,684.4157 558.7775,684.5532 L556,687.3307 L556,689.1641 L558.75,689.1641 L558.75,687.3307 L560.5833,687.3307 L560.5833,686.4141 L560.6108,686.3866 C560.7483,686.4141 560.895,686.4141 561.0417,686.4141 C562.3067,686.4141 563.3333,685.3874 563.3333,684.1224 C563.3333,682.8574 562.3067,681.8307 561.0417,681.8307 M561.5,682.7474 C562.0042,682.7474 562.4167,683.1599 562.4167,683.6641 C562.4167,684.1682 562.0042,684.5807 561.5,684.5807 C560.9958,684.5807 560.5833,684.1682 560.5833,683.6641 C560.5833,683.1599 560.9958,682.7474 561.5,682.7474 " fill="#B8860B" style="stroke:;stroke-width:0.0;stroke-dasharray:;"/><text fill="#000000" font-family="sans-serif" font-size="11" font-weight="bold" lengthAdjust="spacingAndGlyphs" textLength="39" x="568.3333" y="689.3198">token</text><text fill="#000000" font-family="sans-serif" font-size="11" lengthAdjust="spacingAndGlyphs" textLength="91" x="607.3333" y="689.3198">: NVARCHAR(60)</text><path d="M558.75,694.6354 C557.2283,694.6354 556,695.8638 556,697.3854 C556,698.9071 557.2283,700.1354 558.75,700.1354 C560.2717,700.1354 561.5,698.9071 561.5,697.3854 C561.5,695.8638 560.2717,694.6354 558.75,694.6354 " fill="#EFEFEF" style="stroke:;stroke-width:0.0;stroke-dasharray:;"/><text fill="#000000" font-family="sans-serif" font-size="11" lengthAdjust="spacingAndGlyphs" textLength="72" x="568.3333" y="702.1245">revoked: BIT</text><path d="M561.0417,707.4401 C559.7767,707.4401 558.75,708.4668 558.75,709.7318 C558.75,709.8784 558.75,710.0251 558.7775,710.1626 L556,712.9401 L556,714.7734 L558.75,714.7734 L558.75,712.9401 L560.5833,712.9401 L560.5833,712.0234 L560.6108,711.9959 C560.7483,712.0234 560.895,712.0234 561.0417,712.0234 C562.3067,712.0234 563.3333,710.9968 563.3333,709.7318 C563.3333,708.4668 562.3067,707.4401 561.0417,707.4401 M561.5,708.3568 C562.0042,708.3568 562.4167,708.7693 562.4167,709.2734 C562.4167,709.7776 562.0042,710.1901 561.5,710.1901 C560.9958,710.1901 560.5833,709.7776 560.5833,709.2734 C560.5833,708.7693 560.9958,708.3568 561.5,708.3568 " fill="#AAAAAA" style="stroke:;stroke-width:0.0;stroke-dasharray:;"/><text fill="#000000" font-family="sans-serif" font-size="11" lengthAdjust="spacingAndGlyphs" textLength="211" x="568.3333" y="714.9292">user_username: NVARCHAR(32) «FK»</text><!--MD5=[2c34311f12d02fb59efe99416f56d977]
class user_paints_paint--><rect codeLine="98" fill="#FFFFFF" height="69.2188" id="user_paints_paint" rx="2.5" ry="2.5" style="stroke:#2E8B57;stroke-width:1.5;" width="211.3333" x="257" y="552"/><text fill="#000000" font-family="sans-serif" font-size="12" font-weight="bold" lengthAdjust="spacingAndGlyphs" textLength="129" x="298.1667" y="568.1387">user_paints_paint</text><text fill="#808080" font-family="sans-serif" font-size="10" lengthAdjust="spacingAndGlyphs" textLength="102" x="311.6667" y="580.251">(user_paints_paint)</text><line style="stroke:#2E8B57;stroke-width:1.5;" x1="258" x2="467.3333" y1="587.6094" y2="587.6094"/><path d="M269.0417,594.3307 C267.7767,594.3307 266.75,595.3574 266.75,596.6224 C266.75,596.7691 266.75,596.9157 266.7775,597.0532 L264,599.8307 L264,601.6641 L266.75,601.6641 L266.75,599.8307 L268.5833,599.8307 L268.5833,598.9141 L268.6108,598.8866 C268.7483,598.9141 268.895,598.9141 269.0417,598.9141 C270.3067,598.9141 271.3333,597.8874 271.3333,596.6224 C271.3333,595.3574 270.3067,594.3307 269.0417,594.3307 M269.5,595.2474 C270.0042,595.2474 270.4167,595.6599 270.4167,596.1641 C270.4167,596.6682 270.0042,597.0807 269.5,597.0807 C268.9958,597.0807 268.5833,596.6682 268.5833,596.1641 C268.5833,595.6599 268.9958,595.2474 269.5,595.2474 " fill="#B8860B" style="stroke:;stroke-width:0.0;stroke-dasharray:;"/><text fill="#000000" font-family="sans-serif" font-size="11" font-weight="bold" lengthAdjust="spacingAndGlyphs" textLength="95" x="276.3333" y="601.8198">userUsername</text><text fill="#000000" font-family="sans-serif" font-size="11" lengthAdjust="spacingAndGlyphs" textLength="91" x="371.3333" y="601.8198">: NVARCHAR(32)</text><path d="M269.0417,607.1354 C267.7767,607.1354 266.75,608.1621 266.75,609.4271 C266.75,609.5738 266.75,609.7204 266.7775,609.8579 L264,612.6354 L264,614.4688 L266.75,614.4688 L266.75,612.6354 L268.5833,612.6354 L268.5833,611.7188 L268.6108,611.6913 C268.7483,611.7188 268.895,611.7188 269.0417,611.7188 C270.3067,611.7188 271.3333,610.6921 271.3333,609.4271 C271.3333,608.1621 270.3067,607.1354 269.0417,607.1354 M269.5,608.0521 C270.0042,608.0521 270.4167,608.4646 270.4167,608.9688 C270.4167,609.4729 270.0042,609.8854 269.5,609.8854 C268.9958,609.8854 268.5833,609.4729 268.5833,608.9688 C268.5833,608.4646 268.9958,608.0521 269.5,608.0521 " fill="#B8860B" style="stroke:;stroke-width:0.0;stroke-dasharray:;"/><text fill="#000000" font-family="sans-serif" font-size="11" font-weight="bold" lengthAdjust="spacingAndGlyphs" textLength="47" x="276.3333" y="614.6245">paintId</text><text fill="#000000" font-family="sans-serif" font-size="11" lengthAdjust="spacingAndGlyphs" textLength="25" x="323.3333" y="614.6245">: INT</text><!--MD5=[6e4ef365ea518b024820d9bab03cc449]
class unit_paint_schemes_paint_scheme--><rect codeLine="103" fill="#FFFFFF" height="69.2188" id="unit_paint_schemes_paint_scheme" rx="2.5" ry="2.5" style="stroke:#2E8B57;stroke-width:1.5;" width="253" x="236" y="318"/><text fill="#000000" font-family="sans-serif" font-size="12" font-weight="bold" lengthAdjust="spacingAndGlyphs" textLength="247" x="239" y="334.1387">unit_paint_schemes_paint_scheme</text><text fill="#808080" font-family="sans-serif" font-size="10" lengthAdjust="spacingAndGlyphs" textLength="196" x="264.5" y="346.251">(unit_paint_schemes_paint_scheme)</text><line style="stroke:#2E8B57;stroke-width:1.5;" x1="237" x2="488" y1="353.6094" y2="353.6094"/><path d="M248.0417,360.3307 C246.7767,360.3307 245.75,361.3574 245.75,362.6224 C245.75,362.7691 245.75,362.9157 245.7775,363.0532 L243,365.8307 L243,367.6641 L245.75,367.6641 L245.75,365.8307 L247.5833,365.8307 L247.5833,364.9141 L247.6108,364.8866 C247.7483,364.9141 247.895,364.9141 248.0417,364.9141 C249.3067,364.9141 250.3333,363.8874 250.3333,362.6224 C250.3333,361.3574 249.3067,360.3307 248.0417,360.3307 M248.5,361.2474 C249.0042,361.2474 249.4167,361.6599 249.4167,362.1641 C249.4167,362.6682 249.0042,363.0807 248.5,363.0807 C247.9958,363.0807 247.5833,362.6682 247.5833,362.1641 C247.5833,361.6599 247.9958,361.2474 248.5,361.2474 " fill="#B8860B" style="stroke:;stroke-width:0.0;stroke-dasharray:;"/><text fill="#000000" font-family="sans-serif" font-size="11" font-weight="bold" lengthAdjust="spacingAndGlyphs" textLength="39" x="255.3333" y="367.8198">unitId</text><text fill="#000000" font-family="sans-serif" font-size="11" lengthAdjust="spacingAndGlyphs" textLength="25" x="294.3333" y="367.8198">: INT</text><path d="M248.0417,373.1354 C246.7767,373.1354 245.75,374.1621 245.75,375.4271 C245.75,375.5738 245.75,375.7204 245.7775,375.8579 L243,378.6354 L243,380.4688 L245.75,380.4688 L245.75,378.6354 L247.5833,378.6354 L247.5833,377.7188 L247.6108,377.6913 C247.7483,377.7188 247.895,377.7188 248.0417,377.7188 C249.3067,377.7188 250.3333,376.6921 250.3333,375.4271 C250.3333,374.1621 249.3067,373.1354 248.0417,373.1354 M248.5,374.0521 C249.0042,374.0521 249.4167,374.4646 249.4167,374.9688 C249.4167,375.4729 249.0042,375.8854 248.5,375.8854 C247.9958,375.8854 247.5833,375.4729 247.5833,374.9688 C247.5833,374.4646 247.9958,374.0521 248.5,374.0521 " fill="#B8860B" style="stroke:;stroke-width:0.0;stroke-dasharray:;"/><text fill="#000000" font-family="sans-serif" font-size="11" font-weight="bold" lengthAdjust="spacingAndGlyphs" textLength="98" x="255.3333" y="380.6245">paintSchemeId</text><text fill="#000000" font-family="sans-serif" font-size="11" lengthAdjust="spacingAndGlyphs" textLength="25" x="353.3333" y="380.6245">: INT</text><!--MD5=[b90c1516bef0449f0c30f9c12a7d9412]
class unit_wargear_wargear--><rect codeLine="108" fill="#FFFFFF" height="69.2188" id="unit_wargear_wargear" rx="2.5" ry="2.5" style="stroke:#2E8B57;stroke-width:1.5;" width="169" x="7" y="7"/><text fill="#000000" font-family="sans-serif" font-size="12" font-weight="bold" lengthAdjust="spacingAndGlyphs" textLength="163" x="10" y="23.1387">unit_wargear_wargear</text><text fill="#808080" font-family="sans-serif" font-size="10" lengthAdjust="spacingAndGlyphs" textLength="127" x="28" y="35.251">(unit_wargear_wargear)</text><line style="stroke:#2E8B57;stroke-width:1.5;" x1="8" x2="175" y1="42.6094" y2="42.6094"/><path d="M19.0417,49.3307 C17.7767,49.3307 16.75,50.3574 16.75,51.6224 C16.75,51.7691 16.75,51.9157 16.7775,52.0532 L14,54.8307 L14,56.6641 L16.75,56.6641 L16.75,54.8307 L18.5833,54.8307 L18.5833,53.9141 L18.6108,53.8866 C18.7483,53.9141 18.895,53.9141 19.0417,53.9141 C20.3067,53.9141 21.3333,52.8874 21.3333,51.6224 C21.3333,50.3574 20.3067,49.3307 19.0417,49.3307 M19.5,50.2474 C20.0042,50.2474 20.4167,50.6599 20.4167,51.1641 C20.4167,51.6682 20.0042,52.0807 19.5,52.0807 C18.9958,52.0807 18.5833,51.6682 18.5833,51.1641 C18.5833,50.6599 18.9958,50.2474 19.5,50.2474 " fill="#B8860B" style="stroke:;stroke-width:0.0;stroke-dasharray:;"/><text fill="#000000" font-family="sans-serif" font-size="11" font-weight="bold" lengthAdjust="spacingAndGlyphs" textLength="39" x="26.3333" y="56.8198">unitId</text><text fill="#000000" font-family="sans-serif" font-size="11" lengthAdjust="spacingAndGlyphs" textLength="25" x="65.3333" y="56.8198">: INT</text><path d="M19.0417,62.1354 C17.7767,62.1354 16.75,63.1621 16.75,64.4271 C16.75,64.5738 16.75,64.7204 16.7775,64.8579 L14,67.6354 L14,69.4688 L16.75,69.4688 L16.75,67.6354 L18.5833,67.6354 L18.5833,66.7188 L18.6108,66.6913 C18.7483,66.7188 18.895,66.7188 19.0417,66.7188 C20.3067,66.7188 21.3333,65.6921 21.3333,64.4271 C21.3333,63.1621 20.3067,62.1354 19.0417,62.1354 M19.5,63.0521 C20.0042,63.0521 20.4167,63.4646 20.4167,63.9688 C20.4167,64.4729 20.0042,64.8854 19.5,64.8854 C18.9958,64.8854 18.5833,64.4729 18.5833,63.9688 C18.5833,63.4646 18.9958,63.0521 19.5,63.0521 " fill="#B8860B" style="stroke:;stroke-width:0.0;stroke-dasharray:;"/><text fill="#000000" font-family="sans-serif" font-size="11" font-weight="bold" lengthAdjust="spacingAndGlyphs" textLength="66" x="26.3333" y="69.6245">wargearId</text><text fill="#000000" font-family="sans-serif" font-size="11" lengthAdjust="spacingAndGlyphs" textLength="25" x="92.3333" y="69.6245">: INT</text><!--MD5=[d84d3d2c6d3c644034c0f41b4284f0cd]
link paint_scheme_part to paint--><path codeLine="113" d="M439.215,484.25 C439.215,484.25 584.407,484.25 584.407,484.25 " fill="none" id="paint_scheme_part-paint" style="stroke:#2E8B57;stroke-width:1.0;"/><line style="stroke:#2E8B57;stroke-width:1.0;" x1="588.407" x2="588.407" y1="480.25" y2="488.25"/><line style="stroke:#2E8B57;stroke-width:1.0;" x1="585.407" x2="585.407" y1="480.25" y2="488.25"/><line style="stroke:#2E8B57;stroke-width:1.0;" x1="584.407" x2="592.407" y1="484.25" y2="484.25"/><line style="stroke:#2E8B57;stroke-width:1.0;" x1="439.215" x2="431.215" y1="484.25" y2="490.25"/><line style="stroke:#2E8B57;stroke-width:1.0;" x1="439.215" x2="431.215" y1="484.25" y2="478.25"/><line style="stroke:#2E8B57;stroke-width:1.0;" x1="439.215" x2="431.215" y1="484.25" y2="484.25"/><ellipse cx="445.215" cy="484.25" fill="none" rx="4" ry="4" style="stroke:#2E8B57;stroke-width:1.0;"/><!--MD5=[51804fdd7e52eee0215de7376667f74c]
link paint_scheme_part to paint_scheme--><path codeLine="114" d="M363,413.902 C363,413.902 363,401.5 363,401.5 C363,401.5 584.244,401.5 584.244,401.5 " fill="none" id="paint_scheme_part-paint_scheme" style="stroke:#2E8B57;stroke-width:1.0;"/><line style="stroke:#2E8B57;stroke-width:1.0;" x1="588.244" x2="588.244" y1="397.5" y2="405.5"/><line style="stroke:#2E8B57;stroke-width:1.0;" x1="585.244" x2="585.244" y1="397.5" y2="405.5"/><line style="stroke:#2E8B57;stroke-width:1.0;" x1="584.244" x2="592.244" y1="401.5" y2="401.5"/><line style="stroke:#2E8B57;stroke-width:1.0;" x1="363" x2="369" y1="413.902" y2="421.902"/><line style="stroke:#2E8B57;stroke-width:1.0;" x1="363" x2="357" y1="413.902" y2="421.902"/><line style="stroke:#2E8B57;stroke-width:1.0;" x1="363" x2="363" y1="413.902" y2="421.902"/><ellipse cx="363" cy="407.902" fill="none" rx="4" ry="4" style="stroke:#2E8B57;stroke-width:1.0;"/><!--MD5=[bb42a4b5aa7add7fe8bba3f898fd8dbd]
link unit to force--><path codeLine="115" d="M780.322,159.75 C780.322,159.75 859.269,159.75 859.269,159.75 " fill="none" id="unit-force" style="stroke:#2E8B57;stroke-width:1.0;"/><line style="stroke:#2E8B57;stroke-width:1.0;" x1="863.269" x2="863.269" y1="155.75" y2="163.75"/><line style="stroke:#2E8B57;stroke-width:1.0;" x1="860.269" x2="860.269" y1="155.75" y2="163.75"/><line style="stroke:#2E8B57;stroke-width:1.0;" x1="859.269" x2="867.269" y1="159.75" y2="159.75"/><line style="stroke:#2E8B57;stroke-width:1.0;" x1="780.322" x2="772.322" y1="159.75" y2="165.75"/><line style="stroke:#2E8B57;stroke-width:1.0;" x1="780.322" x2="772.322" y1="159.75" y2="153.75"/><line style="stroke:#2E8B57;stroke-width:1.0;" x1="780.322" x2="772.322" y1="159.75" y2="159.75"/><ellipse cx="786.322" cy="159.75" fill="none" rx="4" ry="4" style="stroke:#2E8B57;stroke-width:1.0;"/><!--MD5=[a284d820847f0c5e55abe56a1f7247eb]
link wargear_variant to wargear--><path codeLine="116" d="M171.057,130 C171.057,130 279.699,130 279.699,130 " fill="none" id="wargear_variant-wargear" style="stroke:#2E8B57;stroke-width:1.0;"/><line style="stroke:#2E8B57;stroke-width:1.0;" x1="283.699" x2="283.699" y1="126" y2="134"/><line style="stroke:#2E8B57;stroke-width:1.0;" x1="280.699" x2="280.699" y1="126" y2="134"/><line style="stroke:#2E8B57;stroke-width:1.0;" x1="279.699" x2="287.699" y1="130" y2="130"/><line style="stroke:#2E8B57;stroke-width:1.0;" x1="171.057" x2="163.057" y1="130" y2="136"/><line style="stroke:#2E8B57;stroke-width:1.0;" x1="171.057" x2="163.057" y1="130" y2="124"/><line style="stroke:#2E8B57;stroke-width:1.0;" x1="171.057" x2="163.057" y1="130" y2="130"/><ellipse cx="177.057" cy="130" fill="none" rx="4" ry="4" style="stroke:#2E8B57;stroke-width:1.0;"/><!--MD5=[ddb1fd4eac3b4cd2ee2886cb7443e9c2]
link wargear_variant to unit_variant--><path codeLine="117" d="M171.057,195.25 C171.057,195.25 280.65,195.25 280.65,195.25 " fill="none" id="wargear_variant-unit_variant" style="stroke:#2E8B57;stroke-width:1.0;"/><line style="stroke:#2E8B57;stroke-width:1.0;" x1="284.65" x2="284.65" y1="191.25" y2="199.25"/><line style="stroke:#2E8B57;stroke-width:1.0;" x1="281.65" x2="281.65" y1="191.25" y2="199.25"/><line style="stroke:#2E8B57;stroke-width:1.0;" x1="280.65" x2="288.65" y1="195.25" y2="195.25"/><line style="stroke:#2E8B57;stroke-width:1.0;" x1="171.057" x2="163.057" y1="195.25" y2="201.25"/><line style="stroke:#2E8B57;stroke-width:1.0;" x1="171.057" x2="163.057" y1="195.25" y2="189.25"/><line style="stroke:#2E8B57;stroke-width:1.0;" x1="171.057" x2="163.057" y1="195.25" y2="195.25"/><ellipse cx="177.057" cy="195.25" fill="none" rx="4" ry="4" style="stroke:#2E8B57;stroke-width:1.0;"/><!--MD5=[24cd72d0ee10b6fbe1168e42fe208aa0]
link unit_variant to army--><path codeLine="118" d="M444.211,243 C444.211,243 543.498,243 543.498,243 " fill="none" id="unit_variant-army" style="stroke:#2E8B57;stroke-width:1.0;"/><line style="stroke:#2E8B57;stroke-width:1.0;" x1="547.498" x2="547.498" y1="239" y2="247"/><line style="stroke:#2E8B57;stroke-width:1.0;" x1="544.498" x2="544.498" y1="239" y2="247"/><line style="stroke:#2E8B57;stroke-width:1.0;" x1="543.498" x2="551.498" y1="243" y2="243"/><line style="stroke:#2E8B57;stroke-width:1.0;" x1="444.211" x2="436.211" y1="243" y2="249"/><line style="stroke:#2E8B57;stroke-width:1.0;" x1="444.211" x2="436.211" y1="243" y2="237"/><line style="stroke:#2E8B57;stroke-width:1.0;" x1="444.211" x2="436.211" y1="243" y2="243"/><ellipse cx="450.211" cy="243" fill="none" rx="4" ry="4" style="stroke:#2E8B57;stroke-width:1.0;"/><!--MD5=[fa703c3c907c8a04f9501b2d374fab01]
link unit_variant to unit--><path codeLine="119" d="M363,166.366 C363,166.366 363,148.667 363,148.667 C363,148.667 553.955,148.667 553.955,148.667 " fill="none" id="unit_variant-unit" style="stroke:#2E8B57;stroke-width:1.0;"/><line style="stroke:#2E8B57;stroke-width:1.0;" x1="557.955" x2="557.955" y1="144.667" y2="152.667"/><line style="stroke:#2E8B57;stroke-width:1.0;" x1="554.955" x2="554.955" y1="144.667" y2="152.667"/><line style="stroke:#2E8B57;stroke-width:1.0;" x1="553.955" x2="561.955" y1="148.667" y2="148.667"/><line style="stroke:#2E8B57;stroke-width:1.0;" x1="363" x2="369" y1="166.366" y2="174.366"/><line style="stroke:#2E8B57;stroke-width:1.0;" x1="363" x2="357" y1="166.366" y2="174.366"/><line style="stroke:#2E8B57;stroke-width:1.0;" x1="363" x2="363" y1="166.366" y2="174.366"/><ellipse cx="363" cy="160.366" fill="none" rx="4" ry="4" style="stroke:#2E8B57;stroke-width:1.0;"/><!--MD5=[61cf6c37c3e0eb62e651aa2ee21fb127]
link army to user--><path codeLine="120" d="M756,319.803 C756,319.803 756,569.25 756,569.25 C756,569.25 836.808,569.25 836.808,569.25 " fill="none" id="army-user" style="stroke:#2E8B57;stroke-width:1.0;"/><line style="stroke:#2E8B57;stroke-width:1.0;" x1="840.808" x2="840.808" y1="565.25" y2="573.25"/><line style="stroke:#2E8B57;stroke-width:1.0;" x1="837.808" x2="837.808" y1="565.25" y2="573.25"/><line style="stroke:#2E8B57;stroke-width:1.0;" x1="836.808" x2="844.808" y1="569.25" y2="569.25"/><line style="stroke:#2E8B57;stroke-width:1.0;" x1="756" x2="750" y1="319.803" y2="311.803"/><line style="stroke:#2E8B57;stroke-width:1.0;" x1="756" x2="762" y1="319.803" y2="311.803"/><line style="stroke:#2E8B57;stroke-width:1.0;" x1="756" x2="756" y1="319.803" y2="311.803"/><ellipse cx="756" cy="325.803" fill="none" rx="4" ry="4" style="stroke:#2E8B57;stroke-width:1.0;"/><!--MD5=[1a0ab25b4b7fba090539ecc8a8d05ae8]
link army to force--><path codeLine="121" d="M778,195.193 C778,195.193 778,189 778,189 C778,189 859.048,189 859.048,189 " fill="none" id="army-force" style="stroke:#2E8B57;stroke-width:1.0;"/><line style="stroke:#2E8B57;stroke-width:1.0;" x1="863.048" x2="863.048" y1="185" y2="193"/><line style="stroke:#2E8B57;stroke-width:1.0;" x1="860.048" x2="860.048" y1="185" y2="193"/><line style="stroke:#2E8B57;stroke-width:1.0;" x1="859.048" x2="867.048" y1="189" y2="189"/><line style="stroke:#2E8B57;stroke-width:1.0;" x1="778" x2="784" y1="195.193" y2="203.193"/><line style="stroke:#2E8B57;stroke-width:1.0;" x1="778" x2="772" y1="195.193" y2="203.193"/><line style="stroke:#2E8B57;stroke-width:1.0;" x1="778" x2="778" y1="195.193" y2="203.193"/><ellipse cx="778" cy="189.193" fill="none" rx="4" ry="4" style="stroke:#2E8B57;stroke-width:1.0;"/><!--MD5=[3d58c64899f79338742d0feef0054636]
link auth_token to user--><path codeLine="122" d="M769,631.4287 C769,631.4287 769,603.75 769,603.75 C769,603.75 836.777,603.75 836.777,603.75 " fill="none" id="auth_token-user" style="stroke:#2E8B57;stroke-width:1.0;"/><line style="stroke:#2E8B57;stroke-width:1.0;" x1="840.777" x2="840.777" y1="599.75" y2="607.75"/><line style="stroke:#2E8B57;stroke-width:1.0;" x1="837.777" x2="837.777" y1="599.75" y2="607.75"/><line style="stroke:#2E8B57;stroke-width:1.0;" x1="836.777" x2="844.777" y1="603.75" y2="603.75"/><line style="stroke:#2E8B57;stroke-width:1.0;" x1="769" x2="775" y1="631.4287" y2="639.4287"/><line style="stroke:#2E8B57;stroke-width:1.0;" x1="769" x2="763" y1="631.4287" y2="639.4287"/><line style="stroke:#2E8B57;stroke-width:1.0;" x1="769" x2="769" y1="631.4287" y2="639.4287"/><ellipse cx="769" cy="625.4287" fill="none" rx="4" ry="4" style="stroke:#2E8B57;stroke-width:1.0;"/><!--MD5=[a80db4de5ada73f95eccc51e44618078]
link user_paints_paint to user--><path codeLine="123" d="M476.052,586.5 C476.052,586.5 836.998,586.5 836.998,586.5 " fill="none" id="user_paints_paint-user" style="stroke:#2E8B57;stroke-width:1.0;"/><line style="stroke:#2E8B57;stroke-width:1.0;" x1="840.998" x2="840.998" y1="582.5" y2="590.5"/><line style="stroke:#2E8B57;stroke-width:1.0;" x1="837.998" x2="837.998" y1="582.5" y2="590.5"/><line style="stroke:#2E8B57;stroke-width:1.0;" x1="836.998" x2="844.998" y1="586.5" y2="586.5"/><line style="stroke:#2E8B57;stroke-width:1.0;" x1="476.052" x2="468.052" y1="586.5" y2="592.5"/><line style="stroke:#2E8B57;stroke-width:1.0;" x1="476.052" x2="468.052" y1="586.5" y2="580.5"/><line style="stroke:#2E8B57;stroke-width:1.0;" x1="476.052" x2="468.052" y1="586.5" y2="586.5"/><line style="stroke:#2E8B57;stroke-width:1.0;" x1="478.052" x2="478.052" y1="590.5" y2="582.5"/><!--MD5=[206bab979a87a4348d81487fdb0d2e97]
link user_paints_paint to paint--><path codeLine="124" d="M450,543.937 C450,543.937 450,525.25 450,525.25 C450,525.25 584.321,525.25 584.321,525.25 " fill="none" id="user_paints_paint-paint" style="stroke:#2E8B57;stroke-width:1.0;"/><line style="stroke:#2E8B57;stroke-width:1.0;" x1="588.321" x2="588.321" y1="521.25" y2="529.25"/><line style="stroke:#2E8B57;stroke-width:1.0;" x1="585.321" x2="585.321" y1="521.25" y2="529.25"/><line style="stroke:#2E8B57;stroke-width:1.0;" x1="584.321" x2="592.321" y1="525.25" y2="525.25"/><line style="stroke:#2E8B57;stroke-width:1.0;" x1="450" x2="456" y1="543.937" y2="551.937"/><line style="stroke:#2E8B57;stroke-width:1.0;" x1="450" x2="444" y1="543.937" y2="551.937"/><line style="stroke:#2E8B57;stroke-width:1.0;" x1="450" x2="450" y1="543.937" y2="551.937"/><line style="stroke:#2E8B57;stroke-width:1.0;" x1="454" x2="446" y1="541.937" y2="541.937"/><!--MD5=[5bffbb298804bf68381b0ae743f19a1d]
link unit_paint_schemes_paint_scheme to unit--><path codeLine="125" d="M463,309.787 C463,309.787 463,158.333 463,158.333 C463,158.333 553.713,158.333 553.713,158.333 " fill="none" id="unit_paint_schemes_paint_scheme-unit" style="stroke:#2E8B57;stroke-width:1.0;"/><line style="stroke:#2E8B57;stroke-width:1.0;" x1="557.713" x2="557.713" y1="154.333" y2="162.333"/><line style="stroke:#2E8B57;stroke-width:1.0;" x1="554.713" x2="554.713" y1="154.333" y2="162.333"/><line style="stroke:#2E8B57;stroke-width:1.0;" x1="553.713" x2="561.713" y1="158.333" y2="158.333"/><line style="stroke:#2E8B57;stroke-width:1.0;" x1="463" x2="469" y1="309.787" y2="317.787"/><line style="stroke:#2E8B57;stroke-width:1.0;" x1="463" x2="457" y1="309.787" y2="317.787"/><line style="stroke:#2E8B57;stroke-width:1.0;" x1="463" x2="463" y1="309.787" y2="317.787"/><line style="stroke:#2E8B57;stroke-width:1.0;" x1="467" x2="459" y1="307.787" y2="307.787"/><!--MD5=[d5c2e81e65b4594e5f4a9bd9f675e95e]
link unit_paint_schemes_paint_scheme to paint_scheme--><path codeLine="126" d="M497.43,367 C497.43,367 584.486,367 584.486,367 " fill="none" id="unit_paint_schemes_paint_scheme-paint_scheme" style="stroke:#2E8B57;stroke-width:1.0;"/><line style="stroke:#2E8B57;stroke-width:1.0;" x1="588.486" x2="588.486" y1="363" y2="371"/><line style="stroke:#2E8B57;stroke-width:1.0;" x1="585.486" x2="585.486" y1="363" y2="371"/><line style="stroke:#2E8B57;stroke-width:1.0;" x1="584.486" x2="592.486" y1="367" y2="367"/><line style="stroke:#2E8B57;stroke-width:1.0;" x1="497.43" x2="489.43" y1="367" y2="373"/><line style="stroke:#2E8B57;stroke-width:1.0;" x1="497.43" x2="489.43" y1="367" y2="361"/><line style="stroke:#2E8B57;stroke-width:1.0;" x1="497.43" x2="489.43" y1="367" y2="367"/><line style="stroke:#2E8B57;stroke-width:1.0;" x1="499.43" x2="499.43" y1="371" y2="363"/><!--MD5=[f1bbecd52dd0eed4931fc5d454c93399]
link unit_wargear_wargear to unit--><path codeLine="127" d="M184.108,39.5 C184.108,39.5 553.823,39.5 553.823,39.5 " fill="none" id="unit_wargear_wargear-unit" style="stroke:#2E8B57;stroke-width:1.0;"/><line style="stroke:#2E8B57;stroke-width:1.0;" x1="557.823" x2="557.823" y1="35.5" y2="43.5"/><line style="stroke:#2E8B57;stroke-width:1.0;" x1="554.823" x2="554.823" y1="35.5" y2="43.5"/><line style="stroke:#2E8B57;stroke-width:1.0;" x1="553.823" x2="561.823" y1="39.5" y2="39.5"/><line style="stroke:#2E8B57;stroke-width:1.0;" x1="184.108" x2="176.108" y1="39.5" y2="45.5"/><line style="stroke:#2E8B57;stroke-width:1.0;" x1="184.108" x2="176.108" y1="39.5" y2="33.5"/><line style="stroke:#2E8B57;stroke-width:1.0;" x1="184.108" x2="176.108" y1="39.5" y2="39.5"/><line style="stroke:#2E8B57;stroke-width:1.0;" x1="186.108" x2="186.108" y1="43.5" y2="35.5"/><!--MD5=[ad0d98b8f0616d9c75d130ae10a12f42]
link unit_wargear_wargear to wargear--><path codeLine="128" d="M184.131,60 C184.131,60 279.676,60 279.676,60 " fill="none" id="unit_wargear_wargear-wargear" style="stroke:#2E8B57;stroke-width:1.0;"/><line style="stroke:#2E8B57;stroke-width:1.0;" x1="283.676" x2="283.676" y1="56" y2="64"/><line style="stroke:#2E8B57;stroke-width:1.0;" x1="280.676" x2="280.676" y1="56" y2="64"/><line style="stroke:#2E8B57;stroke-width:1.0;" x1="279.676" x2="287.676" y1="60" y2="60"/><line style="stroke:#2E8B57;stroke-width:1.0;" x1="184.131" x2="176.131" y1="60" y2="66"/><line style="stroke:#2E8B57;stroke-width:1.0;" x1="184.131" x2="176.131" y1="60" y2="54"/><line style="stroke:#2E8B57;stroke-width:1.0;" x1="184.131" x2="176.131" y1="60" y2="60"/><line style="stroke:#2E8B57;stroke-width:1.0;" x1="186.131" x2="186.131" y1="64" y2="56"/><!--MD5=[636d152afcc695074851ae533d78b1b5]
@startuml
!define table(ename, dbname) entity "<b>ename</b>\n<font size=10 color=gray>(dbname)</font>"

!define pkey(x) {field} <b><color:DarkGoldenRod><&key></color> x</b>
!define fkey(x) {field} <color:#AAAAAA><&key></color> x
!define column(x) {field} <color:#EFEFEF><&media-record></color> x

hide stereotypes
hide methods
hide circle

left to right direction

skinparam roundcorner 5
skinparam linetype ortho
skinparam shadowing false
skinparam handwritten false

skinparam class {
    BackgroundColor white
    ArrowColor seagreen
    BorderColor seagreen
}


table( User, user ) as user {
  pkey( username ): NVARCHAR(32) 
  column( passwordHash ): NVARCHAR(60) 
}

table( Paint, paint ) as paint {
  pkey( id ): INT 
  column( name ): NVARCHAR(64) 
  column( type ): NVARCHAR(32) 
}

table( PaintSchemePart, paint_scheme_part ) as paint_scheme_part {
  pkey( id ): INT 
  column( order ): INT 
  fkey( paintId ): INT <<FK>>
  fkey( schemeId ): INT <<FK>>
}

table( PaintScheme, paint_scheme ) as paint_scheme {
  pkey( id ): INT 
  column( name ): NVARCHAR(64) 
}

table( Wargear, wargear ) as wargear {
  pkey( id ): INT 
  column( name ): NVARCHAR(64) 
  column( type ): NVARCHAR(32) 
  column( pointValue ): INT 
}

table( Unit, unit ) as unit {
  pkey( id ): INT 
  column( name ): NVARCHAR(64) 
  column( minModelsPerUnit ): INT 
  column( maxModelsPerUnit ): INT 
  column( pointsPerModel ): INT 
  column( type ): NVARCHAR(32) 
  fkey( forceName ): NVARCHAR(32) <<FK>>
}

table( Force, force ) as force {
  pkey( name ): NVARCHAR(32) 
}

table( WargearVariant, wargear_variant ) as wargear_variant {
  pkey( id ): INT 
  column( count ): INT 
  fkey( wargear_id ): INT <<FK>>
  fkey( unitId ): INT <<FK>>
}

table( UnitVariant, unit_variant ) as unit_variant {
  pkey( id ): INT 
  column( numberOfModels ): INT 
  column( pointValue ): INT 
  fkey( armyId ): INT <<FK>>
  fkey( unit_id ): INT <<FK>>
}

table( Army, army ) as army {
  pkey( id ): INT 
  column( name ): NVARCHAR(256) 
  column( pointValue ): INT 
  fkey( userUsername ): NVARCHAR(32) <<FK>>
  fkey( forceName ): NVARCHAR(32) <<FK>>
}

table( AuthToken, auth_token ) as auth_token {
  pkey( token ): NVARCHAR(60) 
  column( revoked ): BIT 
  fkey( user_username ): NVARCHAR(32) <<FK>>
}

table( user_paints_paint, user_paints_paint ) as user_paints_paint {
  pkey( userUsername ): NVARCHAR(32) 
  pkey( paintId ): INT 
}

table( unit_paint_schemes_paint_scheme, unit_paint_schemes_paint_scheme ) as unit_paint_schemes_paint_scheme {
  pkey( unitId ): INT 
  pkey( paintSchemeId ): INT 
}

table( unit_wargear_wargear, unit_wargear_wargear ) as unit_wargear_wargear {
  pkey( unitId ): INT 
  pkey( wargearId ): INT 
}

paint_scheme_part }o- -|| paint
paint_scheme_part }o- -|| paint_scheme
unit }o- -|| force
wargear_variant }o- -|| wargear
wargear_variant }o- -|| unit_variant
unit_variant }o- -|| army
unit_variant }o- -|| unit
army }o- -|| user
army }o- -|| force
auth_token }o- -|| user
user_paints_paint }|- -|| user
user_paints_paint }|- -|| paint
unit_paint_schemes_paint_scheme }|- -|| unit
unit_paint_schemes_paint_scheme }|- -|| paint_scheme
unit_wargear_wargear }|- -|| unit
unit_wargear_wargear }|- -|| wargear
@enduml

@startuml


hide stereotypes
hide methods
hide circle

left to right direction

skinparam roundcorner 5
skinparam linetype ortho
skinparam shadowing false
skinparam handwritten false

skinparam class {
    BackgroundColor white
    ArrowColor seagreen
    BorderColor seagreen
}


entity "<b>User</b>\n<font size=10 color=gray>(user)</font>" as user {
  {field} <b><color:DarkGoldenRod><&key></color> username</b>: NVARCHAR(32) 
  {field} <color:#EFEFEF><&media-record></color> passwordHash: NVARCHAR(60) 
}

entity "<b>Paint</b>\n<font size=10 color=gray>(paint)</font>" as paint {
  {field} <b><color:DarkGoldenRod><&key></color> id</b>: INT 
  {field} <color:#EFEFEF><&media-record></color> name: NVARCHAR(64) 
  {field} <color:#EFEFEF><&media-record></color> type: NVARCHAR(32) 
}

entity "<b>PaintSchemePart</b>\n<font size=10 color=gray>(paint_scheme_part)</font>" as paint_scheme_part {
  {field} <b><color:DarkGoldenRod><&key></color> id</b>: INT 
  {field} <color:#EFEFEF><&media-record></color> order: INT 
  {field} <color:#AAAAAA><&key></color> paintId: INT <<FK>>
  {field} <color:#AAAAAA><&key></color> schemeId: INT <<FK>>
}

entity "<b>PaintScheme</b>\n<font size=10 color=gray>(paint_scheme)</font>" as paint_scheme {
  {field} <b><color:DarkGoldenRod><&key></color> id</b>: INT 
  {field} <color:#EFEFEF><&media-record></color> name: NVARCHAR(64) 
}

entity "<b>Wargear</b>\n<font size=10 color=gray>(wargear)</font>" as wargear {
  {field} <b><color:DarkGoldenRod><&key></color> id</b>: INT 
  {field} <color:#EFEFEF><&media-record></color> name: NVARCHAR(64) 
  {field} <color:#EFEFEF><&media-record></color> type: NVARCHAR(32) 
  {field} <color:#EFEFEF><&media-record></color> pointValue: INT 
}

entity "<b>Unit</b>\n<font size=10 color=gray>(unit)</font>" as unit {
  {field} <b><color:DarkGoldenRod><&key></color> id</b>: INT 
  {field} <color:#EFEFEF><&media-record></color> name: NVARCHAR(64) 
  {field} <color:#EFEFEF><&media-record></color> minModelsPerUnit: INT 
  {field} <color:#EFEFEF><&media-record></color> maxModelsPerUnit: INT 
  {field} <color:#EFEFEF><&media-record></color> pointsPerModel: INT 
  {field} <color:#EFEFEF><&media-record></color> type: NVARCHAR(32) 
  {field} <color:#AAAAAA><&key></color> forceName: NVARCHAR(32) <<FK>>
}

entity "<b>Force</b>\n<font size=10 color=gray>(force)</font>" as force {
  {field} <b><color:DarkGoldenRod><&key></color> name</b>: NVARCHAR(32) 
}

entity "<b>WargearVariant</b>\n<font size=10 color=gray>(wargear_variant)</font>" as wargear_variant {
  {field} <b><color:DarkGoldenRod><&key></color> id</b>: INT 
  {field} <color:#EFEFEF><&media-record></color> count: INT 
  {field} <color:#AAAAAA><&key></color> wargear_id: INT <<FK>>
  {field} <color:#AAAAAA><&key></color> unitId: INT <<FK>>
}

entity "<b>UnitVariant</b>\n<font size=10 color=gray>(unit_variant)</font>" as unit_variant {
  {field} <b><color:DarkGoldenRod><&key></color> id</b>: INT 
  {field} <color:#EFEFEF><&media-record></color> numberOfModels: INT 
  {field} <color:#EFEFEF><&media-record></color> pointValue: INT 
  {field} <color:#AAAAAA><&key></color> armyId: INT <<FK>>
  {field} <color:#AAAAAA><&key></color> unit_id: INT <<FK>>
}

entity "<b>Army</b>\n<font size=10 color=gray>(army)</font>" as army {
  {field} <b><color:DarkGoldenRod><&key></color> id</b>: INT 
  {field} <color:#EFEFEF><&media-record></color> name: NVARCHAR(256) 
  {field} <color:#EFEFEF><&media-record></color> pointValue: INT 
  {field} <color:#AAAAAA><&key></color> userUsername: NVARCHAR(32) <<FK>>
  {field} <color:#AAAAAA><&key></color> forceName: NVARCHAR(32) <<FK>>
}

entity "<b>AuthToken</b>\n<font size=10 color=gray>(auth_token)</font>" as auth_token {
  {field} <b><color:DarkGoldenRod><&key></color> token</b>: NVARCHAR(60) 
  {field} <color:#EFEFEF><&media-record></color> revoked: BIT 
  {field} <color:#AAAAAA><&key></color> user_username: NVARCHAR(32) <<FK>>
}

entity "<b>user_paints_paint</b>\n<font size=10 color=gray>(user_paints_paint)</font>" as user_paints_paint {
  {field} <b><color:DarkGoldenRod><&key></color> userUsername</b>: NVARCHAR(32) 
  {field} <b><color:DarkGoldenRod><&key></color> paintId</b>: INT 
}

entity "<b>unit_paint_schemes_paint_scheme</b>\n<font size=10 color=gray>(unit_paint_schemes_paint_scheme)</font>" as unit_paint_schemes_paint_scheme {
  {field} <b><color:DarkGoldenRod><&key></color> unitId</b>: INT 
  {field} <b><color:DarkGoldenRod><&key></color> paintSchemeId</b>: INT 
}

entity "<b>unit_wargear_wargear</b>\n<font size=10 color=gray>(unit_wargear_wargear)</font>" as unit_wargear_wargear {
  {field} <b><color:DarkGoldenRod><&key></color> unitId</b>: INT 
  {field} <b><color:DarkGoldenRod><&key></color> wargearId</b>: INT 
}

paint_scheme_part }o- -|| paint
paint_scheme_part }o- -|| paint_scheme
unit }o- -|| force
wargear_variant }o- -|| wargear
wargear_variant }o- -|| unit_variant
unit_variant }o- -|| army
unit_variant }o- -|| unit
army }o- -|| user
army }o- -|| force
auth_token }o- -|| user
user_paints_paint }|- -|| user
user_paints_paint }|- -|| paint
unit_paint_schemes_paint_scheme }|- -|| unit
unit_paint_schemes_paint_scheme }|- -|| paint_scheme
unit_wargear_wargear }|- -|| unit
unit_wargear_wargear }|- -|| wargear
@enduml

PlantUML version 1.2020.24(Fri Dec 18 17:00:36 UTC 2020)
(GPL source distribution)
Java Runtime: Java(TM) SE Runtime Environment
JVM: Java HotSpot(TM) 64-Bit Server VM
Default Encoding: UTF-8
Language: en
Country: US
--></g></svg>