<?xml version="1.0" encoding="UTF-8" standalone="no"?><svg xmlns="http://www.w3.org/2000/svg" xmlns:xlink="http://www.w3.org/1999/xlink" contentScriptType="application/ecmascript" contentStyleType="text/css" height="676px" preserveAspectRatio="none" style="width:1049px;height:676px;" version="1.1" viewBox="0 0 1049 676" width="1049px" zoomAndPan="magnify"><defs/><g><!--MD5=[15c6e9ffaea2e23fe19ed9db921e213d]
class paint--><rect codeLine="25" fill="#FFFFFF" height="82.0234" id="paint" rx="2.5" ry="2.5" style="stroke:#2E8B57;stroke-width:1.5;" width="149.3333" x="592.5" y="47.5"/><text fill="#000000" font-family="sans-serif" font-size="12" font-weight="bold" lengthAdjust="spacingAndGlyphs" textLength="38" x="648.1667" y="63.6387">Paint</text><text fill="#808080" font-family="sans-serif" font-size="10" lengthAdjust="spacingAndGlyphs" textLength="36" x="649.1667" y="75.751">(paint)</text><line style="stroke:#2E8B57;stroke-width:1.5;" x1="593.5" x2="740.8333" y1="83.1094" y2="83.1094"/><path d="M604.5417,89.8307 C603.2767,89.8307 602.25,90.8574 602.25,92.1224 C602.25,92.2691 602.25,92.4157 602.2775,92.5532 L599.5,95.3307 L599.5,97.1641 L602.25,97.1641 L602.25,95.3307 L604.0833,95.3307 L604.0833,94.4141 L604.1108,94.3866 C604.2483,94.4141 604.395,94.4141 604.5417,94.4141 C605.8067,94.4141 606.8333,93.3874 606.8333,92.1224 C606.8333,90.8574 605.8067,89.8307 604.5417,89.8307 M605,90.7474 C605.5042,90.7474 605.9167,91.1599 605.9167,91.6641 C605.9167,92.1682 605.5042,92.5807 605,92.5807 C604.4958,92.5807 604.0833,92.1682 604.0833,91.6641 C604.0833,91.1599 604.4958,90.7474 605,90.7474 " fill="#B8860B" style="stroke:;stroke-width:0.0;stroke-dasharray:;"/><text fill="#000000" font-family="sans-serif" font-size="11" font-weight="bold" lengthAdjust="spacingAndGlyphs" textLength="12" x="611.8333" y="97.3198">id</text><text fill="#000000" font-family="sans-serif" font-size="11" lengthAdjust="spacingAndGlyphs" textLength="25" x="623.8333" y="97.3198">: INT</text><path d="M602.25,102.6354 C600.7283,102.6354 599.5,103.8638 599.5,105.3854 C599.5,106.9071 600.7283,108.1354 602.25,108.1354 C603.7717,108.1354 605,106.9071 605,105.3854 C605,103.8638 603.7717,102.6354 602.25,102.6354 " fill="#EFEFEF" style="stroke:;stroke-width:0.0;stroke-dasharray:;"/><text fill="#000000" font-family="sans-serif" font-size="11" lengthAdjust="spacingAndGlyphs" textLength="124" x="611.8333" y="110.1245">name: NVARCHAR(64)</text><path d="M602.25,115.4401 C600.7283,115.4401 599.5,116.6684 599.5,118.1901 C599.5,119.7118 600.7283,120.9401 602.25,120.9401 C603.7717,120.9401 605,119.7118 605,118.1901 C605,116.6684 603.7717,115.4401 602.25,115.4401 " fill="#EFEFEF" style="stroke:;stroke-width:0.0;stroke-dasharray:;"/><text fill="#000000" font-family="sans-serif" font-size="11" lengthAdjust="spacingAndGlyphs" textLength="117" x="611.8333" y="122.9292">type: NVARCHAR(32)</text><!--MD5=[62bb14c4c7cfe8ecd085cb6ef8c8d2f8]
class paint_scheme_part--><rect codeLine="31" fill="#FFFFFF" height="94.8281" id="paint_scheme_part" rx="2.5" ry="2.5" style="stroke:#2E8B57;stroke-width:1.5;" width="137.3333" x="294" y="111"/><text fill="#000000" font-family="sans-serif" font-size="12" font-weight="bold" lengthAdjust="spacingAndGlyphs" textLength="126" x="299.6667" y="127.1387">PaintSchemePart</text><text fill="#808080" font-family="sans-serif" font-size="10" lengthAdjust="spacingAndGlyphs" textLength="111" x="307.1667" y="139.251">(paint_scheme_part)</text><line style="stroke:#2E8B57;stroke-width:1.5;" x1="295" x2="430.3333" y1="146.6094" y2="146.6094"/><path d="M306.0417,153.3307 C304.7767,153.3307 303.75,154.3574 303.75,155.6224 C303.75,155.7691 303.75,155.9157 303.7775,156.0532 L301,158.8307 L301,160.6641 L303.75,160.6641 L303.75,158.8307 L305.5833,158.8307 L305.5833,157.9141 L305.6108,157.8866 C305.7483,157.9141 305.895,157.9141 306.0417,157.9141 C307.3067,157.9141 308.3333,156.8874 308.3333,155.6224 C308.3333,154.3574 307.3067,153.3307 306.0417,153.3307 M306.5,154.2474 C307.0042,154.2474 307.4167,154.6599 307.4167,155.1641 C307.4167,155.6682 307.0042,156.0807 306.5,156.0807 C305.9958,156.0807 305.5833,155.6682 305.5833,155.1641 C305.5833,154.6599 305.9958,154.2474 306.5,154.2474 " fill="#B8860B" style="stroke:;stroke-width:0.0;stroke-dasharray:;"/><text fill="#000000" font-family="sans-serif" font-size="11" font-weight="bold" lengthAdjust="spacingAndGlyphs" textLength="12" x="313.3333" y="160.8198">id</text><text fill="#000000" font-family="sans-serif" font-size="11" lengthAdjust="spacingAndGlyphs" textLength="25" x="325.3333" y="160.8198">: INT</text><path d="M303.75,166.1354 C302.2283,166.1354 301,167.3638 301,168.8854 C301,170.4071 302.2283,171.6354 303.75,171.6354 C305.2717,171.6354 306.5,170.4071 306.5,168.8854 C306.5,167.3638 305.2717,166.1354 303.75,166.1354 " fill="#EFEFEF" style="stroke:;stroke-width:0.0;stroke-dasharray:;"/><text fill="#000000" font-family="sans-serif" font-size="11" lengthAdjust="spacingAndGlyphs" textLength="55" x="313.3333" y="173.6245">order: INT</text><path d="M306.0417,178.9401 C304.7767,178.9401 303.75,179.9668 303.75,181.2318 C303.75,181.3784 303.75,181.5251 303.7775,181.6626 L301,184.4401 L301,186.2734 L303.75,186.2734 L303.75,184.4401 L305.5833,184.4401 L305.5833,183.5234 L305.6108,183.4959 C305.7483,183.5234 305.895,183.5234 306.0417,183.5234 C307.3067,183.5234 308.3333,182.4968 308.3333,181.2318 C308.3333,179.9668 307.3067,178.9401 306.0417,178.9401 M306.5,179.8568 C307.0042,179.8568 307.4167,180.2693 307.4167,180.7734 C307.4167,181.2776 307.0042,181.6901 306.5,181.6901 C305.9958,181.6901 305.5833,181.2776 305.5833,180.7734 C305.5833,180.2693 305.9958,179.8568 306.5,179.8568 " fill="#AAAAAA" style="stroke:;stroke-width:0.0;stroke-dasharray:;"/><text fill="#000000" font-family="sans-serif" font-size="11" lengthAdjust="spacingAndGlyphs" textLength="94" x="313.3333" y="186.4292">paintId: INT «FK»</text><path d="M306.0417,191.7448 C304.7767,191.7448 303.75,192.7715 303.75,194.0365 C303.75,194.1831 303.75,194.3298 303.7775,194.4673 L301,197.2448 L301,199.0781 L303.75,199.0781 L303.75,197.2448 L305.5833,197.2448 L305.5833,196.3281 L305.6108,196.3006 C305.7483,196.3281 305.895,196.3281 306.0417,196.3281 C307.3067,196.3281 308.3333,195.3015 308.3333,194.0365 C308.3333,192.7715 307.3067,191.7448 306.0417,191.7448 M306.5,192.6615 C307.0042,192.6615 307.4167,193.074 307.4167,193.5781 C307.4167,194.0823 307.0042,194.4948 306.5,194.4948 C305.9958,194.4948 305.5833,194.0823 305.5833,193.5781 C305.5833,193.074 305.9958,192.6615 306.5,192.6615 " fill="#AAAAAA" style="stroke:;stroke-width:0.0;stroke-dasharray:;"/><text fill="#000000" font-family="sans-serif" font-size="11" lengthAdjust="spacingAndGlyphs" textLength="112" x="313.3333" y="199.2339">schemeId: INT «FK»</text><!--MD5=[0f0cab106bdcd190832f93d0c60e05dc]
class paint_scheme--><rect codeLine="38" fill="#FFFFFF" height="82.0234" id="paint_scheme" rx="2.5" ry="2.5" style="stroke:#2E8B57;stroke-width:1.5;" width="159.3333" x="587.5" y="164.5"/><text fill="#000000" font-family="sans-serif" font-size="12" font-weight="bold" lengthAdjust="spacingAndGlyphs" textLength="94" x="620.1667" y="180.6387">PaintScheme</text><text fill="#808080" font-family="sans-serif" font-size="10" lengthAdjust="spacingAndGlyphs" textLength="84" x="625.1667" y="192.751">(paint_scheme)</text><line style="stroke:#2E8B57;stroke-width:1.5;" x1="588.5" x2="745.8333" y1="200.1094" y2="200.1094"/><path d="M599.5417,206.8307 C598.2767,206.8307 597.25,207.8574 597.25,209.1224 C597.25,209.2691 597.25,209.4157 597.2775,209.5532 L594.5,212.3307 L594.5,214.1641 L597.25,214.1641 L597.25,212.3307 L599.0833,212.3307 L599.0833,211.4141 L599.1108,211.3866 C599.2483,211.4141 599.395,211.4141 599.5417,211.4141 C600.8067,211.4141 601.8333,210.3874 601.8333,209.1224 C601.8333,207.8574 600.8067,206.8307 599.5417,206.8307 M600,207.7474 C600.5042,207.7474 600.9167,208.1599 600.9167,208.6641 C600.9167,209.1682 600.5042,209.5807 600,209.5807 C599.4958,209.5807 599.0833,209.1682 599.0833,208.6641 C599.0833,208.1599 599.4958,207.7474 600,207.7474 " fill="#B8860B" style="stroke:;stroke-width:0.0;stroke-dasharray:;"/><text fill="#000000" font-family="sans-serif" font-size="11" font-weight="bold" lengthAdjust="spacingAndGlyphs" textLength="12" x="606.8333" y="214.3198">id</text><text fill="#000000" font-family="sans-serif" font-size="11" lengthAdjust="spacingAndGlyphs" textLength="25" x="618.8333" y="214.3198">: INT</text><path d="M597.25,219.6354 C595.7283,219.6354 594.5,220.8638 594.5,222.3854 C594.5,223.9071 595.7283,225.1354 597.25,225.1354 C598.7717,225.1354 600,223.9071 600,222.3854 C600,220.8638 598.7717,219.6354 597.25,219.6354 " fill="#EFEFEF" style="stroke:;stroke-width:0.0;stroke-dasharray:;"/><text fill="#000000" font-family="sans-serif" font-size="11" lengthAdjust="spacingAndGlyphs" textLength="124" x="606.8333" y="227.1245">name: NVARCHAR(64)</text><path d="M597.25,232.4401 C595.7283,232.4401 594.5,233.6684 594.5,235.1901 C594.5,236.7118 595.7283,237.9401 597.25,237.9401 C598.7717,237.9401 600,236.7118 600,235.1901 C600,233.6684 598.7717,232.4401 597.25,232.4401 " fill="#EFEFEF" style="stroke:;stroke-width:0.0;stroke-dasharray:;"/><text fill="#000000" font-family="sans-serif" font-size="11" lengthAdjust="spacingAndGlyphs" textLength="134" x="606.8333" y="239.9292">image: NVARCHAR(255)</text><!--MD5=[1bdd030ce00e7fcfd6d7a6b03042af90]
class wargear--><rect codeLine="44" fill="#FFFFFF" height="94.8281" id="wargear" rx="2.5" ry="2.5" style="stroke:#2E8B57;stroke-width:1.5;" width="149.3333" x="288" y="536"/><text fill="#000000" font-family="sans-serif" font-size="12" font-weight="bold" lengthAdjust="spacingAndGlyphs" textLength="63" x="331.1667" y="552.1387">Wargear</text><text fill="#808080" font-family="sans-serif" font-size="10" lengthAdjust="spacingAndGlyphs" textLength="52" x="336.6667" y="564.251">(wargear)</text><line style="stroke:#2E8B57;stroke-width:1.5;" x1="289" x2="436.3333" y1="571.6094" y2="571.6094"/><path d="M300.0417,578.3307 C298.7767,578.3307 297.75,579.3574 297.75,580.6224 C297.75,580.7691 297.75,580.9157 297.7775,581.0532 L295,583.8307 L295,585.6641 L297.75,585.6641 L297.75,583.8307 L299.5833,583.8307 L299.5833,582.9141 L299.6108,582.8866 C299.7483,582.9141 299.895,582.9141 300.0417,582.9141 C301.3067,582.9141 302.3333,581.8874 302.3333,580.6224 C302.3333,579.3574 301.3067,578.3307 300.0417,578.3307 M300.5,579.2474 C301.0042,579.2474 301.4167,579.6599 301.4167,580.1641 C301.4167,580.6682 301.0042,581.0807 300.5,581.0807 C299.9958,581.0807 299.5833,580.6682 299.5833,580.1641 C299.5833,579.6599 299.9958,579.2474 300.5,579.2474 " fill="#B8860B" style="stroke:;stroke-width:0.0;stroke-dasharray:;"/><text fill="#000000" font-family="sans-serif" font-size="11" font-weight="bold" lengthAdjust="spacingAndGlyphs" textLength="12" x="307.3333" y="585.8198">id</text><text fill="#000000" font-family="sans-serif" font-size="11" lengthAdjust="spacingAndGlyphs" textLength="25" x="319.3333" y="585.8198">: INT</text><path d="M297.75,591.1354 C296.2283,591.1354 295,592.3638 295,593.8854 C295,595.4071 296.2283,596.6354 297.75,596.6354 C299.2717,596.6354 300.5,595.4071 300.5,593.8854 C300.5,592.3638 299.2717,591.1354 297.75,591.1354 " fill="#EFEFEF" style="stroke:;stroke-width:0.0;stroke-dasharray:;"/><text fill="#000000" font-family="sans-serif" font-size="11" lengthAdjust="spacingAndGlyphs" textLength="124" x="307.3333" y="598.6245">name: NVARCHAR(64)</text><path d="M297.75,603.9401 C296.2283,603.9401 295,605.1684 295,606.6901 C295,608.2118 296.2283,609.4401 297.75,609.4401 C299.2717,609.4401 300.5,608.2118 300.5,606.6901 C300.5,605.1684 299.2717,603.9401 297.75,603.9401 " fill="#EFEFEF" style="stroke:;stroke-width:0.0;stroke-dasharray:;"/><text fill="#000000" font-family="sans-serif" font-size="11" lengthAdjust="spacingAndGlyphs" textLength="117" x="307.3333" y="611.4292">type: NVARCHAR(32)</text><path d="M297.75,616.7448 C296.2283,616.7448 295,617.9731 295,619.4948 C295,621.0165 296.2283,622.2448 297.75,622.2448 C299.2717,622.2448 300.5,621.0165 300.5,619.4948 C300.5,617.9731 299.2717,616.7448 297.75,616.7448 " fill="#EFEFEF" style="stroke:;stroke-width:0.0;stroke-dasharray:;"/><text fill="#000000" font-family="sans-serif" font-size="11" lengthAdjust="spacingAndGlyphs" textLength="86" x="307.3333" y="624.2339">pointValue: INT</text><!--MD5=[71453aad0c321cc4e5ffc62c5a278467]
class unit--><rect codeLine="51" fill="#FFFFFF" height="133.2422" id="unit" rx="2.5" ry="2.5" style="stroke:#2E8B57;stroke-width:1.5;" width="210.3333" x="562" y="529"/><text fill="#000000" font-family="sans-serif" font-size="12" font-weight="bold" lengthAdjust="spacingAndGlyphs" textLength="29" x="652.6667" y="545.1387">Unit</text><text fill="#808080" font-family="sans-serif" font-size="10" lengthAdjust="spacingAndGlyphs" textLength="29" x="652.6667" y="557.251">(unit)</text><line style="stroke:#2E8B57;stroke-width:1.5;" x1="563" x2="771.3333" y1="564.6094" y2="564.6094"/><path d="M574.0417,571.3307 C572.7767,571.3307 571.75,572.3574 571.75,573.6224 C571.75,573.7691 571.75,573.9157 571.7775,574.0532 L569,576.8307 L569,578.6641 L571.75,578.6641 L571.75,576.8307 L573.5833,576.8307 L573.5833,575.9141 L573.6108,575.8866 C573.7483,575.9141 573.895,575.9141 574.0417,575.9141 C575.3067,575.9141 576.3333,574.8874 576.3333,573.6224 C576.3333,572.3574 575.3067,571.3307 574.0417,571.3307 M574.5,572.2474 C575.0042,572.2474 575.4167,572.6599 575.4167,573.1641 C575.4167,573.6682 575.0042,574.0807 574.5,574.0807 C573.9958,574.0807 573.5833,573.6682 573.5833,573.1641 C573.5833,572.6599 573.9958,572.2474 574.5,572.2474 " fill="#B8860B" style="stroke:;stroke-width:0.0;stroke-dasharray:;"/><text fill="#000000" font-family="sans-serif" font-size="11" font-weight="bold" lengthAdjust="spacingAndGlyphs" textLength="12" x="581.3333" y="578.8198">id</text><text fill="#000000" font-family="sans-serif" font-size="11" lengthAdjust="spacingAndGlyphs" textLength="25" x="593.3333" y="578.8198">: INT</text><path d="M571.75,584.1354 C570.2283,584.1354 569,585.3638 569,586.8854 C569,588.4071 570.2283,589.6354 571.75,589.6354 C573.2717,589.6354 574.5,588.4071 574.5,586.8854 C574.5,585.3638 573.2717,584.1354 571.75,584.1354 " fill="#EFEFEF" style="stroke:;stroke-width:0.0;stroke-dasharray:;"/><text fill="#000000" font-family="sans-serif" font-size="11" lengthAdjust="spacingAndGlyphs" textLength="124" x="581.3333" y="591.6245">name: NVARCHAR(64)</text><path d="M571.75,596.9401 C570.2283,596.9401 569,598.1684 569,599.6901 C569,601.2118 570.2283,602.4401 571.75,602.4401 C573.2717,602.4401 574.5,601.2118 574.5,599.6901 C574.5,598.1684 573.2717,596.9401 571.75,596.9401 " fill="#EFEFEF" style="stroke:;stroke-width:0.0;stroke-dasharray:;"/><text fill="#000000" font-family="sans-serif" font-size="11" lengthAdjust="spacingAndGlyphs" textLength="126" x="581.3333" y="604.4292">minModelsPerUnit: INT</text><path d="M571.75,609.7448 C570.2283,609.7448 569,610.9731 569,612.4948 C569,614.0165 570.2283,615.2448 571.75,615.2448 C573.2717,615.2448 574.5,614.0165 574.5,612.4948 C574.5,610.9731 573.2717,609.7448 571.75,609.7448 " fill="#EFEFEF" style="stroke:;stroke-width:0.0;stroke-dasharray:;"/><text fill="#000000" font-family="sans-serif" font-size="11" lengthAdjust="spacingAndGlyphs" textLength="130" x="581.3333" y="617.2339">maxModelsPerUnit: INT</text><path d="M571.75,622.5495 C570.2283,622.5495 569,623.7778 569,625.2995 C569,626.8211 570.2283,628.0495 571.75,628.0495 C573.2717,628.0495 574.5,626.8211 574.5,625.2995 C574.5,623.7778 573.2717,622.5495 571.75,622.5495 " fill="#EFEFEF" style="stroke:;stroke-width:0.0;stroke-dasharray:;"/><text fill="#000000" font-family="sans-serif" font-size="11" lengthAdjust="spacingAndGlyphs" textLength="111" x="581.3333" y="630.0386">pointsPerModel: INT</text><path d="M571.75,635.3542 C570.2283,635.3542 569,636.5825 569,638.1042 C569,639.6258 570.2283,640.8542 571.75,640.8542 C573.2717,640.8542 574.5,639.6258 574.5,638.1042 C574.5,636.5825 573.2717,635.3542 571.75,635.3542 " fill="#EFEFEF" style="stroke:;stroke-width:0.0;stroke-dasharray:;"/><text fill="#000000" font-family="sans-serif" font-size="11" lengthAdjust="spacingAndGlyphs" textLength="117" x="581.3333" y="642.8433">type: NVARCHAR(32)</text><path d="M574.0417,648.1589 C572.7767,648.1589 571.75,649.1855 571.75,650.4505 C571.75,650.5972 571.75,650.7439 571.7775,650.8814 L569,653.6589 L569,655.4922 L571.75,655.4922 L571.75,653.6589 L573.5833,653.6589 L573.5833,652.7422 L573.6108,652.7147 C573.7483,652.7422 573.895,652.7422 574.0417,652.7422 C575.3067,652.7422 576.3333,651.7155 576.3333,650.4505 C576.3333,649.1855 575.3067,648.1589 574.0417,648.1589 M574.5,649.0755 C575.0042,649.0755 575.4167,649.488 575.4167,649.9922 C575.4167,650.4964 575.0042,650.9089 574.5,650.9089 C573.9958,650.9089 573.5833,650.4964 573.5833,649.9922 C573.5833,649.488 573.9958,649.0755 574.5,649.0755 " fill="#AAAAAA" style="stroke:;stroke-width:0.0;stroke-dasharray:;"/><text fill="#000000" font-family="sans-serif" font-size="11" lengthAdjust="spacingAndGlyphs" textLength="185" x="581.3333" y="655.6479">forceName: NVARCHAR(32) «FK»</text><!--MD5=[34a1784414a501411742ee5e744abcee]
class force--><rect codeLine="61" fill="#FFFFFF" height="56.4141" id="force" rx="2.5" ry="2.5" style="stroke:#2E8B57;stroke-width:1.5;" width="152.3333" x="867.5" y="492.5"/><text fill="#000000" font-family="sans-serif" font-size="12" font-weight="bold" lengthAdjust="spacingAndGlyphs" textLength="41" x="923.1667" y="508.6387">Force</text><text fill="#808080" font-family="sans-serif" font-size="10" lengthAdjust="spacingAndGlyphs" textLength="36" x="925.6667" y="520.751">(force)</text><line style="stroke:#2E8B57;stroke-width:1.5;" x1="868.5" x2="1018.8333" y1="528.1094" y2="528.1094"/><path d="M879.5417,534.8307 C878.2767,534.8307 877.25,535.8574 877.25,537.1224 C877.25,537.2691 877.25,537.4157 877.2775,537.5532 L874.5,540.3307 L874.5,542.1641 L877.25,542.1641 L877.25,540.3307 L879.0833,540.3307 L879.0833,539.4141 L879.1108,539.3866 C879.2483,539.4141 879.395,539.4141 879.5417,539.4141 C880.8067,539.4141 881.8333,538.3874 881.8333,537.1224 C881.8333,535.8574 880.8067,534.8307 879.5417,534.8307 M880,535.7474 C880.5042,535.7474 880.9167,536.1599 880.9167,536.6641 C880.9167,537.1682 880.5042,537.5807 880,537.5807 C879.4958,537.5807 879.0833,537.1682 879.0833,536.6641 C879.0833,536.1599 879.4958,535.7474 880,535.7474 " fill="#B8860B" style="stroke:;stroke-width:0.0;stroke-dasharray:;"/><text fill="#000000" font-family="sans-serif" font-size="11" font-weight="bold" lengthAdjust="spacingAndGlyphs" textLength="36" x="886.8333" y="542.3198">name</text><text fill="#000000" font-family="sans-serif" font-size="11" lengthAdjust="spacingAndGlyphs" textLength="91" x="922.8333" y="542.3198">: NVARCHAR(32)</text><!--MD5=[b589f15cc2a6267756d4398fa606a64d]
class wargear_variant--><rect codeLine="65" fill="#FFFFFF" height="94.8281" id="wargear_variant" rx="2.5" ry="2.5" style="stroke:#2E8B57;stroke-width:1.5;" width="143.3333" x="20" y="435"/><text fill="#000000" font-family="sans-serif" font-size="12" font-weight="bold" lengthAdjust="spacingAndGlyphs" textLength="117" x="33.1667" y="451.1387">WargearVariant</text><text fill="#808080" font-family="sans-serif" font-size="10" lengthAdjust="spacingAndGlyphs" textLength="95" x="44.1667" y="463.251">(wargear_variant)</text><line style="stroke:#2E8B57;stroke-width:1.5;" x1="21" x2="162.3333" y1="470.6094" y2="470.6094"/><path d="M32.0417,477.3307 C30.7767,477.3307 29.75,478.3574 29.75,479.6224 C29.75,479.7691 29.75,479.9157 29.7775,480.0532 L27,482.8307 L27,484.6641 L29.75,484.6641 L29.75,482.8307 L31.5833,482.8307 L31.5833,481.9141 L31.6108,481.8866 C31.7483,481.9141 31.895,481.9141 32.0417,481.9141 C33.3067,481.9141 34.3333,480.8874 34.3333,479.6224 C34.3333,478.3574 33.3067,477.3307 32.0417,477.3307 M32.5,478.2474 C33.0042,478.2474 33.4167,478.6599 33.4167,479.1641 C33.4167,479.6682 33.0042,480.0807 32.5,480.0807 C31.9958,480.0807 31.5833,479.6682 31.5833,479.1641 C31.5833,478.6599 31.9958,478.2474 32.5,478.2474 " fill="#B8860B" style="stroke:;stroke-width:0.0;stroke-dasharray:;"/><text fill="#000000" font-family="sans-serif" font-size="11" font-weight="bold" lengthAdjust="spacingAndGlyphs" textLength="12" x="39.3333" y="484.8198">id</text><text fill="#000000" font-family="sans-serif" font-size="11" lengthAdjust="spacingAndGlyphs" textLength="25" x="51.3333" y="484.8198">: INT</text><path d="M29.75,490.1354 C28.2283,490.1354 27,491.3638 27,492.8854 C27,494.4071 28.2283,495.6354 29.75,495.6354 C31.2717,495.6354 32.5,494.4071 32.5,492.8854 C32.5,491.3638 31.2717,490.1354 29.75,490.1354 " fill="#EFEFEF" style="stroke:;stroke-width:0.0;stroke-dasharray:;"/><text fill="#000000" font-family="sans-serif" font-size="11" lengthAdjust="spacingAndGlyphs" textLength="56" x="39.3333" y="497.6245">count: INT</text><path d="M32.0417,502.9401 C30.7767,502.9401 29.75,503.9668 29.75,505.2318 C29.75,505.3784 29.75,505.5251 29.7775,505.6626 L27,508.4401 L27,510.2734 L29.75,510.2734 L29.75,508.4401 L31.5833,508.4401 L31.5833,507.5234 L31.6108,507.4959 C31.7483,507.5234 31.895,507.5234 32.0417,507.5234 C33.3067,507.5234 34.3333,506.4968 34.3333,505.2318 C34.3333,503.9668 33.3067,502.9401 32.0417,502.9401 M32.5,503.8568 C33.0042,503.8568 33.4167,504.2693 33.4167,504.7734 C33.4167,505.2776 33.0042,505.6901 32.5,505.6901 C31.9958,505.6901 31.5833,505.2776 31.5833,504.7734 C31.5833,504.2693 31.9958,503.8568 32.5,503.8568 " fill="#AAAAAA" style="stroke:;stroke-width:0.0;stroke-dasharray:;"/><text fill="#000000" font-family="sans-serif" font-size="11" lengthAdjust="spacingAndGlyphs" textLength="118" x="39.3333" y="510.4292">wargear_id: INT «FK»</text><path d="M32.0417,515.7448 C30.7767,515.7448 29.75,516.7715 29.75,518.0365 C29.75,518.1831 29.75,518.3298 29.7775,518.4673 L27,521.2448 L27,523.0781 L29.75,523.0781 L29.75,521.2448 L31.5833,521.2448 L31.5833,520.3281 L31.6108,520.3006 C31.7483,520.3281 31.895,520.3281 32.0417,520.3281 C33.3067,520.3281 34.3333,519.3015 34.3333,518.0365 C34.3333,516.7715 33.3067,515.7448 32.0417,515.7448 M32.5,516.6615 C33.0042,516.6615 33.4167,517.074 33.4167,517.5781 C33.4167,518.0823 33.0042,518.4948 32.5,518.4948 C31.9958,518.4948 31.5833,518.0823 31.5833,517.5781 C31.5833,517.074 31.9958,516.6615 32.5,516.6615 " fill="#AAAAAA" style="stroke:;stroke-width:0.0;stroke-dasharray:;"/><text fill="#000000" font-family="sans-serif" font-size="11" lengthAdjust="spacingAndGlyphs" textLength="87" x="39.3333" y="523.2339">unitId: INT «FK»</text><!--MD5=[d551081fe25060f62912fcaa27a6972d]
class unit_variant--><rect codeLine="72" fill="#FFFFFF" height="107.6328" id="unit_variant" rx="2.5" ry="2.5" style="stroke:#2E8B57;stroke-width:1.5;" width="217.3333" x="254" y="392.5"/><text fill="#000000" font-family="sans-serif" font-size="12" font-weight="bold" lengthAdjust="spacingAndGlyphs" textLength="83" x="321.1667" y="408.6387">UnitVariant</text><text fill="#808080" font-family="sans-serif" font-size="10" lengthAdjust="spacingAndGlyphs" textLength="72" x="326.6667" y="420.751">(unit_variant)</text><line style="stroke:#2E8B57;stroke-width:1.5;" x1="255" x2="470.3333" y1="428.1094" y2="428.1094"/><path d="M266.0417,434.8307 C264.7767,434.8307 263.75,435.8574 263.75,437.1224 C263.75,437.2691 263.75,437.4157 263.7775,437.5532 L261,440.3307 L261,442.1641 L263.75,442.1641 L263.75,440.3307 L265.5833,440.3307 L265.5833,439.4141 L265.6108,439.3866 C265.7483,439.4141 265.895,439.4141 266.0417,439.4141 C267.3067,439.4141 268.3333,438.3874 268.3333,437.1224 C268.3333,435.8574 267.3067,434.8307 266.0417,434.8307 M266.5,435.7474 C267.0042,435.7474 267.4167,436.1599 267.4167,436.6641 C267.4167,437.1682 267.0042,437.5807 266.5,437.5807 C265.9958,437.5807 265.5833,437.1682 265.5833,436.6641 C265.5833,436.1599 265.9958,435.7474 266.5,435.7474 " fill="#B8860B" style="stroke:;stroke-width:0.0;stroke-dasharray:;"/><text fill="#000000" font-family="sans-serif" font-size="11" font-weight="bold" lengthAdjust="spacingAndGlyphs" textLength="12" x="273.3333" y="442.3198">id</text><text fill="#000000" font-family="sans-serif" font-size="11" lengthAdjust="spacingAndGlyphs" textLength="25" x="285.3333" y="442.3198">: INT</text><path d="M263.75,447.6354 C262.2283,447.6354 261,448.8638 261,450.3854 C261,451.9071 262.2283,453.1354 263.75,453.1354 C265.2717,453.1354 266.5,451.9071 266.5,450.3854 C266.5,448.8638 265.2717,447.6354 263.75,447.6354 " fill="#EFEFEF" style="stroke:;stroke-width:0.0;stroke-dasharray:;"/><text fill="#000000" font-family="sans-serif" font-size="11" lengthAdjust="spacingAndGlyphs" textLength="122" x="273.3333" y="455.1245">numberOfModels: INT</text><path d="M263.75,460.4401 C262.2283,460.4401 261,461.6684 261,463.1901 C261,464.7118 262.2283,465.9401 263.75,465.9401 C265.2717,465.9401 266.5,464.7118 266.5,463.1901 C266.5,461.6684 265.2717,460.4401 263.75,460.4401 " fill="#EFEFEF" style="stroke:;stroke-width:0.0;stroke-dasharray:;"/><text fill="#000000" font-family="sans-serif" font-size="11" lengthAdjust="spacingAndGlyphs" textLength="86" x="273.3333" y="467.9292">pointValue: INT</text><path d="M266.0417,473.2448 C264.7767,473.2448 263.75,474.2715 263.75,475.5365 C263.75,475.6831 263.75,475.8298 263.7775,475.9673 L261,478.7448 L261,480.5781 L263.75,480.5781 L263.75,478.7448 L265.5833,478.7448 L265.5833,477.8281 L265.6108,477.8006 C265.7483,477.8281 265.895,477.8281 266.0417,477.8281 C267.3067,477.8281 268.3333,476.8015 268.3333,475.5365 C268.3333,474.2715 267.3067,473.2448 266.0417,473.2448 M266.5,474.1615 C267.0042,474.1615 267.4167,474.574 267.4167,475.0781 C267.4167,475.5823 267.0042,475.9948 266.5,475.9948 C265.9958,475.9948 265.5833,475.5823 265.5833,475.0781 C265.5833,474.574 265.9958,474.1615 266.5,474.1615 " fill="#AAAAAA" style="stroke:;stroke-width:0.0;stroke-dasharray:;"/><text fill="#000000" font-family="sans-serif" font-size="11" lengthAdjust="spacingAndGlyphs" textLength="192" x="273.3333" y="480.7339">armyName: NVARCHAR(256) «FK»</text><path d="M266.0417,486.0495 C264.7767,486.0495 263.75,487.0761 263.75,488.3411 C263.75,488.4878 263.75,488.6345 263.7775,488.772 L261,491.5495 L261,493.3828 L263.75,493.3828 L263.75,491.5495 L265.5833,491.5495 L265.5833,490.6328 L265.6108,490.6053 C265.7483,490.6328 265.895,490.6328 266.0417,490.6328 C267.3067,490.6328 268.3333,489.6061 268.3333,488.3411 C268.3333,487.0761 267.3067,486.0495 266.0417,486.0495 M266.5,486.9661 C267.0042,486.9661 267.4167,487.3786 267.4167,487.8828 C267.4167,488.387 267.0042,488.7995 266.5,488.7995 C265.9958,488.7995 265.5833,488.387 265.5833,487.8828 C265.5833,487.3786 265.9958,486.9661 266.5,486.9661 " fill="#AAAAAA" style="stroke:;stroke-width:0.0;stroke-dasharray:;"/><text fill="#000000" font-family="sans-serif" font-size="11" lengthAdjust="spacingAndGlyphs" textLength="93" x="273.3333" y="493.5386">unit_id: INT «FK»</text><!--MD5=[3beafc90d2a94ceedc69a5076aae0a28]
class army--><rect codeLine="80" fill="#FFFFFF" height="94.8281" id="army" rx="2.5" ry="2.5" style="stroke:#2E8B57;stroke-width:1.5;" width="231.3333" x="551.5" y="399"/><text fill="#000000" font-family="sans-serif" font-size="12" font-weight="bold" lengthAdjust="spacingAndGlyphs" textLength="36" x="649.1667" y="415.1387">Army</text><text fill="#808080" font-family="sans-serif" font-size="10" lengthAdjust="spacingAndGlyphs" textLength="36" x="649.1667" y="427.251">(army)</text><line style="stroke:#2E8B57;stroke-width:1.5;" x1="552.5" x2="781.8333" y1="434.6094" y2="434.6094"/><path d="M563.5417,441.3307 C562.2767,441.3307 561.25,442.3574 561.25,443.6224 C561.25,443.7691 561.25,443.9157 561.2775,444.0532 L558.5,446.8307 L558.5,448.6641 L561.25,448.6641 L561.25,446.8307 L563.0833,446.8307 L563.0833,445.9141 L563.1108,445.8866 C563.2483,445.9141 563.395,445.9141 563.5417,445.9141 C564.8067,445.9141 565.8333,444.8874 565.8333,443.6224 C565.8333,442.3574 564.8067,441.3307 563.5417,441.3307 M564,442.2474 C564.5042,442.2474 564.9167,442.6599 564.9167,443.1641 C564.9167,443.6682 564.5042,444.0807 564,444.0807 C563.4958,444.0807 563.0833,443.6682 563.0833,443.1641 C563.0833,442.6599 563.4958,442.2474 564,442.2474 " fill="#B8860B" style="stroke:;stroke-width:0.0;stroke-dasharray:;"/><text fill="#000000" font-family="sans-serif" font-size="11" font-weight="bold" lengthAdjust="spacingAndGlyphs" textLength="36" x="570.8333" y="448.8198">name</text><text fill="#000000" font-family="sans-serif" font-size="11" lengthAdjust="spacingAndGlyphs" textLength="98" x="606.8333" y="448.8198">: NVARCHAR(256)</text><path d="M561.25,454.1354 C559.7283,454.1354 558.5,455.3638 558.5,456.8854 C558.5,458.4071 559.7283,459.6354 561.25,459.6354 C562.7717,459.6354 564,458.4071 564,456.8854 C564,455.3638 562.7717,454.1354 561.25,454.1354 " fill="#EFEFEF" style="stroke:;stroke-width:0.0;stroke-dasharray:;"/><text fill="#000000" font-family="sans-serif" font-size="11" lengthAdjust="spacingAndGlyphs" textLength="86" x="570.8333" y="461.6245">pointValue: INT</text><path d="M563.5417,466.9401 C562.2767,466.9401 561.25,467.9668 561.25,469.2318 C561.25,469.3784 561.25,469.5251 561.2775,469.6626 L558.5,472.4401 L558.5,474.2734 L561.25,474.2734 L561.25,472.4401 L563.0833,472.4401 L563.0833,471.5234 L563.1108,471.4959 C563.2483,471.5234 563.395,471.5234 563.5417,471.5234 C564.8067,471.5234 565.8333,470.4968 565.8333,469.2318 C565.8333,467.9668 564.8067,466.9401 563.5417,466.9401 M564,467.8568 C564.5042,467.8568 564.9167,468.2693 564.9167,468.7734 C564.9167,469.2776 564.5042,469.6901 564,469.6901 C563.4958,469.6901 563.0833,469.2776 563.0833,468.7734 C563.0833,468.2693 563.4958,467.8568 564,467.8568 " fill="#AAAAAA" style="stroke:;stroke-width:0.0;stroke-dasharray:;"/><text fill="#000000" font-family="sans-serif" font-size="11" lengthAdjust="spacingAndGlyphs" textLength="206" x="570.8333" y="474.4292">userUsername: NVARCHAR(32) «FK»</text><path d="M563.5417,479.7448 C562.2767,479.7448 561.25,480.7715 561.25,482.0365 C561.25,482.1831 561.25,482.3298 561.2775,482.4673 L558.5,485.2448 L558.5,487.0781 L561.25,487.0781 L561.25,485.2448 L563.0833,485.2448 L563.0833,484.3281 L563.1108,484.3006 C563.2483,484.3281 563.395,484.3281 563.5417,484.3281 C564.8067,484.3281 565.8333,483.3015 565.8333,482.0365 C565.8333,480.7715 564.8067,479.7448 563.5417,479.7448 M564,480.6615 C564.5042,480.6615 564.9167,481.074 564.9167,481.5781 C564.9167,482.0823 564.5042,482.4948 564,482.4948 C563.4958,482.4948 563.0833,482.0823 563.0833,481.5781 C563.0833,481.074 563.4958,480.6615 564,480.6615 " fill="#AAAAAA" style="stroke:;stroke-width:0.0;stroke-dasharray:;"/><text fill="#000000" font-family="sans-serif" font-size="11" lengthAdjust="spacingAndGlyphs" textLength="185" x="570.8333" y="487.2339">forceName: NVARCHAR(32) «FK»</text><!--MD5=[e59cf999063292dce8d6ea34dd10a338]
class user--><rect codeLine="87" fill="#FFFFFF" height="82.0234" id="user" rx="2.5" ry="2.5" style="stroke:#2E8B57;stroke-width:1.5;" width="197.3333" x="845" y="281.5"/><text fill="#000000" font-family="sans-serif" font-size="12" font-weight="bold" lengthAdjust="spacingAndGlyphs" textLength="33" x="927.1667" y="297.6387">User</text><text fill="#808080" font-family="sans-serif" font-size="10" lengthAdjust="spacingAndGlyphs" textLength="31" x="928.1667" y="309.751">(user)</text><line style="stroke:#2E8B57;stroke-width:1.5;" x1="846" x2="1041.3333" y1="317.1094" y2="317.1094"/><path d="M857.0417,323.8307 C855.7767,323.8307 854.75,324.8574 854.75,326.1224 C854.75,326.2691 854.75,326.4157 854.7775,326.5532 L852,329.3307 L852,331.1641 L854.75,331.1641 L854.75,329.3307 L856.5833,329.3307 L856.5833,328.4141 L856.6108,328.3866 C856.7483,328.4141 856.895,328.4141 857.0417,328.4141 C858.3067,328.4141 859.3333,327.3874 859.3333,326.1224 C859.3333,324.8574 858.3067,323.8307 857.0417,323.8307 M857.5,324.7474 C858.0042,324.7474 858.4167,325.1599 858.4167,325.6641 C858.4167,326.1682 858.0042,326.5807 857.5,326.5807 C856.9958,326.5807 856.5833,326.1682 856.5833,325.6641 C856.5833,325.1599 856.9958,324.7474 857.5,324.7474 " fill="#B8860B" style="stroke:;stroke-width:0.0;stroke-dasharray:;"/><text fill="#000000" font-family="sans-serif" font-size="11" font-weight="bold" lengthAdjust="spacingAndGlyphs" textLength="65" x="864.3333" y="331.3198">username</text><text fill="#000000" font-family="sans-serif" font-size="11" lengthAdjust="spacingAndGlyphs" textLength="91" x="929.3333" y="331.3198">: NVARCHAR(32)</text><path d="M854.75,336.6354 C853.2283,336.6354 852,337.8638 852,339.3854 C852,340.9071 853.2283,342.1354 854.75,342.1354 C856.2717,342.1354 857.5,340.9071 857.5,339.3854 C857.5,337.8638 856.2717,336.6354 854.75,336.6354 " fill="#EFEFEF" style="stroke:;stroke-width:0.0;stroke-dasharray:;"/><text fill="#000000" font-family="sans-serif" font-size="11" lengthAdjust="spacingAndGlyphs" textLength="130" x="864.3333" y="344.1245">email: NVARCHAR(254)</text><path d="M854.75,349.4401 C853.2283,349.4401 852,350.6684 852,352.1901 C852,353.7118 853.2283,354.9401 854.75,354.9401 C856.2717,354.9401 857.5,353.7118 857.5,352.1901 C857.5,350.6684 856.2717,349.4401 854.75,349.4401 " fill="#EFEFEF" style="stroke:;stroke-width:0.0;stroke-dasharray:;"/><text fill="#000000" font-family="sans-serif" font-size="11" lengthAdjust="spacingAndGlyphs" textLength="172" x="864.3333" y="356.9292">passwordHash: NVARCHAR(60)</text><!--MD5=[08c8db3cd1de498b9a16d89735c08598]
class auth_token--><rect codeLine="93" fill="#FFFFFF" height="82.0234" id="auth_token" rx="2.5" ry="2.5" style="stroke:#2E8B57;stroke-width:1.5;" width="236.3333" x="549" y="281.5"/><text fill="#000000" font-family="sans-serif" font-size="12" font-weight="bold" lengthAdjust="spacingAndGlyphs" textLength="79" x="627.6667" y="297.6387">AuthToken</text><text fill="#808080" font-family="sans-serif" font-size="10" lengthAdjust="spacingAndGlyphs" textLength="69" x="632.6667" y="309.751">(auth_token)</text><line style="stroke:#2E8B57;stroke-width:1.5;" x1="550" x2="784.3333" y1="317.1094" y2="317.1094"/><path d="M561.0417,323.8307 C559.7767,323.8307 558.75,324.8574 558.75,326.1224 C558.75,326.2691 558.75,326.4157 558.7775,326.5532 L556,329.3307 L556,331.1641 L558.75,331.1641 L558.75,329.3307 L560.5833,329.3307 L560.5833,328.4141 L560.6108,328.3866 C560.7483,328.4141 560.895,328.4141 561.0417,328.4141 C562.3067,328.4141 563.3333,327.3874 563.3333,326.1224 C563.3333,324.8574 562.3067,323.8307 561.0417,323.8307 M561.5,324.7474 C562.0042,324.7474 562.4167,325.1599 562.4167,325.6641 C562.4167,326.1682 562.0042,326.5807 561.5,326.5807 C560.9958,326.5807 560.5833,326.1682 560.5833,325.6641 C560.5833,325.1599 560.9958,324.7474 561.5,324.7474 " fill="#B8860B" style="stroke:;stroke-width:0.0;stroke-dasharray:;"/><text fill="#000000" font-family="sans-serif" font-size="11" font-weight="bold" lengthAdjust="spacingAndGlyphs" textLength="39" x="568.3333" y="331.3198">token</text><text fill="#000000" font-family="sans-serif" font-size="11" lengthAdjust="spacingAndGlyphs" textLength="91" x="607.3333" y="331.3198">: NVARCHAR(60)</text><path d="M558.75,336.6354 C557.2283,336.6354 556,337.8638 556,339.3854 C556,340.9071 557.2283,342.1354 558.75,342.1354 C560.2717,342.1354 561.5,340.9071 561.5,339.3854 C561.5,337.8638 560.2717,336.6354 558.75,336.6354 " fill="#EFEFEF" style="stroke:;stroke-width:0.0;stroke-dasharray:;"/><text fill="#000000" font-family="sans-serif" font-size="11" lengthAdjust="spacingAndGlyphs" textLength="72" x="568.3333" y="344.1245">revoked: BIT</text><path d="M561.0417,349.4401 C559.7767,349.4401 558.75,350.4668 558.75,351.7318 C558.75,351.8784 558.75,352.0251 558.7775,352.1626 L556,354.9401 L556,356.7734 L558.75,356.7734 L558.75,354.9401 L560.5833,354.9401 L560.5833,354.0234 L560.6108,353.9959 C560.7483,354.0234 560.895,354.0234 561.0417,354.0234 C562.3067,354.0234 563.3333,352.9968 563.3333,351.7318 C563.3333,350.4668 562.3067,349.4401 561.0417,349.4401 M561.5,350.3568 C562.0042,350.3568 562.4167,350.7693 562.4167,351.2734 C562.4167,351.7776 562.0042,352.1901 561.5,352.1901 C560.9958,352.1901 560.5833,351.7776 560.5833,351.2734 C560.5833,350.7693 560.9958,350.3568 561.5,350.3568 " fill="#AAAAAA" style="stroke:;stroke-width:0.0;stroke-dasharray:;"/><text fill="#000000" font-family="sans-serif" font-size="11" lengthAdjust="spacingAndGlyphs" textLength="211" x="568.3333" y="356.9292">user_username: NVARCHAR(32) «FK»</text><!--MD5=[6e4ef365ea518b024820d9bab03cc449]
class unit_paint_schemes_paint_scheme--><rect codeLine="99" fill="#FFFFFF" height="69.2188" id="unit_paint_schemes_paint_scheme" rx="2.5" ry="2.5" style="stroke:#2E8B57;stroke-width:1.5;" width="253" x="236" y="241"/><text fill="#000000" font-family="sans-serif" font-size="12" font-weight="bold" lengthAdjust="spacingAndGlyphs" textLength="247" x="239" y="257.1387">unit_paint_schemes_paint_scheme</text><text fill="#808080" font-family="sans-serif" font-size="10" lengthAdjust="spacingAndGlyphs" textLength="196" x="264.5" y="269.251">(unit_paint_schemes_paint_scheme)</text><line style="stroke:#2E8B57;stroke-width:1.5;" x1="237" x2="488" y1="276.6094" y2="276.6094"/><path d="M248.0417,283.3307 C246.7767,283.3307 245.75,284.3574 245.75,285.6224 C245.75,285.7691 245.75,285.9157 245.7775,286.0532 L243,288.8307 L243,290.6641 L245.75,290.6641 L245.75,288.8307 L247.5833,288.8307 L247.5833,287.9141 L247.6108,287.8866 C247.7483,287.9141 247.895,287.9141 248.0417,287.9141 C249.3067,287.9141 250.3333,286.8874 250.3333,285.6224 C250.3333,284.3574 249.3067,283.3307 248.0417,283.3307 M248.5,284.2474 C249.0042,284.2474 249.4167,284.6599 249.4167,285.1641 C249.4167,285.6682 249.0042,286.0807 248.5,286.0807 C247.9958,286.0807 247.5833,285.6682 247.5833,285.1641 C247.5833,284.6599 247.9958,284.2474 248.5,284.2474 " fill="#B8860B" style="stroke:;stroke-width:0.0;stroke-dasharray:;"/><text fill="#000000" font-family="sans-serif" font-size="11" font-weight="bold" lengthAdjust="spacingAndGlyphs" textLength="39" x="255.3333" y="290.8198">unitId</text><text fill="#000000" font-family="sans-serif" font-size="11" lengthAdjust="spacingAndGlyphs" textLength="25" x="294.3333" y="290.8198">: INT</text><path d="M248.0417,296.1354 C246.7767,296.1354 245.75,297.1621 245.75,298.4271 C245.75,298.5738 245.75,298.7204 245.7775,298.8579 L243,301.6354 L243,303.4688 L245.75,303.4688 L245.75,301.6354 L247.5833,301.6354 L247.5833,300.7188 L247.6108,300.6913 C247.7483,300.7188 247.895,300.7188 248.0417,300.7188 C249.3067,300.7188 250.3333,299.6921 250.3333,298.4271 C250.3333,297.1621 249.3067,296.1354 248.0417,296.1354 M248.5,297.0521 C249.0042,297.0521 249.4167,297.4646 249.4167,297.9688 C249.4167,298.4729 249.0042,298.8854 248.5,298.8854 C247.9958,298.8854 247.5833,298.4729 247.5833,297.9688 C247.5833,297.4646 247.9958,297.0521 248.5,297.0521 " fill="#B8860B" style="stroke:;stroke-width:0.0;stroke-dasharray:;"/><text fill="#000000" font-family="sans-serif" font-size="11" font-weight="bold" lengthAdjust="spacingAndGlyphs" textLength="98" x="255.3333" y="303.6245">paintSchemeId</text><text fill="#000000" font-family="sans-serif" font-size="11" lengthAdjust="spacingAndGlyphs" textLength="25" x="353.3333" y="303.6245">: INT</text><!--MD5=[b90c1516bef0449f0c30f9c12a7d9412]
class unit_wargear_wargear--><rect codeLine="104" fill="#FFFFFF" height="69.2188" id="unit_wargear_wargear" rx="2.5" ry="2.5" style="stroke:#2E8B57;stroke-width:1.5;" width="169" x="7" y="600"/><text fill="#000000" font-family="sans-serif" font-size="12" font-weight="bold" lengthAdjust="spacingAndGlyphs" textLength="163" x="10" y="616.1387">unit_wargear_wargear</text><text fill="#808080" font-family="sans-serif" font-size="10" lengthAdjust="spacingAndGlyphs" textLength="127" x="28" y="628.251">(unit_wargear_wargear)</text><line style="stroke:#2E8B57;stroke-width:1.5;" x1="8" x2="175" y1="635.6094" y2="635.6094"/><path d="M19.0417,642.3307 C17.7767,642.3307 16.75,643.3574 16.75,644.6224 C16.75,644.7691 16.75,644.9157 16.7775,645.0532 L14,647.8307 L14,649.6641 L16.75,649.6641 L16.75,647.8307 L18.5833,647.8307 L18.5833,646.9141 L18.6108,646.8866 C18.7483,646.9141 18.895,646.9141 19.0417,646.9141 C20.3067,646.9141 21.3333,645.8874 21.3333,644.6224 C21.3333,643.3574 20.3067,642.3307 19.0417,642.3307 M19.5,643.2474 C20.0042,643.2474 20.4167,643.6599 20.4167,644.1641 C20.4167,644.6682 20.0042,645.0807 19.5,645.0807 C18.9958,645.0807 18.5833,644.6682 18.5833,644.1641 C18.5833,643.6599 18.9958,643.2474 19.5,643.2474 " fill="#B8860B" style="stroke:;stroke-width:0.0;stroke-dasharray:;"/><text fill="#000000" font-family="sans-serif" font-size="11" font-weight="bold" lengthAdjust="spacingAndGlyphs" textLength="39" x="26.3333" y="649.8198">unitId</text><text fill="#000000" font-family="sans-serif" font-size="11" lengthAdjust="spacingAndGlyphs" textLength="25" x="65.3333" y="649.8198">: INT</text><path d="M19.0417,655.1354 C17.7767,655.1354 16.75,656.1621 16.75,657.4271 C16.75,657.5738 16.75,657.7204 16.7775,657.8579 L14,660.6354 L14,662.4688 L16.75,662.4688 L16.75,660.6354 L18.5833,660.6354 L18.5833,659.7188 L18.6108,659.6913 C18.7483,659.7188 18.895,659.7188 19.0417,659.7188 C20.3067,659.7188 21.3333,658.6921 21.3333,657.4271 C21.3333,656.1621 20.3067,655.1354 19.0417,655.1354 M19.5,656.0521 C20.0042,656.0521 20.4167,656.4646 20.4167,656.9688 C20.4167,657.4729 20.0042,657.8854 19.5,657.8854 C18.9958,657.8854 18.5833,657.4729 18.5833,656.9688 C18.5833,656.4646 18.9958,656.0521 19.5,656.0521 " fill="#B8860B" style="stroke:;stroke-width:0.0;stroke-dasharray:;"/><text fill="#000000" font-family="sans-serif" font-size="11" font-weight="bold" lengthAdjust="spacingAndGlyphs" textLength="66" x="26.3333" y="662.6245">wargearId</text><text fill="#000000" font-family="sans-serif" font-size="11" lengthAdjust="spacingAndGlyphs" textLength="25" x="92.3333" y="662.6245">: INT</text><!--MD5=[2c34311f12d02fb59efe99416f56d977]
class user_paints_paint--><rect codeLine="109" fill="#FFFFFF" height="69.2188" id="user_paints_paint" rx="2.5" ry="2.5" style="stroke:#2E8B57;stroke-width:1.5;" width="211.3333" x="257" y="7"/><text fill="#000000" font-family="sans-serif" font-size="12" font-weight="bold" lengthAdjust="spacingAndGlyphs" textLength="129" x="298.1667" y="23.1387">user_paints_paint</text><text fill="#808080" font-family="sans-serif" font-size="10" lengthAdjust="spacingAndGlyphs" textLength="102" x="311.6667" y="35.251">(user_paints_paint)</text><line style="stroke:#2E8B57;stroke-width:1.5;" x1="258" x2="467.3333" y1="42.6094" y2="42.6094"/><path d="M269.0417,49.3307 C267.7767,49.3307 266.75,50.3574 266.75,51.6224 C266.75,51.7691 266.75,51.9157 266.7775,52.0532 L264,54.8307 L264,56.6641 L266.75,56.6641 L266.75,54.8307 L268.5833,54.8307 L268.5833,53.9141 L268.6108,53.8866 C268.7483,53.9141 268.895,53.9141 269.0417,53.9141 C270.3067,53.9141 271.3333,52.8874 271.3333,51.6224 C271.3333,50.3574 270.3067,49.3307 269.0417,49.3307 M269.5,50.2474 C270.0042,50.2474 270.4167,50.6599 270.4167,51.1641 C270.4167,51.6682 270.0042,52.0807 269.5,52.0807 C268.9958,52.0807 268.5833,51.6682 268.5833,51.1641 C268.5833,50.6599 268.9958,50.2474 269.5,50.2474 " fill="#B8860B" style="stroke:;stroke-width:0.0;stroke-dasharray:;"/><text fill="#000000" font-family="sans-serif" font-size="11" font-weight="bold" lengthAdjust="spacingAndGlyphs" textLength="95" x="276.3333" y="56.8198">userUsername</text><text fill="#000000" font-family="sans-serif" font-size="11" lengthAdjust="spacingAndGlyphs" textLength="91" x="371.3333" y="56.8198">: NVARCHAR(32)</text><path d="M269.0417,62.1354 C267.7767,62.1354 266.75,63.1621 266.75,64.4271 C266.75,64.5738 266.75,64.7204 266.7775,64.8579 L264,67.6354 L264,69.4688 L266.75,69.4688 L266.75,67.6354 L268.5833,67.6354 L268.5833,66.7188 L268.6108,66.6913 C268.7483,66.7188 268.895,66.7188 269.0417,66.7188 C270.3067,66.7188 271.3333,65.6921 271.3333,64.4271 C271.3333,63.1621 270.3067,62.1354 269.0417,62.1354 M269.5,63.0521 C270.0042,63.0521 270.4167,63.4646 270.4167,63.9688 C270.4167,64.4729 270.0042,64.8854 269.5,64.8854 C268.9958,64.8854 268.5833,64.4729 268.5833,63.9688 C268.5833,63.4646 268.9958,63.0521 269.5,63.0521 " fill="#B8860B" style="stroke:;stroke-width:0.0;stroke-dasharray:;"/><text fill="#000000" font-family="sans-serif" font-size="11" font-weight="bold" lengthAdjust="spacingAndGlyphs" textLength="47" x="276.3333" y="69.6245">paintId</text><text fill="#000000" font-family="sans-serif" font-size="11" lengthAdjust="spacingAndGlyphs" textLength="25" x="323.3333" y="69.6245">: INT</text><!--MD5=[d84d3d2c6d3c644034c0f41b4284f0cd]
link paint_scheme_part to paint--><path codeLine="114" d="M439.215,120.25 C439.215,120.25 584.407,120.25 584.407,120.25 " fill="none" id="paint_scheme_part-paint" style="stroke:#2E8B57;stroke-width:1.0;"/><line style="stroke:#2E8B57;stroke-width:1.0;" x1="588.407" x2="588.407" y1="116.25" y2="124.25"/><line style="stroke:#2E8B57;stroke-width:1.0;" x1="585.407" x2="585.407" y1="116.25" y2="124.25"/><line style="stroke:#2E8B57;stroke-width:1.0;" x1="584.407" x2="592.407" y1="120.25" y2="120.25"/><line style="stroke:#2E8B57;stroke-width:1.0;" x1="439.215" x2="431.215" y1="120.25" y2="126.25"/><line style="stroke:#2E8B57;stroke-width:1.0;" x1="439.215" x2="431.215" y1="120.25" y2="114.25"/><line style="stroke:#2E8B57;stroke-width:1.0;" x1="439.215" x2="431.215" y1="120.25" y2="120.25"/><ellipse cx="445.215" cy="120.25" fill="none" rx="4" ry="4" style="stroke:#2E8B57;stroke-width:1.0;"/><!--MD5=[51804fdd7e52eee0215de7376667f74c]
link paint_scheme_part to paint_scheme--><path codeLine="115" d="M439.215,185.25 C439.215,185.25 579.226,185.25 579.226,185.25 " fill="none" id="paint_scheme_part-paint_scheme" style="stroke:#2E8B57;stroke-width:1.0;"/><line style="stroke:#2E8B57;stroke-width:1.0;" x1="583.226" x2="583.226" y1="181.25" y2="189.25"/><line style="stroke:#2E8B57;stroke-width:1.0;" x1="580.226" x2="580.226" y1="181.25" y2="189.25"/><line style="stroke:#2E8B57;stroke-width:1.0;" x1="579.226" x2="587.226" y1="185.25" y2="185.25"/><line style="stroke:#2E8B57;stroke-width:1.0;" x1="439.215" x2="431.215" y1="185.25" y2="191.25"/><line style="stroke:#2E8B57;stroke-width:1.0;" x1="439.215" x2="431.215" y1="185.25" y2="179.25"/><line style="stroke:#2E8B57;stroke-width:1.0;" x1="439.215" x2="431.215" y1="185.25" y2="185.25"/><ellipse cx="445.215" cy="185.25" fill="none" rx="4" ry="4" style="stroke:#2E8B57;stroke-width:1.0;"/><!--MD5=[bb42a4b5aa7add7fe8bba3f898fd8dbd]
link unit to force--><path codeLine="116" d="M780.322,538.75 C780.322,538.75 859.269,538.75 859.269,538.75 " fill="none" id="unit-force" style="stroke:#2E8B57;stroke-width:1.0;"/><line style="stroke:#2E8B57;stroke-width:1.0;" x1="863.269" x2="863.269" y1="534.75" y2="542.75"/><line style="stroke:#2E8B57;stroke-width:1.0;" x1="860.269" x2="860.269" y1="534.75" y2="542.75"/><line style="stroke:#2E8B57;stroke-width:1.0;" x1="859.269" x2="867.269" y1="538.75" y2="538.75"/><line style="stroke:#2E8B57;stroke-width:1.0;" x1="780.322" x2="772.322" y1="538.75" y2="544.75"/><line style="stroke:#2E8B57;stroke-width:1.0;" x1="780.322" x2="772.322" y1="538.75" y2="532.75"/><line style="stroke:#2E8B57;stroke-width:1.0;" x1="780.322" x2="772.322" y1="538.75" y2="538.75"/><ellipse cx="786.322" cy="538.75" fill="none" rx="4" ry="4" style="stroke:#2E8B57;stroke-width:1.0;"/><!--MD5=[a284d820847f0c5e55abe56a1f7247eb]
link wargear_variant to wargear--><path codeLine="117" d="M171.189,519.5 C171.189,519.5 363,519.5 363,519.5 C363,519.5 363,527.982 363,527.982 " fill="none" id="wargear_variant-wargear" style="stroke:#2E8B57;stroke-width:1.0;"/><line style="stroke:#2E8B57;stroke-width:1.0;" x1="367" x2="359" y1="531.982" y2="531.982"/><line style="stroke:#2E8B57;stroke-width:1.0;" x1="367" x2="359" y1="528.982" y2="528.982"/><line style="stroke:#2E8B57;stroke-width:1.0;" x1="363" x2="363" y1="527.982" y2="535.982"/><line style="stroke:#2E8B57;stroke-width:1.0;" x1="171.189" x2="163.189" y1="519.5" y2="525.5"/><line style="stroke:#2E8B57;stroke-width:1.0;" x1="171.189" x2="163.189" y1="519.5" y2="513.5"/><line style="stroke:#2E8B57;stroke-width:1.0;" x1="171.189" x2="163.189" y1="519.5" y2="519.5"/><ellipse cx="177.189" cy="519.5" fill="none" rx="4" ry="4" style="stroke:#2E8B57;stroke-width:1.0;"/><!--MD5=[ddb1fd4eac3b4cd2ee2886cb7443e9c2]
link wargear_variant to unit_variant--><path codeLine="118" d="M171.057,467.75 C171.057,467.75 245.99,467.75 245.99,467.75 " fill="none" id="wargear_variant-unit_variant" style="stroke:#2E8B57;stroke-width:1.0;"/><line style="stroke:#2E8B57;stroke-width:1.0;" x1="249.99" x2="249.99" y1="463.75" y2="471.75"/><line style="stroke:#2E8B57;stroke-width:1.0;" x1="246.99" x2="246.99" y1="463.75" y2="471.75"/><line style="stroke:#2E8B57;stroke-width:1.0;" x1="245.99" x2="253.99" y1="467.75" y2="467.75"/><line style="stroke:#2E8B57;stroke-width:1.0;" x1="171.057" x2="163.057" y1="467.75" y2="473.75"/><line style="stroke:#2E8B57;stroke-width:1.0;" x1="171.057" x2="163.057" y1="467.75" y2="461.75"/><line style="stroke:#2E8B57;stroke-width:1.0;" x1="171.057" x2="163.057" y1="467.75" y2="467.75"/><ellipse cx="177.057" cy="467.75" fill="none" rx="4" ry="4" style="stroke:#2E8B57;stroke-width:1.0;"/><!--MD5=[24cd72d0ee10b6fbe1168e42fe208aa0]
link unit_variant to army--><path codeLine="119" d="M479.142,446.5 C479.142,446.5 543.442,446.5 543.442,446.5 " fill="none" id="unit_variant-army" style="stroke:#2E8B57;stroke-width:1.0;"/><line style="stroke:#2E8B57;stroke-width:1.0;" x1="547.442" x2="547.442" y1="442.5" y2="450.5"/><line style="stroke:#2E8B57;stroke-width:1.0;" x1="544.442" x2="544.442" y1="442.5" y2="450.5"/><line style="stroke:#2E8B57;stroke-width:1.0;" x1="543.442" x2="551.442" y1="446.5" y2="446.5"/><line style="stroke:#2E8B57;stroke-width:1.0;" x1="479.142" x2="471.142" y1="446.5" y2="452.5"/><line style="stroke:#2E8B57;stroke-width:1.0;" x1="479.142" x2="471.142" y1="446.5" y2="440.5"/><line style="stroke:#2E8B57;stroke-width:1.0;" x1="479.142" x2="471.142" y1="446.5" y2="446.5"/><ellipse cx="485.142" cy="446.5" fill="none" rx="4" ry="4" style="stroke:#2E8B57;stroke-width:1.0;"/><!--MD5=[fa703c3c907c8a04f9501b2d374fab01]
link unit_variant to unit--><path codeLine="120" d="M454,508.814 C454,508.814 454,599.3333 454,599.3333 C454,599.3333 553.748,599.3333 553.748,599.3333 " fill="none" id="unit_variant-unit" style="stroke:#2E8B57;stroke-width:1.0;"/><line style="stroke:#2E8B57;stroke-width:1.0;" x1="557.748" x2="557.748" y1="595.3333" y2="603.3333"/><line style="stroke:#2E8B57;stroke-width:1.0;" x1="554.748" x2="554.748" y1="595.3333" y2="603.3333"/><line style="stroke:#2E8B57;stroke-width:1.0;" x1="553.748" x2="561.748" y1="599.3333" y2="599.3333"/><line style="stroke:#2E8B57;stroke-width:1.0;" x1="454" x2="448" y1="508.814" y2="500.814"/><line style="stroke:#2E8B57;stroke-width:1.0;" x1="454" x2="460" y1="508.814" y2="500.814"/><line style="stroke:#2E8B57;stroke-width:1.0;" x1="454" x2="454" y1="508.814" y2="500.814"/><ellipse cx="454" cy="514.814" fill="none" rx="4" ry="4" style="stroke:#2E8B57;stroke-width:1.0;"/><!--MD5=[61cf6c37c3e0eb62e651aa2ee21fb127]
link army to user--><path codeLine="121" d="M790.725,445.75 C790.725,445.75 857,445.75 857,445.75 C857,445.75 857,371.54 857,371.54 " fill="none" id="army-user" style="stroke:#2E8B57;stroke-width:1.0;"/><line style="stroke:#2E8B57;stroke-width:1.0;" x1="853" x2="861" y1="367.54" y2="367.54"/><line style="stroke:#2E8B57;stroke-width:1.0;" x1="853" x2="861" y1="370.54" y2="370.54"/><line style="stroke:#2E8B57;stroke-width:1.0;" x1="857" x2="857" y1="371.54" y2="363.54"/><line style="stroke:#2E8B57;stroke-width:1.0;" x1="790.725" x2="782.725" y1="445.75" y2="451.75"/><line style="stroke:#2E8B57;stroke-width:1.0;" x1="790.725" x2="782.725" y1="445.75" y2="439.75"/><line style="stroke:#2E8B57;stroke-width:1.0;" x1="790.725" x2="782.725" y1="445.75" y2="445.75"/><ellipse cx="796.725" cy="445.75" fill="none" rx="4" ry="4" style="stroke:#2E8B57;stroke-width:1.0;"/><!--MD5=[1a0ab25b4b7fba090539ecc8a8d05ae8]
link army to force--><path codeLine="122" d="M778,502.303 C778,502.303 778,510 778,510 C778,510 859.048,510 859.048,510 " fill="none" id="army-force" style="stroke:#2E8B57;stroke-width:1.0;"/><line style="stroke:#2E8B57;stroke-width:1.0;" x1="863.048" x2="863.048" y1="506" y2="514"/><line style="stroke:#2E8B57;stroke-width:1.0;" x1="860.048" x2="860.048" y1="506" y2="514"/><line style="stroke:#2E8B57;stroke-width:1.0;" x1="859.048" x2="867.048" y1="510" y2="510"/><line style="stroke:#2E8B57;stroke-width:1.0;" x1="778" x2="772" y1="502.303" y2="494.303"/><line style="stroke:#2E8B57;stroke-width:1.0;" x1="778" x2="784" y1="502.303" y2="494.303"/><line style="stroke:#2E8B57;stroke-width:1.0;" x1="778" x2="778" y1="502.303" y2="494.303"/><ellipse cx="778" cy="508.303" fill="none" rx="4" ry="4" style="stroke:#2E8B57;stroke-width:1.0;"/><!--MD5=[3d58c64899f79338742d0feef0054636]
link auth_token to user--><path codeLine="123" d="M793.063,322.5 C793.063,322.5 836.958,322.5 836.958,322.5 " fill="none" id="auth_token-user" style="stroke:#2E8B57;stroke-width:1.0;"/><line style="stroke:#2E8B57;stroke-width:1.0;" x1="840.958" x2="840.958" y1="318.5" y2="326.5"/><line style="stroke:#2E8B57;stroke-width:1.0;" x1="837.958" x2="837.958" y1="318.5" y2="326.5"/><line style="stroke:#2E8B57;stroke-width:1.0;" x1="836.958" x2="844.958" y1="322.5" y2="322.5"/><line style="stroke:#2E8B57;stroke-width:1.0;" x1="793.063" x2="785.063" y1="322.5" y2="328.5"/><line style="stroke:#2E8B57;stroke-width:1.0;" x1="793.063" x2="785.063" y1="322.5" y2="316.5"/><line style="stroke:#2E8B57;stroke-width:1.0;" x1="793.063" x2="785.063" y1="322.5" y2="322.5"/><ellipse cx="799.063" cy="322.5" fill="none" rx="4" ry="4" style="stroke:#2E8B57;stroke-width:1.0;"/><!--MD5=[5bffbb298804bf68381b0ae743f19a1d]
link unit_paint_schemes_paint_scheme to unit--><path codeLine="124" d="M480,318.163 C480,318.163 480,567.667 480,567.667 C480,567.667 553.749,567.667 553.749,567.667 " fill="none" id="unit_paint_schemes_paint_scheme-unit" style="stroke:#2E8B57;stroke-width:1.0;"/><line style="stroke:#2E8B57;stroke-width:1.0;" x1="557.749" x2="557.749" y1="563.667" y2="571.667"/><line style="stroke:#2E8B57;stroke-width:1.0;" x1="554.749" x2="554.749" y1="563.667" y2="571.667"/><line style="stroke:#2E8B57;stroke-width:1.0;" x1="553.749" x2="561.749" y1="567.667" y2="567.667"/><line style="stroke:#2E8B57;stroke-width:1.0;" x1="480" x2="474" y1="318.163" y2="310.163"/><line style="stroke:#2E8B57;stroke-width:1.0;" x1="480" x2="486" y1="318.163" y2="310.163"/><line style="stroke:#2E8B57;stroke-width:1.0;" x1="480" x2="480" y1="318.163" y2="310.163"/><line style="stroke:#2E8B57;stroke-width:1.0;" x1="476" x2="484" y1="320.163" y2="320.163"/><!--MD5=[d5c2e81e65b4594e5f4a9bd9f675e95e]
link unit_paint_schemes_paint_scheme to paint_scheme--><path codeLine="125" d="M479,232.815 C479,232.815 479,223.5 479,223.5 C479,223.5 579.271,223.5 579.271,223.5 " fill="none" id="unit_paint_schemes_paint_scheme-paint_scheme" style="stroke:#2E8B57;stroke-width:1.0;"/><line style="stroke:#2E8B57;stroke-width:1.0;" x1="583.271" x2="583.271" y1="219.5" y2="227.5"/><line style="stroke:#2E8B57;stroke-width:1.0;" x1="580.271" x2="580.271" y1="219.5" y2="227.5"/><line style="stroke:#2E8B57;stroke-width:1.0;" x1="579.271" x2="587.271" y1="223.5" y2="223.5"/><line style="stroke:#2E8B57;stroke-width:1.0;" x1="479" x2="485" y1="232.815" y2="240.815"/><line style="stroke:#2E8B57;stroke-width:1.0;" x1="479" x2="473" y1="232.815" y2="240.815"/><line style="stroke:#2E8B57;stroke-width:1.0;" x1="479" x2="479" y1="232.815" y2="240.815"/><line style="stroke:#2E8B57;stroke-width:1.0;" x1="483" x2="475" y1="230.815" y2="230.815"/><!--MD5=[f1bbecd52dd0eed4931fc5d454c93399]
link unit_wargear_wargear to unit--><path codeLine="126" d="M184.108,646.5 C184.108,646.5 553.823,646.5 553.823,646.5 " fill="none" id="unit_wargear_wargear-unit" style="stroke:#2E8B57;stroke-width:1.0;"/><line style="stroke:#2E8B57;stroke-width:1.0;" x1="557.823" x2="557.823" y1="642.5" y2="650.5"/><line style="stroke:#2E8B57;stroke-width:1.0;" x1="554.823" x2="554.823" y1="642.5" y2="650.5"/><line style="stroke:#2E8B57;stroke-width:1.0;" x1="553.823" x2="561.823" y1="646.5" y2="646.5"/><line style="stroke:#2E8B57;stroke-width:1.0;" x1="184.108" x2="176.108" y1="646.5" y2="652.5"/><line style="stroke:#2E8B57;stroke-width:1.0;" x1="184.108" x2="176.108" y1="646.5" y2="640.5"/><line style="stroke:#2E8B57;stroke-width:1.0;" x1="184.108" x2="176.108" y1="646.5" y2="646.5"/><line style="stroke:#2E8B57;stroke-width:1.0;" x1="186.108" x2="186.108" y1="650.5" y2="642.5"/><!--MD5=[ad0d98b8f0616d9c75d130ae10a12f42]
link unit_wargear_wargear to wargear--><path codeLine="127" d="M184.131,615.5 C184.131,615.5 279.676,615.5 279.676,615.5 " fill="none" id="unit_wargear_wargear-wargear" style="stroke:#2E8B57;stroke-width:1.0;"/><line style="stroke:#2E8B57;stroke-width:1.0;" x1="283.676" x2="283.676" y1="611.5" y2="619.5"/><line style="stroke:#2E8B57;stroke-width:1.0;" x1="280.676" x2="280.676" y1="611.5" y2="619.5"/><line style="stroke:#2E8B57;stroke-width:1.0;" x1="279.676" x2="287.676" y1="615.5" y2="615.5"/><line style="stroke:#2E8B57;stroke-width:1.0;" x1="184.131" x2="176.131" y1="615.5" y2="621.5"/><line style="stroke:#2E8B57;stroke-width:1.0;" x1="184.131" x2="176.131" y1="615.5" y2="609.5"/><line style="stroke:#2E8B57;stroke-width:1.0;" x1="184.131" x2="176.131" y1="615.5" y2="615.5"/><line style="stroke:#2E8B57;stroke-width:1.0;" x1="186.131" x2="186.131" y1="619.5" y2="611.5"/><!--MD5=[a80db4de5ada73f95eccc51e44618078]
link user_paints_paint to user--><path codeLine="128" d="M476.142,27.25 C476.142,27.25 944,27.25 944,27.25 C944,27.25 944,273.447 944,273.447 " fill="none" id="user_paints_paint-user" style="stroke:#2E8B57;stroke-width:1.0;"/><line style="stroke:#2E8B57;stroke-width:1.0;" x1="948" x2="940" y1="277.447" y2="277.447"/><line style="stroke:#2E8B57;stroke-width:1.0;" x1="948" x2="940" y1="274.447" y2="274.447"/><line style="stroke:#2E8B57;stroke-width:1.0;" x1="944" x2="944" y1="273.447" y2="281.447"/><line style="stroke:#2E8B57;stroke-width:1.0;" x1="476.142" x2="468.142" y1="27.25" y2="33.25"/><line style="stroke:#2E8B57;stroke-width:1.0;" x1="476.142" x2="468.142" y1="27.25" y2="21.25"/><line style="stroke:#2E8B57;stroke-width:1.0;" x1="476.142" x2="468.142" y1="27.25" y2="27.25"/><line style="stroke:#2E8B57;stroke-width:1.0;" x1="478.142" x2="478.142" y1="31.25" y2="23.25"/><!--MD5=[206bab979a87a4348d81487fdb0d2e97]
link user_paints_paint to paint--><path codeLine="129" d="M476.145,61.75 C476.145,61.75 584.228,61.75 584.228,61.75 " fill="none" id="user_paints_paint-paint" style="stroke:#2E8B57;stroke-width:1.0;"/><line style="stroke:#2E8B57;stroke-width:1.0;" x1="588.228" x2="588.228" y1="57.75" y2="65.75"/><line style="stroke:#2E8B57;stroke-width:1.0;" x1="585.228" x2="585.228" y1="57.75" y2="65.75"/><line style="stroke:#2E8B57;stroke-width:1.0;" x1="584.228" x2="592.228" y1="61.75" y2="61.75"/><line style="stroke:#2E8B57;stroke-width:1.0;" x1="476.145" x2="468.145" y1="61.75" y2="67.75"/><line style="stroke:#2E8B57;stroke-width:1.0;" x1="476.145" x2="468.145" y1="61.75" y2="55.75"/><line style="stroke:#2E8B57;stroke-width:1.0;" x1="476.145" x2="468.145" y1="61.75" y2="61.75"/><line style="stroke:#2E8B57;stroke-width:1.0;" x1="478.145" x2="478.145" y1="65.75" y2="57.75"/><!--MD5=[52073480f8b81c8fbeacafab5124aed6]
@startuml
!define table(ename, dbname) entity "<b>ename</b>\n<font size=10 color=gray>(dbname)</font>"

!define pkey(x) {field} <b><color:DarkGoldenRod><&key></color> x</b>
!define fkey(x) {field} <color:#AAAAAA><&key></color> x
!define column(x) {field} <color:#EFEFEF><&media-record></color> x

hide stereotypes
hide methods
hide circle

left to right direction

skinparam roundcorner 5
skinparam linetype ortho
skinparam shadowing false
skinparam handwritten false

skinparam class {
    BackgroundColor white
    ArrowColor seagreen
    BorderColor seagreen
}


table( Paint, paint ) as paint {
  pkey( id ): INT 
  column( name ): NVARCHAR(64) 
  column( type ): NVARCHAR(32) 
}

table( PaintSchemePart, paint_scheme_part ) as paint_scheme_part {
  pkey( id ): INT 
  column( order ): INT 
  fkey( paintId ): INT <<FK>>
  fkey( schemeId ): INT <<FK>>
}

table( PaintScheme, paint_scheme ) as paint_scheme {
  pkey( id ): INT 
  column( name ): NVARCHAR(64) 
  column( image ): NVARCHAR(255) 
}

table( Wargear, wargear ) as wargear {
  pkey( id ): INT 
  column( name ): NVARCHAR(64) 
  column( type ): NVARCHAR(32) 
  column( pointValue ): INT 
}

table( Unit, unit ) as unit {
  pkey( id ): INT 
  column( name ): NVARCHAR(64) 
  column( minModelsPerUnit ): INT 
  column( maxModelsPerUnit ): INT 
  column( pointsPerModel ): INT 
  column( type ): NVARCHAR(32) 
  fkey( forceName ): NVARCHAR(32) <<FK>>
}

table( Force, force ) as force {
  pkey( name ): NVARCHAR(32) 
}

table( WargearVariant, wargear_variant ) as wargear_variant {
  pkey( id ): INT 
  column( count ): INT 
  fkey( wargear_id ): INT <<FK>>
  fkey( unitId ): INT <<FK>>
}

table( UnitVariant, unit_variant ) as unit_variant {
  pkey( id ): INT 
  column( numberOfModels ): INT 
  column( pointValue ): INT 
  fkey( armyName ): NVARCHAR(256) <<FK>>
  fkey( unit_id ): INT <<FK>>
}

table( Army, army ) as army {
  pkey( name ): NVARCHAR(256) 
  column( pointValue ): INT 
  fkey( userUsername ): NVARCHAR(32) <<FK>>
  fkey( forceName ): NVARCHAR(32) <<FK>>
}

table( User, user ) as user {
  pkey( username ): NVARCHAR(32) 
  column( email ): NVARCHAR(254) 
  column( passwordHash ): NVARCHAR(60) 
}

table( AuthToken, auth_token ) as auth_token {
  pkey( token ): NVARCHAR(60) 
  column( revoked ): BIT 
  fkey( user_username ): NVARCHAR(32) <<FK>>
}

table( unit_paint_schemes_paint_scheme, unit_paint_schemes_paint_scheme ) as unit_paint_schemes_paint_scheme {
  pkey( unitId ): INT 
  pkey( paintSchemeId ): INT 
}

table( unit_wargear_wargear, unit_wargear_wargear ) as unit_wargear_wargear {
  pkey( unitId ): INT 
  pkey( wargearId ): INT 
}

table( user_paints_paint, user_paints_paint ) as user_paints_paint {
  pkey( userUsername ): NVARCHAR(32) 
  pkey( paintId ): INT 
}

paint_scheme_part }o- -|| paint
paint_scheme_part }o- -|| paint_scheme
unit }o- -|| force
wargear_variant }o- -|| wargear
wargear_variant }o- -|| unit_variant
unit_variant }o- -|| army
unit_variant }o- -|| unit
army }o- -|| user
army }o- -|| force
auth_token }o- -|| user
unit_paint_schemes_paint_scheme }|- -|| unit
unit_paint_schemes_paint_scheme }|- -|| paint_scheme
unit_wargear_wargear }|- -|| unit
unit_wargear_wargear }|- -|| wargear
user_paints_paint }|- -|| user
user_paints_paint }|- -|| paint
@enduml

@startuml


hide stereotypes
hide methods
hide circle

left to right direction

skinparam roundcorner 5
skinparam linetype ortho
skinparam shadowing false
skinparam handwritten false

skinparam class {
    BackgroundColor white
    ArrowColor seagreen
    BorderColor seagreen
}


entity "<b>Paint</b>\n<font size=10 color=gray>(paint)</font>" as paint {
  {field} <b><color:DarkGoldenRod><&key></color> id</b>: INT 
  {field} <color:#EFEFEF><&media-record></color> name: NVARCHAR(64) 
  {field} <color:#EFEFEF><&media-record></color> type: NVARCHAR(32) 
}

entity "<b>PaintSchemePart</b>\n<font size=10 color=gray>(paint_scheme_part)</font>" as paint_scheme_part {
  {field} <b><color:DarkGoldenRod><&key></color> id</b>: INT 
  {field} <color:#EFEFEF><&media-record></color> order: INT 
  {field} <color:#AAAAAA><&key></color> paintId: INT <<FK>>
  {field} <color:#AAAAAA><&key></color> schemeId: INT <<FK>>
}

entity "<b>PaintScheme</b>\n<font size=10 color=gray>(paint_scheme)</font>" as paint_scheme {
  {field} <b><color:DarkGoldenRod><&key></color> id</b>: INT 
  {field} <color:#EFEFEF><&media-record></color> name: NVARCHAR(64) 
  {field} <color:#EFEFEF><&media-record></color> image: NVARCHAR(255) 
}

entity "<b>Wargear</b>\n<font size=10 color=gray>(wargear)</font>" as wargear {
  {field} <b><color:DarkGoldenRod><&key></color> id</b>: INT 
  {field} <color:#EFEFEF><&media-record></color> name: NVARCHAR(64) 
  {field} <color:#EFEFEF><&media-record></color> type: NVARCHAR(32) 
  {field} <color:#EFEFEF><&media-record></color> pointValue: INT 
}

entity "<b>Unit</b>\n<font size=10 color=gray>(unit)</font>" as unit {
  {field} <b><color:DarkGoldenRod><&key></color> id</b>: INT 
  {field} <color:#EFEFEF><&media-record></color> name: NVARCHAR(64) 
  {field} <color:#EFEFEF><&media-record></color> minModelsPerUnit: INT 
  {field} <color:#EFEFEF><&media-record></color> maxModelsPerUnit: INT 
  {field} <color:#EFEFEF><&media-record></color> pointsPerModel: INT 
  {field} <color:#EFEFEF><&media-record></color> type: NVARCHAR(32) 
  {field} <color:#AAAAAA><&key></color> forceName: NVARCHAR(32) <<FK>>
}

entity "<b>Force</b>\n<font size=10 color=gray>(force)</font>" as force {
  {field} <b><color:DarkGoldenRod><&key></color> name</b>: NVARCHAR(32) 
}

entity "<b>WargearVariant</b>\n<font size=10 color=gray>(wargear_variant)</font>" as wargear_variant {
  {field} <b><color:DarkGoldenRod><&key></color> id</b>: INT 
  {field} <color:#EFEFEF><&media-record></color> count: INT 
  {field} <color:#AAAAAA><&key></color> wargear_id: INT <<FK>>
  {field} <color:#AAAAAA><&key></color> unitId: INT <<FK>>
}

entity "<b>UnitVariant</b>\n<font size=10 color=gray>(unit_variant)</font>" as unit_variant {
  {field} <b><color:DarkGoldenRod><&key></color> id</b>: INT 
  {field} <color:#EFEFEF><&media-record></color> numberOfModels: INT 
  {field} <color:#EFEFEF><&media-record></color> pointValue: INT 
  {field} <color:#AAAAAA><&key></color> armyName: NVARCHAR(256) <<FK>>
  {field} <color:#AAAAAA><&key></color> unit_id: INT <<FK>>
}

entity "<b>Army</b>\n<font size=10 color=gray>(army)</font>" as army {
  {field} <b><color:DarkGoldenRod><&key></color> name</b>: NVARCHAR(256) 
  {field} <color:#EFEFEF><&media-record></color> pointValue: INT 
  {field} <color:#AAAAAA><&key></color> userUsername: NVARCHAR(32) <<FK>>
  {field} <color:#AAAAAA><&key></color> forceName: NVARCHAR(32) <<FK>>
}

entity "<b>User</b>\n<font size=10 color=gray>(user)</font>" as user {
  {field} <b><color:DarkGoldenRod><&key></color> username</b>: NVARCHAR(32) 
  {field} <color:#EFEFEF><&media-record></color> email: NVARCHAR(254) 
  {field} <color:#EFEFEF><&media-record></color> passwordHash: NVARCHAR(60) 
}

entity "<b>AuthToken</b>\n<font size=10 color=gray>(auth_token)</font>" as auth_token {
  {field} <b><color:DarkGoldenRod><&key></color> token</b>: NVARCHAR(60) 
  {field} <color:#EFEFEF><&media-record></color> revoked: BIT 
  {field} <color:#AAAAAA><&key></color> user_username: NVARCHAR(32) <<FK>>
}

entity "<b>unit_paint_schemes_paint_scheme</b>\n<font size=10 color=gray>(unit_paint_schemes_paint_scheme)</font>" as unit_paint_schemes_paint_scheme {
  {field} <b><color:DarkGoldenRod><&key></color> unitId</b>: INT 
  {field} <b><color:DarkGoldenRod><&key></color> paintSchemeId</b>: INT 
}

entity "<b>unit_wargear_wargear</b>\n<font size=10 color=gray>(unit_wargear_wargear)</font>" as unit_wargear_wargear {
  {field} <b><color:DarkGoldenRod><&key></color> unitId</b>: INT 
  {field} <b><color:DarkGoldenRod><&key></color> wargearId</b>: INT 
}

entity "<b>user_paints_paint</b>\n<font size=10 color=gray>(user_paints_paint)</font>" as user_paints_paint {
  {field} <b><color:DarkGoldenRod><&key></color> userUsername</b>: NVARCHAR(32) 
  {field} <b><color:DarkGoldenRod><&key></color> paintId</b>: INT 
}

paint_scheme_part }o- -|| paint
paint_scheme_part }o- -|| paint_scheme
unit }o- -|| force
wargear_variant }o- -|| wargear
wargear_variant }o- -|| unit_variant
unit_variant }o- -|| army
unit_variant }o- -|| unit
army }o- -|| user
army }o- -|| force
auth_token }o- -|| user
unit_paint_schemes_paint_scheme }|- -|| unit
unit_paint_schemes_paint_scheme }|- -|| paint_scheme
unit_wargear_wargear }|- -|| unit
unit_wargear_wargear }|- -|| wargear
user_paints_paint }|- -|| user
user_paints_paint }|- -|| paint
@enduml

PlantUML version 1.2020.24(Fri Dec 18 17:00:36 UTC 2020)
(GPL source distribution)
Java Runtime: Java(TM) SE Runtime Environment
JVM: Java HotSpot(TM) 64-Bit Server VM
Default Encoding: UTF-8
Language: en
Country: US
--></g></svg>