<?xml version="1.0" encoding="UTF-8" standalone="no"?><svg xmlns="http://www.w3.org/2000/svg" xmlns:xlink="http://www.w3.org/1999/xlink" contentScriptType="application/ecmascript" contentStyleType="text/css" height="728px" preserveAspectRatio="none" style="width:1197px;height:728px;" version="1.1" viewBox="0 0 1197 728" width="1197px" zoomAndPan="magnify"><defs/><g><!--MD5=[e59cf999063292dce8d6ea34dd10a338]
class user--><rect codeLine="25" fill="#FFFFFF" height="82.0234" id="user" rx="2.5" ry="2.5" style="stroke:#2E8B57;stroke-width:1.5;" width="257.3333" x="933" y="545.5"/><text fill="#000000" font-family="sans-serif" font-size="12" font-weight="bold" lengthAdjust="spacingAndGlyphs" textLength="33" x="1045.1667" y="561.6387">User</text><text fill="#808080" font-family="sans-serif" font-size="10" lengthAdjust="spacingAndGlyphs" textLength="31" x="1046.1667" y="573.751">(user)</text><line style="stroke:#2E8B57;stroke-width:1.5;" x1="934" x2="1189.3333" y1="581.1094" y2="581.1094"/><path d="M945.0417,587.8307 C943.7767,587.8307 942.75,588.8574 942.75,590.1224 C942.75,590.2691 942.75,590.4157 942.7775,590.5532 L940,593.3307 L940,595.1641 L942.75,595.1641 L942.75,593.3307 L944.5833,593.3307 L944.5833,592.4141 L944.6108,592.3866 C944.7483,592.4141 944.895,592.4141 945.0417,592.4141 C946.3067,592.4141 947.3333,591.3874 947.3333,590.1224 C947.3333,588.8574 946.3067,587.8307 945.0417,587.8307 M945.5,588.7474 C946.0042,588.7474 946.4167,589.1599 946.4167,589.6641 C946.4167,590.1682 946.0042,590.5807 945.5,590.5807 C944.9958,590.5807 944.5833,590.1682 944.5833,589.6641 C944.5833,589.1599 944.9958,588.7474 945.5,588.7474 " fill="#B8860B" style="stroke:;stroke-width:0.0;stroke-dasharray:;"/><text fill="#000000" font-family="sans-serif" font-size="11" font-weight="bold" lengthAdjust="spacingAndGlyphs" textLength="65" x="952.3333" y="595.3198">username</text><text fill="#000000" font-family="sans-serif" font-size="11" lengthAdjust="spacingAndGlyphs" textLength="151" x="1017.3333" y="595.3198">: CHARACTER VARYING(32)</text><path d="M942.75,600.6354 C941.2283,600.6354 940,601.8638 940,603.3854 C940,604.9071 941.2283,606.1354 942.75,606.1354 C944.2717,606.1354 945.5,604.9071 945.5,603.3854 C945.5,601.8638 944.2717,600.6354 942.75,600.6354 " fill="#EFEFEF" style="stroke:;stroke-width:0.0;stroke-dasharray:;"/><text fill="#000000" font-family="sans-serif" font-size="11" lengthAdjust="spacingAndGlyphs" textLength="190" x="952.3333" y="608.1245">email: CHARACTER VARYING(254)</text><path d="M942.75,613.4401 C941.2283,613.4401 940,614.6684 940,616.1901 C940,617.7118 941.2283,618.9401 942.75,618.9401 C944.2717,618.9401 945.5,617.7118 945.5,616.1901 C945.5,614.6684 944.2717,613.4401 942.75,613.4401 " fill="#EFEFEF" style="stroke:;stroke-width:0.0;stroke-dasharray:;"/><text fill="#000000" font-family="sans-serif" font-size="11" lengthAdjust="spacingAndGlyphs" textLength="232" x="952.3333" y="620.9292">passwordHash: CHARACTER VARYING(60)</text><!--MD5=[15c6e9ffaea2e23fe19ed9db921e213d]
class paint--><rect codeLine="31" fill="#FFFFFF" height="82.0234" id="paint" rx="2.5" ry="2.5" style="stroke:#2E8B57;stroke-width:1.5;" width="209.3333" x="620.5" y="451.5"/><text fill="#000000" font-family="sans-serif" font-size="12" font-weight="bold" lengthAdjust="spacingAndGlyphs" textLength="38" x="706.1667" y="467.6387">Paint</text><text fill="#808080" font-family="sans-serif" font-size="10" lengthAdjust="spacingAndGlyphs" textLength="36" x="707.1667" y="479.751">(paint)</text><line style="stroke:#2E8B57;stroke-width:1.5;" x1="621.5" x2="828.8333" y1="487.1094" y2="487.1094"/><path d="M632.5417,493.8307 C631.2767,493.8307 630.25,494.8574 630.25,496.1224 C630.25,496.2691 630.25,496.4157 630.2775,496.5532 L627.5,499.3307 L627.5,501.1641 L630.25,501.1641 L630.25,499.3307 L632.0833,499.3307 L632.0833,498.4141 L632.1108,498.3866 C632.2483,498.4141 632.395,498.4141 632.5417,498.4141 C633.8067,498.4141 634.8333,497.3874 634.8333,496.1224 C634.8333,494.8574 633.8067,493.8307 632.5417,493.8307 M633,494.7474 C633.5042,494.7474 633.9167,495.1599 633.9167,495.6641 C633.9167,496.1682 633.5042,496.5807 633,496.5807 C632.4958,496.5807 632.0833,496.1682 632.0833,495.6641 C632.0833,495.1599 632.4958,494.7474 633,494.7474 " fill="#B8860B" style="stroke:;stroke-width:0.0;stroke-dasharray:;"/><text fill="#000000" font-family="sans-serif" font-size="11" font-weight="bold" lengthAdjust="spacingAndGlyphs" textLength="12" x="639.8333" y="501.3198">id</text><text fill="#000000" font-family="sans-serif" font-size="11" lengthAdjust="spacingAndGlyphs" textLength="55" x="651.8333" y="501.3198">: INTEGER</text><path d="M630.25,506.6354 C628.7283,506.6354 627.5,507.8638 627.5,509.3854 C627.5,510.9071 628.7283,512.1354 630.25,512.1354 C631.7717,512.1354 633,510.9071 633,509.3854 C633,507.8638 631.7717,506.6354 630.25,506.6354 " fill="#EFEFEF" style="stroke:;stroke-width:0.0;stroke-dasharray:;"/><text fill="#000000" font-family="sans-serif" font-size="11" lengthAdjust="spacingAndGlyphs" textLength="184" x="639.8333" y="514.1245">name: CHARACTER VARYING(64)</text><path d="M630.25,519.4401 C628.7283,519.4401 627.5,520.6684 627.5,522.1901 C627.5,523.7118 628.7283,524.9401 630.25,524.9401 C631.7717,524.9401 633,523.7118 633,522.1901 C633,520.6684 631.7717,519.4401 630.25,519.4401 " fill="#EFEFEF" style="stroke:;stroke-width:0.0;stroke-dasharray:;"/><text fill="#000000" font-family="sans-serif" font-size="11" lengthAdjust="spacingAndGlyphs" textLength="65" x="639.8333" y="526.9292">type: ENUM</text><!--MD5=[62bb14c4c7cfe8ecd085cb6ef8c8d2f8]
class paint_scheme_part--><rect codeLine="37" fill="#FFFFFF" height="94.8281" id="paint_scheme_part" rx="2.5" ry="2.5" style="stroke:#2E8B57;stroke-width:1.5;" width="167.3333" x="295" y="422"/><text fill="#000000" font-family="sans-serif" font-size="12" font-weight="bold" lengthAdjust="spacingAndGlyphs" textLength="126" x="315.6667" y="438.1387">PaintSchemePart</text><text fill="#808080" font-family="sans-serif" font-size="10" lengthAdjust="spacingAndGlyphs" textLength="111" x="323.1667" y="450.251">(paint_scheme_part)</text><line style="stroke:#2E8B57;stroke-width:1.5;" x1="296" x2="461.3333" y1="457.6094" y2="457.6094"/><path d="M307.0417,464.3307 C305.7767,464.3307 304.75,465.3574 304.75,466.6224 C304.75,466.7691 304.75,466.9157 304.7775,467.0532 L302,469.8307 L302,471.6641 L304.75,471.6641 L304.75,469.8307 L306.5833,469.8307 L306.5833,468.9141 L306.6108,468.8866 C306.7483,468.9141 306.895,468.9141 307.0417,468.9141 C308.3067,468.9141 309.3333,467.8874 309.3333,466.6224 C309.3333,465.3574 308.3067,464.3307 307.0417,464.3307 M307.5,465.2474 C308.0042,465.2474 308.4167,465.6599 308.4167,466.1641 C308.4167,466.6682 308.0042,467.0807 307.5,467.0807 C306.9958,467.0807 306.5833,466.6682 306.5833,466.1641 C306.5833,465.6599 306.9958,465.2474 307.5,465.2474 " fill="#B8860B" style="stroke:;stroke-width:0.0;stroke-dasharray:;"/><text fill="#000000" font-family="sans-serif" font-size="11" font-weight="bold" lengthAdjust="spacingAndGlyphs" textLength="12" x="314.3333" y="471.8198">id</text><text fill="#000000" font-family="sans-serif" font-size="11" lengthAdjust="spacingAndGlyphs" textLength="55" x="326.3333" y="471.8198">: INTEGER</text><path d="M304.75,477.1354 C303.2283,477.1354 302,478.3638 302,479.8854 C302,481.4071 303.2283,482.6354 304.75,482.6354 C306.2717,482.6354 307.5,481.4071 307.5,479.8854 C307.5,478.3638 306.2717,477.1354 304.75,477.1354 " fill="#EFEFEF" style="stroke:;stroke-width:0.0;stroke-dasharray:;"/><text fill="#000000" font-family="sans-serif" font-size="11" lengthAdjust="spacingAndGlyphs" textLength="85" x="314.3333" y="484.6245">order: INTEGER</text><path d="M307.0417,489.9401 C305.7767,489.9401 304.75,490.9668 304.75,492.2318 C304.75,492.3784 304.75,492.5251 304.7775,492.6626 L302,495.4401 L302,497.2734 L304.75,497.2734 L304.75,495.4401 L306.5833,495.4401 L306.5833,494.5234 L306.6108,494.4959 C306.7483,494.5234 306.895,494.5234 307.0417,494.5234 C308.3067,494.5234 309.3333,493.4968 309.3333,492.2318 C309.3333,490.9668 308.3067,489.9401 307.0417,489.9401 M307.5,490.8568 C308.0042,490.8568 308.4167,491.2693 308.4167,491.7734 C308.4167,492.2776 308.0042,492.6901 307.5,492.6901 C306.9958,492.6901 306.5833,492.2776 306.5833,491.7734 C306.5833,491.2693 306.9958,490.8568 307.5,490.8568 " fill="#AAAAAA" style="stroke:;stroke-width:0.0;stroke-dasharray:;"/><text fill="#000000" font-family="sans-serif" font-size="11" lengthAdjust="spacingAndGlyphs" textLength="124" x="314.3333" y="497.4292">paintId: INTEGER «FK»</text><path d="M307.0417,502.7448 C305.7767,502.7448 304.75,503.7715 304.75,505.0365 C304.75,505.1831 304.75,505.3298 304.7775,505.4673 L302,508.2448 L302,510.0781 L304.75,510.0781 L304.75,508.2448 L306.5833,508.2448 L306.5833,507.3281 L306.6108,507.3006 C306.7483,507.3281 306.895,507.3281 307.0417,507.3281 C308.3067,507.3281 309.3333,506.3015 309.3333,505.0365 C309.3333,503.7715 308.3067,502.7448 307.0417,502.7448 M307.5,503.6615 C308.0042,503.6615 308.4167,504.074 308.4167,504.5781 C308.4167,505.0823 308.0042,505.4948 307.5,505.4948 C306.9958,505.4948 306.5833,505.0823 306.5833,504.5781 C306.5833,504.074 306.9958,503.6615 307.5,503.6615 " fill="#AAAAAA" style="stroke:;stroke-width:0.0;stroke-dasharray:;"/><text fill="#000000" font-family="sans-serif" font-size="11" lengthAdjust="spacingAndGlyphs" textLength="142" x="314.3333" y="510.2339">schemeId: INTEGER «FK»</text><!--MD5=[0f0cab106bdcd190832f93d0c60e05dc]
class paint_scheme--><rect codeLine="44" fill="#FFFFFF" height="82.0234" id="paint_scheme" rx="2.5" ry="2.5" style="stroke:#2E8B57;stroke-width:1.5;" width="209.3333" x="620.5" y="334.5"/><text fill="#000000" font-family="sans-serif" font-size="12" font-weight="bold" lengthAdjust="spacingAndGlyphs" textLength="94" x="678.1667" y="350.6387">PaintScheme</text><text fill="#808080" font-family="sans-serif" font-size="10" lengthAdjust="spacingAndGlyphs" textLength="84" x="683.1667" y="362.751">(paint_scheme)</text><line style="stroke:#2E8B57;stroke-width:1.5;" x1="621.5" x2="828.8333" y1="370.1094" y2="370.1094"/><path d="M632.5417,376.8307 C631.2767,376.8307 630.25,377.8574 630.25,379.1224 C630.25,379.2691 630.25,379.4157 630.2775,379.5532 L627.5,382.3307 L627.5,384.1641 L630.25,384.1641 L630.25,382.3307 L632.0833,382.3307 L632.0833,381.4141 L632.1108,381.3866 C632.2483,381.4141 632.395,381.4141 632.5417,381.4141 C633.8067,381.4141 634.8333,380.3874 634.8333,379.1224 C634.8333,377.8574 633.8067,376.8307 632.5417,376.8307 M633,377.7474 C633.5042,377.7474 633.9167,378.1599 633.9167,378.6641 C633.9167,379.1682 633.5042,379.5807 633,379.5807 C632.4958,379.5807 632.0833,379.1682 632.0833,378.6641 C632.0833,378.1599 632.4958,377.7474 633,377.7474 " fill="#B8860B" style="stroke:;stroke-width:0.0;stroke-dasharray:;"/><text fill="#000000" font-family="sans-serif" font-size="11" font-weight="bold" lengthAdjust="spacingAndGlyphs" textLength="12" x="639.8333" y="384.3198">id</text><text fill="#000000" font-family="sans-serif" font-size="11" lengthAdjust="spacingAndGlyphs" textLength="55" x="651.8333" y="384.3198">: INTEGER</text><path d="M630.25,389.6354 C628.7283,389.6354 627.5,390.8638 627.5,392.3854 C627.5,393.9071 628.7283,395.1354 630.25,395.1354 C631.7717,395.1354 633,393.9071 633,392.3854 C633,390.8638 631.7717,389.6354 630.25,389.6354 " fill="#EFEFEF" style="stroke:;stroke-width:0.0;stroke-dasharray:;"/><text fill="#000000" font-family="sans-serif" font-size="11" lengthAdjust="spacingAndGlyphs" textLength="184" x="639.8333" y="397.1245">name: CHARACTER VARYING(64)</text><path d="M630.25,402.4401 C628.7283,402.4401 627.5,403.6684 627.5,405.1901 C627.5,406.7118 628.7283,407.9401 630.25,407.9401 C631.7717,407.9401 633,406.7118 633,405.1901 C633,403.6684 631.7717,402.4401 630.25,402.4401 " fill="#EFEFEF" style="stroke:;stroke-width:0.0;stroke-dasharray:;"/><text fill="#000000" font-family="sans-serif" font-size="11" lengthAdjust="spacingAndGlyphs" textLength="165" x="639.8333" y="409.9292">image: CHARACTER VARYING</text><!--MD5=[1bdd030ce00e7fcfd6d7a6b03042af90]
class wargear--><rect codeLine="50" fill="#FFFFFF" height="94.8281" id="wargear" rx="2.5" ry="2.5" style="stroke:#2E8B57;stroke-width:1.5;" width="209.3333" x="274" y="44"/><text fill="#000000" font-family="sans-serif" font-size="12" font-weight="bold" lengthAdjust="spacingAndGlyphs" textLength="63" x="347.1667" y="60.1387">Wargear</text><text fill="#808080" font-family="sans-serif" font-size="10" lengthAdjust="spacingAndGlyphs" textLength="52" x="352.6667" y="72.251">(wargear)</text><line style="stroke:#2E8B57;stroke-width:1.5;" x1="275" x2="482.3333" y1="79.6094" y2="79.6094"/><path d="M286.0417,86.3307 C284.7767,86.3307 283.75,87.3574 283.75,88.6224 C283.75,88.7691 283.75,88.9157 283.7775,89.0532 L281,91.8307 L281,93.6641 L283.75,93.6641 L283.75,91.8307 L285.5833,91.8307 L285.5833,90.9141 L285.6108,90.8866 C285.7483,90.9141 285.895,90.9141 286.0417,90.9141 C287.3067,90.9141 288.3333,89.8874 288.3333,88.6224 C288.3333,87.3574 287.3067,86.3307 286.0417,86.3307 M286.5,87.2474 C287.0042,87.2474 287.4167,87.6599 287.4167,88.1641 C287.4167,88.6682 287.0042,89.0807 286.5,89.0807 C285.9958,89.0807 285.5833,88.6682 285.5833,88.1641 C285.5833,87.6599 285.9958,87.2474 286.5,87.2474 " fill="#B8860B" style="stroke:;stroke-width:0.0;stroke-dasharray:;"/><text fill="#000000" font-family="sans-serif" font-size="11" font-weight="bold" lengthAdjust="spacingAndGlyphs" textLength="12" x="293.3333" y="93.8198">id</text><text fill="#000000" font-family="sans-serif" font-size="11" lengthAdjust="spacingAndGlyphs" textLength="55" x="305.3333" y="93.8198">: INTEGER</text><path d="M283.75,99.1354 C282.2283,99.1354 281,100.3638 281,101.8854 C281,103.4071 282.2283,104.6354 283.75,104.6354 C285.2717,104.6354 286.5,103.4071 286.5,101.8854 C286.5,100.3638 285.2717,99.1354 283.75,99.1354 " fill="#EFEFEF" style="stroke:;stroke-width:0.0;stroke-dasharray:;"/><text fill="#000000" font-family="sans-serif" font-size="11" lengthAdjust="spacingAndGlyphs" textLength="184" x="293.3333" y="106.6245">name: CHARACTER VARYING(64)</text><path d="M283.75,111.9401 C282.2283,111.9401 281,113.1684 281,114.6901 C281,116.2118 282.2283,117.4401 283.75,117.4401 C285.2717,117.4401 286.5,116.2118 286.5,114.6901 C286.5,113.1684 285.2717,111.9401 283.75,111.9401 " fill="#EFEFEF" style="stroke:;stroke-width:0.0;stroke-dasharray:;"/><text fill="#000000" font-family="sans-serif" font-size="11" lengthAdjust="spacingAndGlyphs" textLength="65" x="293.3333" y="119.4292">type: ENUM</text><path d="M283.75,124.7448 C282.2283,124.7448 281,125.9731 281,127.4948 C281,129.0165 282.2283,130.2448 283.75,130.2448 C285.2717,130.2448 286.5,129.0165 286.5,127.4948 C286.5,125.9731 285.2717,124.7448 283.75,124.7448 " fill="#EFEFEF" style="stroke:;stroke-width:0.0;stroke-dasharray:;"/><text fill="#000000" font-family="sans-serif" font-size="11" lengthAdjust="spacingAndGlyphs" textLength="116" x="293.3333" y="132.2339">pointValue: INTEGER</text><!--MD5=[71453aad0c321cc4e5ffc62c5a278467]
class unit--><rect codeLine="57" fill="#FFFFFF" height="120.4375" id="unit" rx="2.5" ry="2.5" style="stroke:#2E8B57;stroke-width:1.5;" width="270.3333" x="590" y="48.5"/><text fill="#000000" font-family="sans-serif" font-size="12" font-weight="bold" lengthAdjust="spacingAndGlyphs" textLength="29" x="710.6667" y="64.6387">Unit</text><text fill="#808080" font-family="sans-serif" font-size="10" lengthAdjust="spacingAndGlyphs" textLength="29" x="710.6667" y="76.751">(unit)</text><line style="stroke:#2E8B57;stroke-width:1.5;" x1="591" x2="859.3333" y1="84.1094" y2="84.1094"/><path d="M602.0417,90.8307 C600.7767,90.8307 599.75,91.8574 599.75,93.1224 C599.75,93.2691 599.75,93.4157 599.7775,93.5532 L597,96.3307 L597,98.1641 L599.75,98.1641 L599.75,96.3307 L601.5833,96.3307 L601.5833,95.4141 L601.6108,95.3866 C601.7483,95.4141 601.895,95.4141 602.0417,95.4141 C603.3067,95.4141 604.3333,94.3874 604.3333,93.1224 C604.3333,91.8574 603.3067,90.8307 602.0417,90.8307 M602.5,91.7474 C603.0042,91.7474 603.4167,92.1599 603.4167,92.6641 C603.4167,93.1682 603.0042,93.5807 602.5,93.5807 C601.9958,93.5807 601.5833,93.1682 601.5833,92.6641 C601.5833,92.1599 601.9958,91.7474 602.5,91.7474 " fill="#B8860B" style="stroke:;stroke-width:0.0;stroke-dasharray:;"/><text fill="#000000" font-family="sans-serif" font-size="11" font-weight="bold" lengthAdjust="spacingAndGlyphs" textLength="12" x="609.3333" y="98.3198">id</text><text fill="#000000" font-family="sans-serif" font-size="11" lengthAdjust="spacingAndGlyphs" textLength="55" x="621.3333" y="98.3198">: INTEGER</text><path d="M599.75,103.6354 C598.2283,103.6354 597,104.8638 597,106.3854 C597,107.9071 598.2283,109.1354 599.75,109.1354 C601.2717,109.1354 602.5,107.9071 602.5,106.3854 C602.5,104.8638 601.2717,103.6354 599.75,103.6354 " fill="#EFEFEF" style="stroke:;stroke-width:0.0;stroke-dasharray:;"/><text fill="#000000" font-family="sans-serif" font-size="11" lengthAdjust="spacingAndGlyphs" textLength="184" x="609.3333" y="111.1245">name: CHARACTER VARYING(64)</text><path d="M599.75,116.4401 C598.2283,116.4401 597,117.6684 597,119.1901 C597,120.7118 598.2283,121.9401 599.75,121.9401 C601.2717,121.9401 602.5,120.7118 602.5,119.1901 C602.5,117.6684 601.2717,116.4401 599.75,116.4401 " fill="#EFEFEF" style="stroke:;stroke-width:0.0;stroke-dasharray:;"/><text fill="#000000" font-family="sans-serif" font-size="11" lengthAdjust="spacingAndGlyphs" textLength="153" x="609.3333" y="123.9292">modelsPerUnit: INT4RANGE</text><path d="M599.75,129.2448 C598.2283,129.2448 597,130.4731 597,131.9948 C597,133.5165 598.2283,134.7448 599.75,134.7448 C601.2717,134.7448 602.5,133.5165 602.5,131.9948 C602.5,130.4731 601.2717,129.2448 599.75,129.2448 " fill="#EFEFEF" style="stroke:;stroke-width:0.0;stroke-dasharray:;"/><text fill="#000000" font-family="sans-serif" font-size="11" lengthAdjust="spacingAndGlyphs" textLength="141" x="609.3333" y="136.7339">pointsPerModel: INTEGER</text><path d="M599.75,142.0495 C598.2283,142.0495 597,143.2778 597,144.7995 C597,146.3211 598.2283,147.5495 599.75,147.5495 C601.2717,147.5495 602.5,146.3211 602.5,144.7995 C602.5,143.2778 601.2717,142.0495 599.75,142.0495 " fill="#EFEFEF" style="stroke:;stroke-width:0.0;stroke-dasharray:;"/><text fill="#000000" font-family="sans-serif" font-size="11" lengthAdjust="spacingAndGlyphs" textLength="65" x="609.3333" y="149.5386">type: ENUM</text><path d="M602.0417,154.8542 C600.7767,154.8542 599.75,155.8808 599.75,157.1458 C599.75,157.2925 599.75,157.4392 599.7775,157.5767 L597,160.3542 L597,162.1875 L599.75,162.1875 L599.75,160.3542 L601.5833,160.3542 L601.5833,159.4375 L601.6108,159.41 C601.7483,159.4375 601.895,159.4375 602.0417,159.4375 C603.3067,159.4375 604.3333,158.4108 604.3333,157.1458 C604.3333,155.8808 603.3067,154.8542 602.0417,154.8542 M602.5,155.7708 C603.0042,155.7708 603.4167,156.1833 603.4167,156.6875 C603.4167,157.1917 603.0042,157.6042 602.5,157.6042 C601.9958,157.6042 601.5833,157.1917 601.5833,156.6875 C601.5833,156.1833 601.9958,155.7708 602.5,155.7708 " fill="#AAAAAA" style="stroke:;stroke-width:0.0;stroke-dasharray:;"/><text fill="#000000" font-family="sans-serif" font-size="11" lengthAdjust="spacingAndGlyphs" textLength="245" x="609.3333" y="162.3433">forceName: CHARACTER VARYING(32) «FK»</text><!--MD5=[34a1784414a501411742ee5e744abcee]
class force--><rect codeLine="66" fill="#FFFFFF" height="56.4141" id="force" rx="2.5" ry="2.5" style="stroke:#2E8B57;stroke-width:1.5;" width="212.3333" x="955.5" y="152.5"/><text fill="#000000" font-family="sans-serif" font-size="12" font-weight="bold" lengthAdjust="spacingAndGlyphs" textLength="41" x="1041.1667" y="168.6387">Force</text><text fill="#808080" font-family="sans-serif" font-size="10" lengthAdjust="spacingAndGlyphs" textLength="36" x="1043.6667" y="180.751">(force)</text><line style="stroke:#2E8B57;stroke-width:1.5;" x1="956.5" x2="1166.8333" y1="188.1094" y2="188.1094"/><path d="M967.5417,194.8307 C966.2767,194.8307 965.25,195.8574 965.25,197.1224 C965.25,197.2691 965.25,197.4157 965.2775,197.5532 L962.5,200.3307 L962.5,202.1641 L965.25,202.1641 L965.25,200.3307 L967.0833,200.3307 L967.0833,199.4141 L967.1108,199.3866 C967.2483,199.4141 967.395,199.4141 967.5417,199.4141 C968.8067,199.4141 969.8333,198.3874 969.8333,197.1224 C969.8333,195.8574 968.8067,194.8307 967.5417,194.8307 M968,195.7474 C968.5042,195.7474 968.9167,196.1599 968.9167,196.6641 C968.9167,197.1682 968.5042,197.5807 968,197.5807 C967.4958,197.5807 967.0833,197.1682 967.0833,196.6641 C967.0833,196.1599 967.4958,195.7474 968,195.7474 " fill="#B8860B" style="stroke:;stroke-width:0.0;stroke-dasharray:;"/><text fill="#000000" font-family="sans-serif" font-size="11" font-weight="bold" lengthAdjust="spacingAndGlyphs" textLength="36" x="974.8333" y="202.3198">name</text><text fill="#000000" font-family="sans-serif" font-size="11" lengthAdjust="spacingAndGlyphs" textLength="151" x="1010.8333" y="202.3198">: CHARACTER VARYING(32)</text><!--MD5=[b589f15cc2a6267756d4398fa606a64d]
class wargear_variant--><rect codeLine="70" fill="#FFFFFF" height="94.8281" id="wargear_variant" rx="2.5" ry="2.5" style="stroke:#2E8B57;stroke-width:1.5;" width="173.3333" x="7" y="121"/><text fill="#000000" font-family="sans-serif" font-size="12" font-weight="bold" lengthAdjust="spacingAndGlyphs" textLength="117" x="35.1667" y="137.1387">WargearVariant</text><text fill="#808080" font-family="sans-serif" font-size="10" lengthAdjust="spacingAndGlyphs" textLength="95" x="46.1667" y="149.251">(wargear_variant)</text><line style="stroke:#2E8B57;stroke-width:1.5;" x1="8" x2="179.3333" y1="156.6094" y2="156.6094"/><path d="M19.0417,163.3307 C17.7767,163.3307 16.75,164.3574 16.75,165.6224 C16.75,165.7691 16.75,165.9157 16.7775,166.0532 L14,168.8307 L14,170.6641 L16.75,170.6641 L16.75,168.8307 L18.5833,168.8307 L18.5833,167.9141 L18.6108,167.8866 C18.7483,167.9141 18.895,167.9141 19.0417,167.9141 C20.3067,167.9141 21.3333,166.8874 21.3333,165.6224 C21.3333,164.3574 20.3067,163.3307 19.0417,163.3307 M19.5,164.2474 C20.0042,164.2474 20.4167,164.6599 20.4167,165.1641 C20.4167,165.6682 20.0042,166.0807 19.5,166.0807 C18.9958,166.0807 18.5833,165.6682 18.5833,165.1641 C18.5833,164.6599 18.9958,164.2474 19.5,164.2474 " fill="#B8860B" style="stroke:;stroke-width:0.0;stroke-dasharray:;"/><text fill="#000000" font-family="sans-serif" font-size="11" font-weight="bold" lengthAdjust="spacingAndGlyphs" textLength="12" x="26.3333" y="170.8198">id</text><text fill="#000000" font-family="sans-serif" font-size="11" lengthAdjust="spacingAndGlyphs" textLength="55" x="38.3333" y="170.8198">: INTEGER</text><path d="M16.75,176.1354 C15.2283,176.1354 14,177.3638 14,178.8854 C14,180.4071 15.2283,181.6354 16.75,181.6354 C18.2717,181.6354 19.5,180.4071 19.5,178.8854 C19.5,177.3638 18.2717,176.1354 16.75,176.1354 " fill="#EFEFEF" style="stroke:;stroke-width:0.0;stroke-dasharray:;"/><text fill="#000000" font-family="sans-serif" font-size="11" lengthAdjust="spacingAndGlyphs" textLength="86" x="26.3333" y="183.6245">count: INTEGER</text><path d="M19.0417,188.9401 C17.7767,188.9401 16.75,189.9668 16.75,191.2318 C16.75,191.3784 16.75,191.5251 16.7775,191.6626 L14,194.4401 L14,196.2734 L16.75,196.2734 L16.75,194.4401 L18.5833,194.4401 L18.5833,193.5234 L18.6108,193.4959 C18.7483,193.5234 18.895,193.5234 19.0417,193.5234 C20.3067,193.5234 21.3333,192.4968 21.3333,191.2318 C21.3333,189.9668 20.3067,188.9401 19.0417,188.9401 M19.5,189.8568 C20.0042,189.8568 20.4167,190.2693 20.4167,190.7734 C20.4167,191.2776 20.0042,191.6901 19.5,191.6901 C18.9958,191.6901 18.5833,191.2776 18.5833,190.7734 C18.5833,190.2693 18.9958,189.8568 19.5,189.8568 " fill="#AAAAAA" style="stroke:;stroke-width:0.0;stroke-dasharray:;"/><text fill="#000000" font-family="sans-serif" font-size="11" lengthAdjust="spacingAndGlyphs" textLength="148" x="26.3333" y="196.4292">wargear_id: INTEGER «FK»</text><path d="M19.0417,201.7448 C17.7767,201.7448 16.75,202.7715 16.75,204.0365 C16.75,204.1831 16.75,204.3298 16.7775,204.4673 L14,207.2448 L14,209.0781 L16.75,209.0781 L16.75,207.2448 L18.5833,207.2448 L18.5833,206.3281 L18.6108,206.3006 C18.7483,206.3281 18.895,206.3281 19.0417,206.3281 C20.3067,206.3281 21.3333,205.3015 21.3333,204.0365 C21.3333,202.7715 20.3067,201.7448 19.0417,201.7448 M19.5,202.6615 C20.0042,202.6615 20.4167,203.074 20.4167,203.5781 C20.4167,204.0823 20.0042,204.4948 19.5,204.4948 C18.9958,204.4948 18.5833,204.0823 18.5833,203.5781 C18.5833,203.074 18.9958,202.6615 19.5,202.6615 " fill="#AAAAAA" style="stroke:;stroke-width:0.0;stroke-dasharray:;"/><text fill="#000000" font-family="sans-serif" font-size="11" lengthAdjust="spacingAndGlyphs" textLength="117" x="26.3333" y="209.2339">unitId: INTEGER «FK»</text><!--MD5=[d551081fe25060f62912fcaa27a6972d]
class unit_variant--><rect codeLine="77" fill="#FFFFFF" height="107.6328" id="unit_variant" rx="2.5" ry="2.5" style="stroke:#2E8B57;stroke-width:1.5;" width="277.3333" x="240" y="174.5"/><text fill="#000000" font-family="sans-serif" font-size="12" font-weight="bold" lengthAdjust="spacingAndGlyphs" textLength="83" x="337.1667" y="190.6387">UnitVariant</text><text fill="#808080" font-family="sans-serif" font-size="10" lengthAdjust="spacingAndGlyphs" textLength="72" x="342.6667" y="202.751">(unit_variant)</text><line style="stroke:#2E8B57;stroke-width:1.5;" x1="241" x2="516.3333" y1="210.1094" y2="210.1094"/><path d="M252.0417,216.8307 C250.7767,216.8307 249.75,217.8574 249.75,219.1224 C249.75,219.2691 249.75,219.4157 249.7775,219.5532 L247,222.3307 L247,224.1641 L249.75,224.1641 L249.75,222.3307 L251.5833,222.3307 L251.5833,221.4141 L251.6108,221.3866 C251.7483,221.4141 251.895,221.4141 252.0417,221.4141 C253.3067,221.4141 254.3333,220.3874 254.3333,219.1224 C254.3333,217.8574 253.3067,216.8307 252.0417,216.8307 M252.5,217.7474 C253.0042,217.7474 253.4167,218.1599 253.4167,218.6641 C253.4167,219.1682 253.0042,219.5807 252.5,219.5807 C251.9958,219.5807 251.5833,219.1682 251.5833,218.6641 C251.5833,218.1599 251.9958,217.7474 252.5,217.7474 " fill="#B8860B" style="stroke:;stroke-width:0.0;stroke-dasharray:;"/><text fill="#000000" font-family="sans-serif" font-size="11" font-weight="bold" lengthAdjust="spacingAndGlyphs" textLength="12" x="259.3333" y="224.3198">id</text><text fill="#000000" font-family="sans-serif" font-size="11" lengthAdjust="spacingAndGlyphs" textLength="55" x="271.3333" y="224.3198">: INTEGER</text><path d="M249.75,229.6354 C248.2283,229.6354 247,230.8638 247,232.3854 C247,233.9071 248.2283,235.1354 249.75,235.1354 C251.2717,235.1354 252.5,233.9071 252.5,232.3854 C252.5,230.8638 251.2717,229.6354 249.75,229.6354 " fill="#EFEFEF" style="stroke:;stroke-width:0.0;stroke-dasharray:;"/><text fill="#000000" font-family="sans-serif" font-size="11" lengthAdjust="spacingAndGlyphs" textLength="152" x="259.3333" y="237.1245">numberOfModels: INTEGER</text><path d="M249.75,242.4401 C248.2283,242.4401 247,243.6684 247,245.1901 C247,246.7118 248.2283,247.9401 249.75,247.9401 C251.2717,247.9401 252.5,246.7118 252.5,245.1901 C252.5,243.6684 251.2717,242.4401 249.75,242.4401 " fill="#EFEFEF" style="stroke:;stroke-width:0.0;stroke-dasharray:;"/><text fill="#000000" font-family="sans-serif" font-size="11" lengthAdjust="spacingAndGlyphs" textLength="116" x="259.3333" y="249.9292">pointValue: INTEGER</text><path d="M252.0417,255.2448 C250.7767,255.2448 249.75,256.2715 249.75,257.5365 C249.75,257.6831 249.75,257.8298 249.7775,257.9673 L247,260.7448 L247,262.5781 L249.75,262.5781 L249.75,260.7448 L251.5833,260.7448 L251.5833,259.8281 L251.6108,259.8006 C251.7483,259.8281 251.895,259.8281 252.0417,259.8281 C253.3067,259.8281 254.3333,258.8015 254.3333,257.5365 C254.3333,256.2715 253.3067,255.2448 252.0417,255.2448 M252.5,256.1615 C253.0042,256.1615 253.4167,256.574 253.4167,257.0781 C253.4167,257.5823 253.0042,257.9948 252.5,257.9948 C251.9958,257.9948 251.5833,257.5823 251.5833,257.0781 C251.5833,256.574 251.9958,256.1615 252.5,256.1615 " fill="#AAAAAA" style="stroke:;stroke-width:0.0;stroke-dasharray:;"/><text fill="#000000" font-family="sans-serif" font-size="11" lengthAdjust="spacingAndGlyphs" textLength="252" x="259.3333" y="262.7339">armyName: CHARACTER VARYING(256) «FK»</text><path d="M252.0417,268.0495 C250.7767,268.0495 249.75,269.0761 249.75,270.3411 C249.75,270.4878 249.75,270.6345 249.7775,270.772 L247,273.5495 L247,275.3828 L249.75,275.3828 L249.75,273.5495 L251.5833,273.5495 L251.5833,272.6328 L251.6108,272.6053 C251.7483,272.6328 251.895,272.6328 252.0417,272.6328 C253.3067,272.6328 254.3333,271.6061 254.3333,270.3411 C254.3333,269.0761 253.3067,268.0495 252.0417,268.0495 M252.5,268.9661 C253.0042,268.9661 253.4167,269.3786 253.4167,269.8828 C253.4167,270.387 253.0042,270.7995 252.5,270.7995 C251.9958,270.7995 251.5833,270.387 251.5833,269.8828 C251.5833,269.3786 251.9958,268.9661 252.5,268.9661 " fill="#AAAAAA" style="stroke:;stroke-width:0.0;stroke-dasharray:;"/><text fill="#000000" font-family="sans-serif" font-size="11" lengthAdjust="spacingAndGlyphs" textLength="123" x="259.3333" y="275.5386">unit_id: INTEGER «FK»</text><!--MD5=[3beafc90d2a94ceedc69a5076aae0a28]
class army--><rect codeLine="85" fill="#FFFFFF" height="94.8281" id="army" rx="2.5" ry="2.5" style="stroke:#2E8B57;stroke-width:1.5;" width="291.3333" x="579.5" y="204"/><text fill="#000000" font-family="sans-serif" font-size="12" font-weight="bold" lengthAdjust="spacingAndGlyphs" textLength="36" x="707.1667" y="220.1387">Army</text><text fill="#808080" font-family="sans-serif" font-size="10" lengthAdjust="spacingAndGlyphs" textLength="36" x="707.1667" y="232.251">(army)</text><line style="stroke:#2E8B57;stroke-width:1.5;" x1="580.5" x2="869.8333" y1="239.6094" y2="239.6094"/><path d="M591.5417,246.3307 C590.2767,246.3307 589.25,247.3574 589.25,248.6224 C589.25,248.7691 589.25,248.9157 589.2775,249.0532 L586.5,251.8307 L586.5,253.6641 L589.25,253.6641 L589.25,251.8307 L591.0833,251.8307 L591.0833,250.9141 L591.1108,250.8866 C591.2483,250.9141 591.395,250.9141 591.5417,250.9141 C592.8067,250.9141 593.8333,249.8874 593.8333,248.6224 C593.8333,247.3574 592.8067,246.3307 591.5417,246.3307 M592,247.2474 C592.5042,247.2474 592.9167,247.6599 592.9167,248.1641 C592.9167,248.6682 592.5042,249.0807 592,249.0807 C591.4958,249.0807 591.0833,248.6682 591.0833,248.1641 C591.0833,247.6599 591.4958,247.2474 592,247.2474 " fill="#B8860B" style="stroke:;stroke-width:0.0;stroke-dasharray:;"/><text fill="#000000" font-family="sans-serif" font-size="11" font-weight="bold" lengthAdjust="spacingAndGlyphs" textLength="36" x="598.8333" y="253.8198">name</text><text fill="#000000" font-family="sans-serif" font-size="11" lengthAdjust="spacingAndGlyphs" textLength="158" x="634.8333" y="253.8198">: CHARACTER VARYING(256)</text><path d="M589.25,259.1354 C587.7283,259.1354 586.5,260.3638 586.5,261.8854 C586.5,263.4071 587.7283,264.6354 589.25,264.6354 C590.7717,264.6354 592,263.4071 592,261.8854 C592,260.3638 590.7717,259.1354 589.25,259.1354 " fill="#EFEFEF" style="stroke:;stroke-width:0.0;stroke-dasharray:;"/><text fill="#000000" font-family="sans-serif" font-size="11" lengthAdjust="spacingAndGlyphs" textLength="116" x="598.8333" y="266.6245">pointValue: INTEGER</text><path d="M591.5417,271.9401 C590.2767,271.9401 589.25,272.9668 589.25,274.2318 C589.25,274.3784 589.25,274.5251 589.2775,274.6626 L586.5,277.4401 L586.5,279.2734 L589.25,279.2734 L589.25,277.4401 L591.0833,277.4401 L591.0833,276.5234 L591.1108,276.4959 C591.2483,276.5234 591.395,276.5234 591.5417,276.5234 C592.8067,276.5234 593.8333,275.4968 593.8333,274.2318 C593.8333,272.9668 592.8067,271.9401 591.5417,271.9401 M592,272.8568 C592.5042,272.8568 592.9167,273.2693 592.9167,273.7734 C592.9167,274.2776 592.5042,274.6901 592,274.6901 C591.4958,274.6901 591.0833,274.2776 591.0833,273.7734 C591.0833,273.2693 591.4958,272.8568 592,272.8568 " fill="#AAAAAA" style="stroke:;stroke-width:0.0;stroke-dasharray:;"/><text fill="#000000" font-family="sans-serif" font-size="11" lengthAdjust="spacingAndGlyphs" textLength="266" x="598.8333" y="279.4292">userUsername: CHARACTER VARYING(32) «FK»</text><path d="M591.5417,284.7448 C590.2767,284.7448 589.25,285.7715 589.25,287.0365 C589.25,287.1831 589.25,287.3298 589.2775,287.4673 L586.5,290.2448 L586.5,292.0781 L589.25,292.0781 L589.25,290.2448 L591.0833,290.2448 L591.0833,289.3281 L591.1108,289.3006 C591.2483,289.3281 591.395,289.3281 591.5417,289.3281 C592.8067,289.3281 593.8333,288.3015 593.8333,287.0365 C593.8333,285.7715 592.8067,284.7448 591.5417,284.7448 M592,285.6615 C592.5042,285.6615 592.9167,286.074 592.9167,286.5781 C592.9167,287.0823 592.5042,287.4948 592,287.4948 C591.4958,287.4948 591.0833,287.0823 591.0833,286.5781 C591.0833,286.074 591.4958,285.6615 592,285.6615 " fill="#AAAAAA" style="stroke:;stroke-width:0.0;stroke-dasharray:;"/><text fill="#000000" font-family="sans-serif" font-size="11" lengthAdjust="spacingAndGlyphs" textLength="245" x="598.8333" y="292.2339">forceName: CHARACTER VARYING(32) «FK»</text><!--MD5=[08c8db3cd1de498b9a16d89735c08598]
class auth_token--><rect codeLine="92" fill="#FFFFFF" height="82.0234" id="auth_token" rx="2.5" ry="2.5" style="stroke:#2E8B57;stroke-width:1.5;" width="296.3333" x="577" y="639.5"/><text fill="#000000" font-family="sans-serif" font-size="12" font-weight="bold" lengthAdjust="spacingAndGlyphs" textLength="79" x="685.6667" y="655.6387">AuthToken</text><text fill="#808080" font-family="sans-serif" font-size="10" lengthAdjust="spacingAndGlyphs" textLength="69" x="690.6667" y="667.751">(auth_token)</text><line style="stroke:#2E8B57;stroke-width:1.5;" x1="578" x2="872.3333" y1="675.1094" y2="675.1094"/><path d="M589.0417,681.8307 C587.7767,681.8307 586.75,682.8574 586.75,684.1224 C586.75,684.2691 586.75,684.4157 586.7775,684.5532 L584,687.3307 L584,689.1641 L586.75,689.1641 L586.75,687.3307 L588.5833,687.3307 L588.5833,686.4141 L588.6108,686.3866 C588.7483,686.4141 588.895,686.4141 589.0417,686.4141 C590.3067,686.4141 591.3333,685.3874 591.3333,684.1224 C591.3333,682.8574 590.3067,681.8307 589.0417,681.8307 M589.5,682.7474 C590.0042,682.7474 590.4167,683.1599 590.4167,683.6641 C590.4167,684.1682 590.0042,684.5807 589.5,684.5807 C588.9958,684.5807 588.5833,684.1682 588.5833,683.6641 C588.5833,683.1599 588.9958,682.7474 589.5,682.7474 " fill="#B8860B" style="stroke:;stroke-width:0.0;stroke-dasharray:;"/><text fill="#000000" font-family="sans-serif" font-size="11" font-weight="bold" lengthAdjust="spacingAndGlyphs" textLength="39" x="596.3333" y="689.3198">token</text><text fill="#000000" font-family="sans-serif" font-size="11" lengthAdjust="spacingAndGlyphs" textLength="151" x="635.3333" y="689.3198">: CHARACTER VARYING(60)</text><path d="M586.75,694.6354 C585.2283,694.6354 584,695.8638 584,697.3854 C584,698.9071 585.2283,700.1354 586.75,700.1354 C588.2717,700.1354 589.5,698.9071 589.5,697.3854 C589.5,695.8638 588.2717,694.6354 586.75,694.6354 " fill="#EFEFEF" style="stroke:;stroke-width:0.0;stroke-dasharray:;"/><text fill="#000000" font-family="sans-serif" font-size="11" lengthAdjust="spacingAndGlyphs" textLength="109" x="596.3333" y="702.1245">revoked: BOOLEAN</text><path d="M589.0417,707.4401 C587.7767,707.4401 586.75,708.4668 586.75,709.7318 C586.75,709.8784 586.75,710.0251 586.7775,710.1626 L584,712.9401 L584,714.7734 L586.75,714.7734 L586.75,712.9401 L588.5833,712.9401 L588.5833,712.0234 L588.6108,711.9959 C588.7483,712.0234 588.895,712.0234 589.0417,712.0234 C590.3067,712.0234 591.3333,710.9968 591.3333,709.7318 C591.3333,708.4668 590.3067,707.4401 589.0417,707.4401 M589.5,708.3568 C590.0042,708.3568 590.4167,708.7693 590.4167,709.2734 C590.4167,709.7776 590.0042,710.1901 589.5,710.1901 C588.9958,710.1901 588.5833,709.7776 588.5833,709.2734 C588.5833,708.7693 588.9958,708.3568 589.5,708.3568 " fill="#AAAAAA" style="stroke:;stroke-width:0.0;stroke-dasharray:;"/><text fill="#000000" font-family="sans-serif" font-size="11" lengthAdjust="spacingAndGlyphs" textLength="271" x="596.3333" y="714.9292">user_username: CHARACTER VARYING(32) «FK»</text><!--MD5=[2c34311f12d02fb59efe99416f56d977]
class user_paints_paint--><rect codeLine="98" fill="#FFFFFF" height="69.2188" id="user_paints_paint" rx="2.5" ry="2.5" style="stroke:#2E8B57;stroke-width:1.5;" width="271.3333" x="243" y="552"/><text fill="#000000" font-family="sans-serif" font-size="12" font-weight="bold" lengthAdjust="spacingAndGlyphs" textLength="129" x="314.1667" y="568.1387">user_paints_paint</text><text fill="#808080" font-family="sans-serif" font-size="10" lengthAdjust="spacingAndGlyphs" textLength="102" x="327.6667" y="580.251">(user_paints_paint)</text><line style="stroke:#2E8B57;stroke-width:1.5;" x1="244" x2="513.3333" y1="587.6094" y2="587.6094"/><path d="M255.0417,594.3307 C253.7767,594.3307 252.75,595.3574 252.75,596.6224 C252.75,596.7691 252.75,596.9157 252.7775,597.0532 L250,599.8307 L250,601.6641 L252.75,601.6641 L252.75,599.8307 L254.5833,599.8307 L254.5833,598.9141 L254.6108,598.8866 C254.7483,598.9141 254.895,598.9141 255.0417,598.9141 C256.3067,598.9141 257.3333,597.8874 257.3333,596.6224 C257.3333,595.3574 256.3067,594.3307 255.0417,594.3307 M255.5,595.2474 C256.0042,595.2474 256.4167,595.6599 256.4167,596.1641 C256.4167,596.6682 256.0042,597.0807 255.5,597.0807 C254.9958,597.0807 254.5833,596.6682 254.5833,596.1641 C254.5833,595.6599 254.9958,595.2474 255.5,595.2474 " fill="#B8860B" style="stroke:;stroke-width:0.0;stroke-dasharray:;"/><text fill="#000000" font-family="sans-serif" font-size="11" font-weight="bold" lengthAdjust="spacingAndGlyphs" textLength="95" x="262.3333" y="601.8198">userUsername</text><text fill="#000000" font-family="sans-serif" font-size="11" lengthAdjust="spacingAndGlyphs" textLength="151" x="357.3333" y="601.8198">: CHARACTER VARYING(32)</text><path d="M255.0417,607.1354 C253.7767,607.1354 252.75,608.1621 252.75,609.4271 C252.75,609.5738 252.75,609.7204 252.7775,609.8579 L250,612.6354 L250,614.4688 L252.75,614.4688 L252.75,612.6354 L254.5833,612.6354 L254.5833,611.7188 L254.6108,611.6913 C254.7483,611.7188 254.895,611.7188 255.0417,611.7188 C256.3067,611.7188 257.3333,610.6921 257.3333,609.4271 C257.3333,608.1621 256.3067,607.1354 255.0417,607.1354 M255.5,608.0521 C256.0042,608.0521 256.4167,608.4646 256.4167,608.9688 C256.4167,609.4729 256.0042,609.8854 255.5,609.8854 C254.9958,609.8854 254.5833,609.4729 254.5833,608.9688 C254.5833,608.4646 254.9958,608.0521 255.5,608.0521 " fill="#B8860B" style="stroke:;stroke-width:0.0;stroke-dasharray:;"/><text fill="#000000" font-family="sans-serif" font-size="11" font-weight="bold" lengthAdjust="spacingAndGlyphs" textLength="47" x="262.3333" y="614.6245">paintId</text><text fill="#000000" font-family="sans-serif" font-size="11" lengthAdjust="spacingAndGlyphs" textLength="55" x="309.3333" y="614.6245">: INTEGER</text><!--MD5=[6e4ef365ea518b024820d9bab03cc449]
class unit_paint_schemes_paint_scheme--><rect codeLine="103" fill="#FFFFFF" height="69.2188" id="unit_paint_schemes_paint_scheme" rx="2.5" ry="2.5" style="stroke:#2E8B57;stroke-width:1.5;" width="253" x="252" y="318"/><text fill="#000000" font-family="sans-serif" font-size="12" font-weight="bold" lengthAdjust="spacingAndGlyphs" textLength="247" x="255" y="334.1387">unit_paint_schemes_paint_scheme</text><text fill="#808080" font-family="sans-serif" font-size="10" lengthAdjust="spacingAndGlyphs" textLength="196" x="280.5" y="346.251">(unit_paint_schemes_paint_scheme)</text><line style="stroke:#2E8B57;stroke-width:1.5;" x1="253" x2="504" y1="353.6094" y2="353.6094"/><path d="M264.0417,360.3307 C262.7767,360.3307 261.75,361.3574 261.75,362.6224 C261.75,362.7691 261.75,362.9157 261.7775,363.0532 L259,365.8307 L259,367.6641 L261.75,367.6641 L261.75,365.8307 L263.5833,365.8307 L263.5833,364.9141 L263.6108,364.8866 C263.7483,364.9141 263.895,364.9141 264.0417,364.9141 C265.3067,364.9141 266.3333,363.8874 266.3333,362.6224 C266.3333,361.3574 265.3067,360.3307 264.0417,360.3307 M264.5,361.2474 C265.0042,361.2474 265.4167,361.6599 265.4167,362.1641 C265.4167,362.6682 265.0042,363.0807 264.5,363.0807 C263.9958,363.0807 263.5833,362.6682 263.5833,362.1641 C263.5833,361.6599 263.9958,361.2474 264.5,361.2474 " fill="#B8860B" style="stroke:;stroke-width:0.0;stroke-dasharray:;"/><text fill="#000000" font-family="sans-serif" font-size="11" font-weight="bold" lengthAdjust="spacingAndGlyphs" textLength="39" x="271.3333" y="367.8198">unitId</text><text fill="#000000" font-family="sans-serif" font-size="11" lengthAdjust="spacingAndGlyphs" textLength="55" x="310.3333" y="367.8198">: INTEGER</text><path d="M264.0417,373.1354 C262.7767,373.1354 261.75,374.1621 261.75,375.4271 C261.75,375.5738 261.75,375.7204 261.7775,375.8579 L259,378.6354 L259,380.4688 L261.75,380.4688 L261.75,378.6354 L263.5833,378.6354 L263.5833,377.7188 L263.6108,377.6913 C263.7483,377.7188 263.895,377.7188 264.0417,377.7188 C265.3067,377.7188 266.3333,376.6921 266.3333,375.4271 C266.3333,374.1621 265.3067,373.1354 264.0417,373.1354 M264.5,374.0521 C265.0042,374.0521 265.4167,374.4646 265.4167,374.9688 C265.4167,375.4729 265.0042,375.8854 264.5,375.8854 C263.9958,375.8854 263.5833,375.4729 263.5833,374.9688 C263.5833,374.4646 263.9958,374.0521 264.5,374.0521 " fill="#B8860B" style="stroke:;stroke-width:0.0;stroke-dasharray:;"/><text fill="#000000" font-family="sans-serif" font-size="11" font-weight="bold" lengthAdjust="spacingAndGlyphs" textLength="98" x="271.3333" y="380.6245">paintSchemeId</text><text fill="#000000" font-family="sans-serif" font-size="11" lengthAdjust="spacingAndGlyphs" textLength="55" x="369.3333" y="380.6245">: INTEGER</text><!--MD5=[b90c1516bef0449f0c30f9c12a7d9412]
class unit_wargear_wargear--><rect codeLine="108" fill="#FFFFFF" height="69.2188" id="unit_wargear_wargear" rx="2.5" ry="2.5" style="stroke:#2E8B57;stroke-width:1.5;" width="169" x="9" y="7"/><text fill="#000000" font-family="sans-serif" font-size="12" font-weight="bold" lengthAdjust="spacingAndGlyphs" textLength="163" x="12" y="23.1387">unit_wargear_wargear</text><text fill="#808080" font-family="sans-serif" font-size="10" lengthAdjust="spacingAndGlyphs" textLength="127" x="30" y="35.251">(unit_wargear_wargear)</text><line style="stroke:#2E8B57;stroke-width:1.5;" x1="10" x2="177" y1="42.6094" y2="42.6094"/><path d="M21.0417,49.3307 C19.7767,49.3307 18.75,50.3574 18.75,51.6224 C18.75,51.7691 18.75,51.9157 18.7775,52.0532 L16,54.8307 L16,56.6641 L18.75,56.6641 L18.75,54.8307 L20.5833,54.8307 L20.5833,53.9141 L20.6108,53.8866 C20.7483,53.9141 20.895,53.9141 21.0417,53.9141 C22.3067,53.9141 23.3333,52.8874 23.3333,51.6224 C23.3333,50.3574 22.3067,49.3307 21.0417,49.3307 M21.5,50.2474 C22.0042,50.2474 22.4167,50.6599 22.4167,51.1641 C22.4167,51.6682 22.0042,52.0807 21.5,52.0807 C20.9958,52.0807 20.5833,51.6682 20.5833,51.1641 C20.5833,50.6599 20.9958,50.2474 21.5,50.2474 " fill="#B8860B" style="stroke:;stroke-width:0.0;stroke-dasharray:;"/><text fill="#000000" font-family="sans-serif" font-size="11" font-weight="bold" lengthAdjust="spacingAndGlyphs" textLength="39" x="28.3333" y="56.8198">unitId</text><text fill="#000000" font-family="sans-serif" font-size="11" lengthAdjust="spacingAndGlyphs" textLength="55" x="67.3333" y="56.8198">: INTEGER</text><path d="M21.0417,62.1354 C19.7767,62.1354 18.75,63.1621 18.75,64.4271 C18.75,64.5738 18.75,64.7204 18.7775,64.8579 L16,67.6354 L16,69.4688 L18.75,69.4688 L18.75,67.6354 L20.5833,67.6354 L20.5833,66.7188 L20.6108,66.6913 C20.7483,66.7188 20.895,66.7188 21.0417,66.7188 C22.3067,66.7188 23.3333,65.6921 23.3333,64.4271 C23.3333,63.1621 22.3067,62.1354 21.0417,62.1354 M21.5,63.0521 C22.0042,63.0521 22.4167,63.4646 22.4167,63.9688 C22.4167,64.4729 22.0042,64.8854 21.5,64.8854 C20.9958,64.8854 20.5833,64.4729 20.5833,63.9688 C20.5833,63.4646 20.9958,63.0521 21.5,63.0521 " fill="#B8860B" style="stroke:;stroke-width:0.0;stroke-dasharray:;"/><text fill="#000000" font-family="sans-serif" font-size="11" font-weight="bold" lengthAdjust="spacingAndGlyphs" textLength="66" x="28.3333" y="69.6245">wargearId</text><text fill="#000000" font-family="sans-serif" font-size="11" lengthAdjust="spacingAndGlyphs" textLength="55" x="94.3333" y="69.6245">: INTEGER</text><!--MD5=[d84d3d2c6d3c644034c0f41b4284f0cd]
link paint_scheme_part to paint--><path codeLine="113" d="M470.378,484.25 C470.378,484.25 612.499,484.25 612.499,484.25 " fill="none" id="paint_scheme_part-paint" style="stroke:#2E8B57;stroke-width:1.0;"/><line style="stroke:#2E8B57;stroke-width:1.0;" x1="616.499" x2="616.499" y1="480.25" y2="488.25"/><line style="stroke:#2E8B57;stroke-width:1.0;" x1="613.499" x2="613.499" y1="480.25" y2="488.25"/><line style="stroke:#2E8B57;stroke-width:1.0;" x1="612.499" x2="620.499" y1="484.25" y2="484.25"/><line style="stroke:#2E8B57;stroke-width:1.0;" x1="470.378" x2="462.378" y1="484.25" y2="490.25"/><line style="stroke:#2E8B57;stroke-width:1.0;" x1="470.378" x2="462.378" y1="484.25" y2="478.25"/><line style="stroke:#2E8B57;stroke-width:1.0;" x1="470.378" x2="462.378" y1="484.25" y2="484.25"/><ellipse cx="476.378" cy="484.25" fill="none" rx="4" ry="4" style="stroke:#2E8B57;stroke-width:1.0;"/><!--MD5=[51804fdd7e52eee0215de7376667f74c]
link paint_scheme_part to paint_scheme--><path codeLine="114" d="M379,413.711 C379,413.711 379,401.75 379,401.75 C379,401.75 612.25,401.75 612.25,401.75 " fill="none" id="paint_scheme_part-paint_scheme" style="stroke:#2E8B57;stroke-width:1.0;"/><line style="stroke:#2E8B57;stroke-width:1.0;" x1="616.25" x2="616.25" y1="397.75" y2="405.75"/><line style="stroke:#2E8B57;stroke-width:1.0;" x1="613.25" x2="613.25" y1="397.75" y2="405.75"/><line style="stroke:#2E8B57;stroke-width:1.0;" x1="612.25" x2="620.25" y1="401.75" y2="401.75"/><line style="stroke:#2E8B57;stroke-width:1.0;" x1="379" x2="385" y1="413.711" y2="421.711"/><line style="stroke:#2E8B57;stroke-width:1.0;" x1="379" x2="373" y1="413.711" y2="421.711"/><line style="stroke:#2E8B57;stroke-width:1.0;" x1="379" x2="379" y1="413.711" y2="421.711"/><ellipse cx="379" cy="407.711" fill="none" rx="4" ry="4" style="stroke:#2E8B57;stroke-width:1.0;"/><!--MD5=[bb42a4b5aa7add7fe8bba3f898fd8dbd]
link unit to force--><path codeLine="115" d="M868.413,160.5 C868.413,160.5 947.324,160.5 947.324,160.5 " fill="none" id="unit-force" style="stroke:#2E8B57;stroke-width:1.0;"/><line style="stroke:#2E8B57;stroke-width:1.0;" x1="951.324" x2="951.324" y1="156.5" y2="164.5"/><line style="stroke:#2E8B57;stroke-width:1.0;" x1="948.324" x2="948.324" y1="156.5" y2="164.5"/><line style="stroke:#2E8B57;stroke-width:1.0;" x1="947.324" x2="955.324" y1="160.5" y2="160.5"/><line style="stroke:#2E8B57;stroke-width:1.0;" x1="868.413" x2="860.413" y1="160.5" y2="166.5"/><line style="stroke:#2E8B57;stroke-width:1.0;" x1="868.413" x2="860.413" y1="160.5" y2="154.5"/><line style="stroke:#2E8B57;stroke-width:1.0;" x1="868.413" x2="860.413" y1="160.5" y2="160.5"/><ellipse cx="874.413" cy="160.5" fill="none" rx="4" ry="4" style="stroke:#2E8B57;stroke-width:1.0;"/><!--MD5=[a284d820847f0c5e55abe56a1f7247eb]
link wargear_variant to wargear--><path codeLine="116" d="M188.17,130 C188.17,130 265.913,130 265.913,130 " fill="none" id="wargear_variant-wargear" style="stroke:#2E8B57;stroke-width:1.0;"/><line style="stroke:#2E8B57;stroke-width:1.0;" x1="269.913" x2="269.913" y1="126" y2="134"/><line style="stroke:#2E8B57;stroke-width:1.0;" x1="266.913" x2="266.913" y1="126" y2="134"/><line style="stroke:#2E8B57;stroke-width:1.0;" x1="265.913" x2="273.913" y1="130" y2="130"/><line style="stroke:#2E8B57;stroke-width:1.0;" x1="188.17" x2="180.17" y1="130" y2="136"/><line style="stroke:#2E8B57;stroke-width:1.0;" x1="188.17" x2="180.17" y1="130" y2="124"/><line style="stroke:#2E8B57;stroke-width:1.0;" x1="188.17" x2="180.17" y1="130" y2="130"/><ellipse cx="194.17" cy="130" fill="none" rx="4" ry="4" style="stroke:#2E8B57;stroke-width:1.0;"/><!--MD5=[ddb1fd4eac3b4cd2ee2886cb7443e9c2]
link wargear_variant to unit_variant--><path codeLine="117" d="M188.17,195.25 C188.17,195.25 231.926,195.25 231.926,195.25 " fill="none" id="wargear_variant-unit_variant" style="stroke:#2E8B57;stroke-width:1.0;"/><line style="stroke:#2E8B57;stroke-width:1.0;" x1="235.926" x2="235.926" y1="191.25" y2="199.25"/><line style="stroke:#2E8B57;stroke-width:1.0;" x1="232.926" x2="232.926" y1="191.25" y2="199.25"/><line style="stroke:#2E8B57;stroke-width:1.0;" x1="231.926" x2="239.926" y1="195.25" y2="195.25"/><line style="stroke:#2E8B57;stroke-width:1.0;" x1="188.17" x2="180.17" y1="195.25" y2="201.25"/><line style="stroke:#2E8B57;stroke-width:1.0;" x1="188.17" x2="180.17" y1="195.25" y2="189.25"/><line style="stroke:#2E8B57;stroke-width:1.0;" x1="188.17" x2="180.17" y1="195.25" y2="195.25"/><ellipse cx="194.17" cy="195.25" fill="none" rx="4" ry="4" style="stroke:#2E8B57;stroke-width:1.0;"/><!--MD5=[24cd72d0ee10b6fbe1168e42fe208aa0]
link unit_variant to army--><path codeLine="118" d="M525.438,243.25 C525.438,243.25 571.23,243.25 571.23,243.25 " fill="none" id="unit_variant-army" style="stroke:#2E8B57;stroke-width:1.0;"/><line style="stroke:#2E8B57;stroke-width:1.0;" x1="575.23" x2="575.23" y1="239.25" y2="247.25"/><line style="stroke:#2E8B57;stroke-width:1.0;" x1="572.23" x2="572.23" y1="239.25" y2="247.25"/><line style="stroke:#2E8B57;stroke-width:1.0;" x1="571.23" x2="579.23" y1="243.25" y2="243.25"/><line style="stroke:#2E8B57;stroke-width:1.0;" x1="525.438" x2="517.438" y1="243.25" y2="249.25"/><line style="stroke:#2E8B57;stroke-width:1.0;" x1="525.438" x2="517.438" y1="243.25" y2="237.25"/><line style="stroke:#2E8B57;stroke-width:1.0;" x1="525.438" x2="517.438" y1="243.25" y2="243.25"/><ellipse cx="531.438" cy="243.25" fill="none" rx="4" ry="4" style="stroke:#2E8B57;stroke-width:1.0;"/><!--MD5=[fa703c3c907c8a04f9501b2d374fab01]
link unit_variant to unit--><path codeLine="119" d="M500,166.479 C500,166.479 500,148.833 500,148.833 C500,148.833 581.896,148.833 581.896,148.833 " fill="none" id="unit_variant-unit" style="stroke:#2E8B57;stroke-width:1.0;"/><line style="stroke:#2E8B57;stroke-width:1.0;" x1="585.896" x2="585.896" y1="144.833" y2="152.833"/><line style="stroke:#2E8B57;stroke-width:1.0;" x1="582.896" x2="582.896" y1="144.833" y2="152.833"/><line style="stroke:#2E8B57;stroke-width:1.0;" x1="581.896" x2="589.896" y1="148.833" y2="148.833"/><line style="stroke:#2E8B57;stroke-width:1.0;" x1="500" x2="506" y1="166.479" y2="174.479"/><line style="stroke:#2E8B57;stroke-width:1.0;" x1="500" x2="494" y1="166.479" y2="174.479"/><line style="stroke:#2E8B57;stroke-width:1.0;" x1="500" x2="500" y1="166.479" y2="174.479"/><ellipse cx="500" cy="160.479" fill="none" rx="4" ry="4" style="stroke:#2E8B57;stroke-width:1.0;"/><!--MD5=[61cf6c37c3e0eb62e651aa2ee21fb127]
link army to user--><path codeLine="120" d="M878.518,253.75 C878.518,253.75 945,253.75 945,253.75 C945,253.75 945,537.365 945,537.365 " fill="none" id="army-user" style="stroke:#2E8B57;stroke-width:1.0;"/><line style="stroke:#2E8B57;stroke-width:1.0;" x1="949" x2="941" y1="541.365" y2="541.365"/><line style="stroke:#2E8B57;stroke-width:1.0;" x1="949" x2="941" y1="538.365" y2="538.365"/><line style="stroke:#2E8B57;stroke-width:1.0;" x1="945" x2="945" y1="537.365" y2="545.365"/><line style="stroke:#2E8B57;stroke-width:1.0;" x1="878.518" x2="870.518" y1="253.75" y2="259.75"/><line style="stroke:#2E8B57;stroke-width:1.0;" x1="878.518" x2="870.518" y1="253.75" y2="247.75"/><line style="stroke:#2E8B57;stroke-width:1.0;" x1="878.518" x2="870.518" y1="253.75" y2="253.75"/><ellipse cx="884.518" cy="253.75" fill="none" rx="4" ry="4" style="stroke:#2E8B57;stroke-width:1.0;"/><!--MD5=[1a0ab25b4b7fba090539ecc8a8d05ae8]
link army to force--><path codeLine="121" d="M866,195.688 C866,195.688 866,189.25 866,189.25 C866,189.25 947.454,189.25 947.454,189.25 " fill="none" id="army-force" style="stroke:#2E8B57;stroke-width:1.0;"/><line style="stroke:#2E8B57;stroke-width:1.0;" x1="951.454" x2="951.454" y1="185.25" y2="193.25"/><line style="stroke:#2E8B57;stroke-width:1.0;" x1="948.454" x2="948.454" y1="185.25" y2="193.25"/><line style="stroke:#2E8B57;stroke-width:1.0;" x1="947.454" x2="955.454" y1="189.25" y2="189.25"/><line style="stroke:#2E8B57;stroke-width:1.0;" x1="866" x2="872" y1="195.688" y2="203.688"/><line style="stroke:#2E8B57;stroke-width:1.0;" x1="866" x2="860" y1="195.688" y2="203.688"/><line style="stroke:#2E8B57;stroke-width:1.0;" x1="866" x2="866" y1="195.688" y2="203.688"/><ellipse cx="866" cy="189.688" fill="none" rx="4" ry="4" style="stroke:#2E8B57;stroke-width:1.0;"/><!--MD5=[3d58c64899f79338742d0feef0054636]
link auth_token to user--><path codeLine="122" d="M850,631.25 C850,631.25 850,598 850,598 C850,598 924.983,598 924.983,598 " fill="none" id="auth_token-user" style="stroke:#2E8B57;stroke-width:1.0;"/><line style="stroke:#2E8B57;stroke-width:1.0;" x1="928.983" x2="928.983" y1="594" y2="602"/><line style="stroke:#2E8B57;stroke-width:1.0;" x1="925.983" x2="925.983" y1="594" y2="602"/><line style="stroke:#2E8B57;stroke-width:1.0;" x1="924.983" x2="932.983" y1="598" y2="598"/><line style="stroke:#2E8B57;stroke-width:1.0;" x1="850" x2="856" y1="631.25" y2="639.25"/><line style="stroke:#2E8B57;stroke-width:1.0;" x1="850" x2="844" y1="631.25" y2="639.25"/><line style="stroke:#2E8B57;stroke-width:1.0;" x1="850" x2="850" y1="631.25" y2="639.25"/><ellipse cx="850" cy="625.25" fill="none" rx="4" ry="4" style="stroke:#2E8B57;stroke-width:1.0;"/><!--MD5=[a80db4de5ada73f95eccc51e44618078]
link user_paints_paint to user--><path codeLine="123" d="M522.255,575 C522.255,575 924.937,575 924.937,575 " fill="none" id="user_paints_paint-user" style="stroke:#2E8B57;stroke-width:1.0;"/><line style="stroke:#2E8B57;stroke-width:1.0;" x1="928.937" x2="928.937" y1="571" y2="579"/><line style="stroke:#2E8B57;stroke-width:1.0;" x1="925.937" x2="925.937" y1="571" y2="579"/><line style="stroke:#2E8B57;stroke-width:1.0;" x1="924.937" x2="932.937" y1="575" y2="575"/><line style="stroke:#2E8B57;stroke-width:1.0;" x1="522.255" x2="514.255" y1="575" y2="581"/><line style="stroke:#2E8B57;stroke-width:1.0;" x1="522.255" x2="514.255" y1="575" y2="569"/><line style="stroke:#2E8B57;stroke-width:1.0;" x1="522.255" x2="514.255" y1="575" y2="575"/><line style="stroke:#2E8B57;stroke-width:1.0;" x1="524.255" x2="524.255" y1="579" y2="571"/><!--MD5=[206bab979a87a4348d81487fdb0d2e97]
link user_paints_paint to paint--><path codeLine="124" d="M510,543.937 C510,543.937 510,525.25 510,525.25 C510,525.25 612.334,525.25 612.334,525.25 " fill="none" id="user_paints_paint-paint" style="stroke:#2E8B57;stroke-width:1.0;"/><line style="stroke:#2E8B57;stroke-width:1.0;" x1="616.334" x2="616.334" y1="521.25" y2="529.25"/><line style="stroke:#2E8B57;stroke-width:1.0;" x1="613.334" x2="613.334" y1="521.25" y2="529.25"/><line style="stroke:#2E8B57;stroke-width:1.0;" x1="612.334" x2="620.334" y1="525.25" y2="525.25"/><line style="stroke:#2E8B57;stroke-width:1.0;" x1="510" x2="516" y1="543.937" y2="551.937"/><line style="stroke:#2E8B57;stroke-width:1.0;" x1="510" x2="504" y1="543.937" y2="551.937"/><line style="stroke:#2E8B57;stroke-width:1.0;" x1="510" x2="510" y1="543.937" y2="551.937"/><line style="stroke:#2E8B57;stroke-width:1.0;" x1="514" x2="506" y1="541.937" y2="541.937"/><!--MD5=[5bffbb298804bf68381b0ae743f19a1d]
link unit_paint_schemes_paint_scheme to unit--><path codeLine="125" d="M513.348,326.25 C513.348,326.25 547,326.25 547,326.25 C547,326.25 547,158.667 547,158.667 C547,158.667 581.635,158.667 581.635,158.667 " fill="none" id="unit_paint_schemes_paint_scheme-unit" style="stroke:#2E8B57;stroke-width:1.0;"/><line style="stroke:#2E8B57;stroke-width:1.0;" x1="585.635" x2="585.635" y1="154.667" y2="162.667"/><line style="stroke:#2E8B57;stroke-width:1.0;" x1="582.635" x2="582.635" y1="154.667" y2="162.667"/><line style="stroke:#2E8B57;stroke-width:1.0;" x1="581.635" x2="589.635" y1="158.667" y2="158.667"/><line style="stroke:#2E8B57;stroke-width:1.0;" x1="513.348" x2="505.348" y1="326.25" y2="332.25"/><line style="stroke:#2E8B57;stroke-width:1.0;" x1="513.348" x2="505.348" y1="326.25" y2="320.25"/><line style="stroke:#2E8B57;stroke-width:1.0;" x1="513.348" x2="505.348" y1="326.25" y2="326.25"/><line style="stroke:#2E8B57;stroke-width:1.0;" x1="515.348" x2="515.348" y1="330.25" y2="322.25"/><!--MD5=[d5c2e81e65b4594e5f4a9bd9f675e95e]
link unit_paint_schemes_paint_scheme to paint_scheme--><path codeLine="126" d="M513.065,360.75 C513.065,360.75 612.381,360.75 612.381,360.75 " fill="none" id="unit_paint_schemes_paint_scheme-paint_scheme" style="stroke:#2E8B57;stroke-width:1.0;"/><line style="stroke:#2E8B57;stroke-width:1.0;" x1="616.381" x2="616.381" y1="356.75" y2="364.75"/><line style="stroke:#2E8B57;stroke-width:1.0;" x1="613.381" x2="613.381" y1="356.75" y2="364.75"/><line style="stroke:#2E8B57;stroke-width:1.0;" x1="612.381" x2="620.381" y1="360.75" y2="360.75"/><line style="stroke:#2E8B57;stroke-width:1.0;" x1="513.065" x2="505.065" y1="360.75" y2="366.75"/><line style="stroke:#2E8B57;stroke-width:1.0;" x1="513.065" x2="505.065" y1="360.75" y2="354.75"/><line style="stroke:#2E8B57;stroke-width:1.0;" x1="513.065" x2="505.065" y1="360.75" y2="360.75"/><line style="stroke:#2E8B57;stroke-width:1.0;" x1="515.065" x2="515.065" y1="364.75" y2="356.75"/><!--MD5=[f1bbecd52dd0eed4931fc5d454c93399]
link unit_wargear_wargear to unit--><path codeLine="127" d="M186.012,25.5 C186.012,25.5 725,25.5 725,25.5 C725,25.5 725,40.18 725,40.18 " fill="none" id="unit_wargear_wargear-unit" style="stroke:#2E8B57;stroke-width:1.0;"/><line style="stroke:#2E8B57;stroke-width:1.0;" x1="729" x2="721" y1="44.18" y2="44.18"/><line style="stroke:#2E8B57;stroke-width:1.0;" x1="729" x2="721" y1="41.18" y2="41.18"/><line style="stroke:#2E8B57;stroke-width:1.0;" x1="725" x2="725" y1="40.18" y2="48.18"/><line style="stroke:#2E8B57;stroke-width:1.0;" x1="186.012" x2="178.012" y1="25.5" y2="31.5"/><line style="stroke:#2E8B57;stroke-width:1.0;" x1="186.012" x2="178.012" y1="25.5" y2="19.5"/><line style="stroke:#2E8B57;stroke-width:1.0;" x1="186.012" x2="178.012" y1="25.5" y2="25.5"/><line style="stroke:#2E8B57;stroke-width:1.0;" x1="188.012" x2="188.012" y1="29.5" y2="21.5"/><!--MD5=[ad0d98b8f0616d9c75d130ae10a12f42]
link unit_wargear_wargear to wargear--><path codeLine="128" d="M186.238,60 C186.238,60 265.895,60 265.895,60 " fill="none" id="unit_wargear_wargear-wargear" style="stroke:#2E8B57;stroke-width:1.0;"/><line style="stroke:#2E8B57;stroke-width:1.0;" x1="269.895" x2="269.895" y1="56" y2="64"/><line style="stroke:#2E8B57;stroke-width:1.0;" x1="266.895" x2="266.895" y1="56" y2="64"/><line style="stroke:#2E8B57;stroke-width:1.0;" x1="265.895" x2="273.895" y1="60" y2="60"/><line style="stroke:#2E8B57;stroke-width:1.0;" x1="186.238" x2="178.238" y1="60" y2="66"/><line style="stroke:#2E8B57;stroke-width:1.0;" x1="186.238" x2="178.238" y1="60" y2="54"/><line style="stroke:#2E8B57;stroke-width:1.0;" x1="186.238" x2="178.238" y1="60" y2="60"/><line style="stroke:#2E8B57;stroke-width:1.0;" x1="188.238" x2="188.238" y1="64" y2="56"/><!--MD5=[06c6a00db369cb64ed2187b78c453492]
@startuml
!define table(ename, dbname) entity "<b>ename</b>\n<font size=10 color=gray>(dbname)</font>"

!define pkey(x) {field} <b><color:DarkGoldenRod><&key></color> x</b>
!define fkey(x) {field} <color:#AAAAAA><&key></color> x
!define column(x) {field} <color:#EFEFEF><&media-record></color> x

hide stereotypes
hide methods
hide circle

left to right direction

skinparam roundcorner 5
skinparam linetype ortho
skinparam shadowing false
skinparam handwritten false

skinparam class {
    BackgroundColor white
    ArrowColor seagreen
    BorderColor seagreen
}


table( User, user ) as user {
  pkey( username ): CHARACTER VARYING(32) 
  column( email ): CHARACTER VARYING(254) 
  column( passwordHash ): CHARACTER VARYING(60) 
}

table( Paint, paint ) as paint {
  pkey( id ): INTEGER 
  column( name ): CHARACTER VARYING(64) 
  column( type ): ENUM 
}

table( PaintSchemePart, paint_scheme_part ) as paint_scheme_part {
  pkey( id ): INTEGER 
  column( order ): INTEGER 
  fkey( paintId ): INTEGER <<FK>>
  fkey( schemeId ): INTEGER <<FK>>
}

table( PaintScheme, paint_scheme ) as paint_scheme {
  pkey( id ): INTEGER 
  column( name ): CHARACTER VARYING(64) 
  column( image ): CHARACTER VARYING 
}

table( Wargear, wargear ) as wargear {
  pkey( id ): INTEGER 
  column( name ): CHARACTER VARYING(64) 
  column( type ): ENUM 
  column( pointValue ): INTEGER 
}

table( Unit, unit ) as unit {
  pkey( id ): INTEGER 
  column( name ): CHARACTER VARYING(64) 
  column( modelsPerUnit ): INT4RANGE 
  column( pointsPerModel ): INTEGER 
  column( type ): ENUM 
  fkey( forceName ): CHARACTER VARYING(32) <<FK>>
}

table( Force, force ) as force {
  pkey( name ): CHARACTER VARYING(32) 
}

table( WargearVariant, wargear_variant ) as wargear_variant {
  pkey( id ): INTEGER 
  column( count ): INTEGER 
  fkey( wargear_id ): INTEGER <<FK>>
  fkey( unitId ): INTEGER <<FK>>
}

table( UnitVariant, unit_variant ) as unit_variant {
  pkey( id ): INTEGER 
  column( numberOfModels ): INTEGER 
  column( pointValue ): INTEGER 
  fkey( armyName ): CHARACTER VARYING(256) <<FK>>
  fkey( unit_id ): INTEGER <<FK>>
}

table( Army, army ) as army {
  pkey( name ): CHARACTER VARYING(256) 
  column( pointValue ): INTEGER 
  fkey( userUsername ): CHARACTER VARYING(32) <<FK>>
  fkey( forceName ): CHARACTER VARYING(32) <<FK>>
}

table( AuthToken, auth_token ) as auth_token {
  pkey( token ): CHARACTER VARYING(60) 
  column( revoked ): BOOLEAN 
  fkey( user_username ): CHARACTER VARYING(32) <<FK>>
}

table( user_paints_paint, user_paints_paint ) as user_paints_paint {
  pkey( userUsername ): CHARACTER VARYING(32) 
  pkey( paintId ): INTEGER 
}

table( unit_paint_schemes_paint_scheme, unit_paint_schemes_paint_scheme ) as unit_paint_schemes_paint_scheme {
  pkey( unitId ): INTEGER 
  pkey( paintSchemeId ): INTEGER 
}

table( unit_wargear_wargear, unit_wargear_wargear ) as unit_wargear_wargear {
  pkey( unitId ): INTEGER 
  pkey( wargearId ): INTEGER 
}

paint_scheme_part }o- -|| paint
paint_scheme_part }o- -|| paint_scheme
unit }o- -|| force
wargear_variant }o- -|| wargear
wargear_variant }o- -|| unit_variant
unit_variant }o- -|| army
unit_variant }o- -|| unit
army }o- -|| user
army }o- -|| force
auth_token }o- -|| user
user_paints_paint }|- -|| user
user_paints_paint }|- -|| paint
unit_paint_schemes_paint_scheme }|- -|| unit
unit_paint_schemes_paint_scheme }|- -|| paint_scheme
unit_wargear_wargear }|- -|| unit
unit_wargear_wargear }|- -|| wargear
@enduml

@startuml


hide stereotypes
hide methods
hide circle

left to right direction

skinparam roundcorner 5
skinparam linetype ortho
skinparam shadowing false
skinparam handwritten false

skinparam class {
    BackgroundColor white
    ArrowColor seagreen
    BorderColor seagreen
}


entity "<b>User</b>\n<font size=10 color=gray>(user)</font>" as user {
  {field} <b><color:DarkGoldenRod><&key></color> username</b>: CHARACTER VARYING(32) 
  {field} <color:#EFEFEF><&media-record></color> email: CHARACTER VARYING(254) 
  {field} <color:#EFEFEF><&media-record></color> passwordHash: CHARACTER VARYING(60) 
}

entity "<b>Paint</b>\n<font size=10 color=gray>(paint)</font>" as paint {
  {field} <b><color:DarkGoldenRod><&key></color> id</b>: INTEGER 
  {field} <color:#EFEFEF><&media-record></color> name: CHARACTER VARYING(64) 
  {field} <color:#EFEFEF><&media-record></color> type: ENUM 
}

entity "<b>PaintSchemePart</b>\n<font size=10 color=gray>(paint_scheme_part)</font>" as paint_scheme_part {
  {field} <b><color:DarkGoldenRod><&key></color> id</b>: INTEGER 
  {field} <color:#EFEFEF><&media-record></color> order: INTEGER 
  {field} <color:#AAAAAA><&key></color> paintId: INTEGER <<FK>>
  {field} <color:#AAAAAA><&key></color> schemeId: INTEGER <<FK>>
}

entity "<b>PaintScheme</b>\n<font size=10 color=gray>(paint_scheme)</font>" as paint_scheme {
  {field} <b><color:DarkGoldenRod><&key></color> id</b>: INTEGER 
  {field} <color:#EFEFEF><&media-record></color> name: CHARACTER VARYING(64) 
  {field} <color:#EFEFEF><&media-record></color> image: CHARACTER VARYING 
}

entity "<b>Wargear</b>\n<font size=10 color=gray>(wargear)</font>" as wargear {
  {field} <b><color:DarkGoldenRod><&key></color> id</b>: INTEGER 
  {field} <color:#EFEFEF><&media-record></color> name: CHARACTER VARYING(64) 
  {field} <color:#EFEFEF><&media-record></color> type: ENUM 
  {field} <color:#EFEFEF><&media-record></color> pointValue: INTEGER 
}

entity "<b>Unit</b>\n<font size=10 color=gray>(unit)</font>" as unit {
  {field} <b><color:DarkGoldenRod><&key></color> id</b>: INTEGER 
  {field} <color:#EFEFEF><&media-record></color> name: CHARACTER VARYING(64) 
  {field} <color:#EFEFEF><&media-record></color> modelsPerUnit: INT4RANGE 
  {field} <color:#EFEFEF><&media-record></color> pointsPerModel: INTEGER 
  {field} <color:#EFEFEF><&media-record></color> type: ENUM 
  {field} <color:#AAAAAA><&key></color> forceName: CHARACTER VARYING(32) <<FK>>
}

entity "<b>Force</b>\n<font size=10 color=gray>(force)</font>" as force {
  {field} <b><color:DarkGoldenRod><&key></color> name</b>: CHARACTER VARYING(32) 
}

entity "<b>WargearVariant</b>\n<font size=10 color=gray>(wargear_variant)</font>" as wargear_variant {
  {field} <b><color:DarkGoldenRod><&key></color> id</b>: INTEGER 
  {field} <color:#EFEFEF><&media-record></color> count: INTEGER 
  {field} <color:#AAAAAA><&key></color> wargear_id: INTEGER <<FK>>
  {field} <color:#AAAAAA><&key></color> unitId: INTEGER <<FK>>
}

entity "<b>UnitVariant</b>\n<font size=10 color=gray>(unit_variant)</font>" as unit_variant {
  {field} <b><color:DarkGoldenRod><&key></color> id</b>: INTEGER 
  {field} <color:#EFEFEF><&media-record></color> numberOfModels: INTEGER 
  {field} <color:#EFEFEF><&media-record></color> pointValue: INTEGER 
  {field} <color:#AAAAAA><&key></color> armyName: CHARACTER VARYING(256) <<FK>>
  {field} <color:#AAAAAA><&key></color> unit_id: INTEGER <<FK>>
}

entity "<b>Army</b>\n<font size=10 color=gray>(army)</font>" as army {
  {field} <b><color:DarkGoldenRod><&key></color> name</b>: CHARACTER VARYING(256) 
  {field} <color:#EFEFEF><&media-record></color> pointValue: INTEGER 
  {field} <color:#AAAAAA><&key></color> userUsername: CHARACTER VARYING(32) <<FK>>
  {field} <color:#AAAAAA><&key></color> forceName: CHARACTER VARYING(32) <<FK>>
}

entity "<b>AuthToken</b>\n<font size=10 color=gray>(auth_token)</font>" as auth_token {
  {field} <b><color:DarkGoldenRod><&key></color> token</b>: CHARACTER VARYING(60) 
  {field} <color:#EFEFEF><&media-record></color> revoked: BOOLEAN 
  {field} <color:#AAAAAA><&key></color> user_username: CHARACTER VARYING(32) <<FK>>
}

entity "<b>user_paints_paint</b>\n<font size=10 color=gray>(user_paints_paint)</font>" as user_paints_paint {
  {field} <b><color:DarkGoldenRod><&key></color> userUsername</b>: CHARACTER VARYING(32) 
  {field} <b><color:DarkGoldenRod><&key></color> paintId</b>: INTEGER 
}

entity "<b>unit_paint_schemes_paint_scheme</b>\n<font size=10 color=gray>(unit_paint_schemes_paint_scheme)</font>" as unit_paint_schemes_paint_scheme {
  {field} <b><color:DarkGoldenRod><&key></color> unitId</b>: INTEGER 
  {field} <b><color:DarkGoldenRod><&key></color> paintSchemeId</b>: INTEGER 
}

entity "<b>unit_wargear_wargear</b>\n<font size=10 color=gray>(unit_wargear_wargear)</font>" as unit_wargear_wargear {
  {field} <b><color:DarkGoldenRod><&key></color> unitId</b>: INTEGER 
  {field} <b><color:DarkGoldenRod><&key></color> wargearId</b>: INTEGER 
}

paint_scheme_part }o- -|| paint
paint_scheme_part }o- -|| paint_scheme
unit }o- -|| force
wargear_variant }o- -|| wargear
wargear_variant }o- -|| unit_variant
unit_variant }o- -|| army
unit_variant }o- -|| unit
army }o- -|| user
army }o- -|| force
auth_token }o- -|| user
user_paints_paint }|- -|| user
user_paints_paint }|- -|| paint
unit_paint_schemes_paint_scheme }|- -|| unit
unit_paint_schemes_paint_scheme }|- -|| paint_scheme
unit_wargear_wargear }|- -|| unit
unit_wargear_wargear }|- -|| wargear
@enduml

PlantUML version 1.2020.24(Fri Dec 18 17:00:36 UTC 2020)
(GPL source distribution)
Java Runtime: Java(TM) SE Runtime Environment
JVM: Java HotSpot(TM) 64-Bit Server VM
Default Encoding: UTF-8
Language: en
Country: US
--></g></svg>